<svg width="30" height="30" viewBox="0 0 30 30" fill="none" xmlns="http://www.w3.org/2000/svg">
<g clip-path="url(#clip0_945_685)">
<path d="M23.9943 29.9998C23.905 29.9998 23.8159 29.9813 23.7325 29.9443C20.2433 28.3935 17.9888 24.9243 17.9888 21.106V17.4421C17.9888 17.1873 18.1388 16.9565 18.3715 16.8531C22.1025 15.1948 25.886 15.1948 29.617 16.8531C29.8498 16.9565 29.9998 17.1873 29.9998 17.4421V21.106C29.9998 24.9243 27.7452 28.3935 24.2561 29.9443C24.1728 29.9813 24.0835 29.9998 23.9943 29.9998ZM19.2778 17.8674V21.106C19.2778 24.3188 21.1197 27.2466 23.9943 28.6445C26.8688 27.2466 28.7107 24.3189 28.7107 21.106V17.8674C25.5788 16.5815 22.4098 16.5815 19.2778 17.8674Z" fill="#D9AE5F"/>
<path d="M23.3627 24.7108C23.1977 24.7108 23.0328 24.648 22.9069 24.522L21.6433 23.2585C21.3917 23.0067 21.3917 22.5986 21.6433 22.3469C21.8951 22.0953 22.3032 22.0953 22.5549 22.3469L23.3627 23.1547L25.4341 21.0833C25.6858 20.8316 26.0939 20.8316 26.3457 21.0833C26.5973 21.3351 26.5973 21.7432 26.3457 21.9949L23.8185 24.522C23.6925 24.6479 23.5276 24.7108 23.3627 24.7108Z" fill="#D9AE5F"/>
<path d="M4.21875 13.2031H6.60141C6.95736 13.2031 7.24594 12.9146 7.24594 12.5586C7.24594 12.2026 6.95736 11.9141 6.60141 11.9141H4.21875C3.86279 11.9141 3.57422 12.2026 3.57422 12.5586C3.57422 12.9146 3.86279 13.2031 4.21875 13.2031Z" fill="#C7C3EF"/>
<path d="M4.21875 16.7754H14.9406C15.2966 16.7754 15.5852 16.4868 15.5852 16.1309C15.5852 15.7749 15.2966 15.4863 14.9406 15.4863H4.21875C3.86279 15.4863 3.57422 15.7749 3.57422 16.1309C3.57422 16.4868 3.86279 16.7754 4.21875 16.7754Z" fill="#C7C3EF"/>
<path d="M12.5579 13.2031C12.9139 13.2031 13.2025 12.9146 13.2025 12.5586C13.2025 12.2026 12.9139 11.9141 12.5579 11.9141H10.1753C9.81934 11.9141 9.53076 12.2026 9.53076 12.5586C9.53076 12.9146 9.81934 13.2031 10.1753 13.2031H12.5579Z" fill="#C7C3EF"/>
<path d="M27.5685 0H2.43152C1.09078 0 0 1.09078 0 2.43152V18.5144C0 19.8551 1.09078 20.9459 2.43152 20.9459H17.989V19.6569H2.43152C1.80158 19.6569 1.28906 19.1443 1.28906 18.5144V8.43697H28.7109V16.4846C29.0133 16.597 29.3155 16.7191 29.6172 16.8533C29.85 16.9567 30 17.1875 30 17.4422V2.43152C30 1.09078 28.9092 0 27.5685 0ZM2.43152 1.28906H27.5685C28.1984 1.28906 28.7109 1.80158 28.7109 2.43152V3.57398H1.28906V2.43152C1.28906 1.80158 1.80158 1.28906 2.43152 1.28906ZM1.28906 7.14791V4.86305H28.7109V7.14791H1.28906Z" fill="#C7C3EF"/>
</g>
<defs>
<clipPath id="clip0_945_685">
<rect width="30" height="30" fill="white"/>
</clipPath>
</defs>
</svg>
