<svg width="210" height="58" viewBox="0 0 210 58" fill="none" xmlns="http://www.w3.org/2000/svg">
<g clip-path="url(#clip0_945_628)">
<path d="M32.687 51.2366C32.687 48.5497 34.3305 46.9746 36.5218 46.9746C37.7088 46.9746 38.4392 47.4379 38.987 47.9938L38.2566 48.9203C37.8914 48.5497 37.3435 48.2717 36.6131 48.2717C35.1522 48.2717 34.2392 49.3836 34.2392 51.2366C34.2392 53.0896 35.0609 54.2014 36.7044 54.2014C37.1609 54.2014 37.6174 54.1088 37.8914 53.8308V52.0705H36.3392V50.866H39.1696V54.4794C38.6218 55.0353 37.7087 55.4986 36.6131 55.4986C34.3305 55.4986 32.687 53.9235 32.687 51.2366Z" fill="white"/>
<path d="M41.4521 52.9965V49.1051H42.8217V52.8112C42.8217 53.8304 43.0956 54.201 43.7348 54.201C44.2826 54.201 44.6478 53.923 45.1043 53.3671V49.1978H46.5652V55.3128H45.3782L45.2869 54.3863C44.7391 55.0348 44.1913 55.4054 43.3695 55.4054C42 55.4981 41.4521 54.5716 41.4521 52.9965ZM42 47.3447C42 46.8815 42.3652 46.6035 42.7304 46.6035C43.1869 46.6035 43.4608 46.9741 43.4608 47.3447C43.4608 47.808 43.1869 48.0859 42.7304 48.0859C42.3652 48.0859 42 47.7153 42 47.3447ZM44.5565 47.3447C44.5565 46.8815 44.8304 46.6035 45.2869 46.6035C45.7434 46.6035 46.0174 46.9741 46.0174 47.3447C46.0174 47.808 45.6521 48.0859 45.2869 48.0859C44.8304 48.0859 44.5565 47.7153 44.5565 47.3447Z" fill="white"/>
<path d="M48.3916 49.1973H49.8525L50.8568 52.3474C51.0394 52.996 51.222 53.5519 51.4046 54.2005H51.496C51.6786 53.5519 51.8612 52.9033 52.0438 52.3474L53.0481 49.1973H54.4177L52.3177 55.3123H50.6742L48.3916 49.1973Z" fill="white"/>
<path d="M55.4219 52.2565C55.4219 50.2181 56.7914 49.0137 58.2523 49.0137C59.8958 49.0137 60.7175 50.2181 60.7175 51.9785C60.7175 52.2565 60.7175 52.5344 60.6262 52.7197H56.7914C56.974 53.8316 57.7045 54.3875 58.5262 54.3875C59.074 54.3875 59.5306 54.2022 59.8958 53.9242L60.3523 54.8507C59.8045 55.2213 59.074 55.4993 58.2523 55.4993C56.7914 55.4993 55.4219 54.2948 55.4219 52.2565ZM56.8827 51.6079H59.4393C59.4393 50.6814 59.074 50.2181 58.2523 50.2181C57.7045 50.1255 57.0654 50.4961 56.8827 51.6079Z" fill="white"/>
<path d="M62.9087 49.199H64.0956L64.187 50.0328H64.2783C64.8261 49.4769 65.4652 49.0137 66.2869 49.0137C67.5652 49.0137 68.113 49.9402 68.113 51.4226V55.314H66.6522V51.6079C66.6522 50.5888 66.3783 50.2181 65.7391 50.2181C65.1913 50.2181 64.8261 50.4961 64.3696 50.9594V55.2213H63V49.199H62.9087Z" fill="white"/>
<path d="M70.4868 53.7386V46.5117H71.8564V53.8312C71.8564 54.2018 72.039 54.2945 72.2216 54.2945C72.3129 54.2945 72.3129 54.2945 72.4042 54.2945L72.5868 55.4063C72.4042 55.4989 72.1303 55.4989 71.8564 55.4989C70.852 55.4989 70.4868 54.7577 70.4868 53.7386Z" fill="white"/>
<path d="M74.4131 47.2518C74.4131 46.7886 74.7783 46.418 75.2348 46.418C75.7827 46.418 76.0566 46.7886 76.0566 47.2518C76.0566 47.7151 75.6913 48.0857 75.2348 48.0857C74.7783 48.0857 74.4131 47.8077 74.4131 47.2518ZM74.5957 49.1975H75.9653V55.3125H74.5957V49.1975Z" fill="white"/>
<path d="M81.4434 51.2366C81.4434 48.5497 83.0868 46.9746 85.2781 46.9746C86.4651 46.9746 87.1955 47.4379 87.7434 47.9938L87.0129 48.9203C86.6477 48.5497 86.0999 48.2717 85.3694 48.2717C83.9086 48.2717 82.9955 49.3836 82.9955 51.2366C82.9955 53.0896 83.8173 54.2014 85.4608 54.2014C85.9173 54.2014 86.3738 54.1088 86.6477 53.8308V52.0705H85.0955V50.866H87.926V54.4794C87.3781 55.0353 86.4651 55.4986 85.3694 55.4986C83.0868 55.4986 81.4434 53.9235 81.4434 51.2366Z" fill="white"/>
<path d="M89.8438 52.2565C89.8438 50.2181 91.2133 49.0137 92.6742 49.0137C94.3177 49.0137 95.1394 50.2181 95.1394 51.9785C95.1394 52.2565 95.1394 52.5344 95.0481 52.7197H91.3046C91.4872 53.8316 92.2177 54.3875 93.0394 54.3875C93.5872 54.3875 94.0438 54.2022 94.409 53.9242L94.8655 54.8507C94.3177 55.2213 93.5872 55.4993 92.7655 55.4993C91.122 55.4993 89.8438 54.2948 89.8438 52.2565ZM91.3046 51.6079H93.8611C93.8611 50.6814 93.4959 50.2181 92.6742 50.2181C92.1264 50.1255 91.4872 50.4961 91.3046 51.6079Z" fill="white"/>
<path d="M97.2393 53.7386V46.5117H98.6088V53.8312C98.6088 54.2018 98.7914 54.2945 98.974 54.2945C99.0653 54.2945 99.0653 54.2945 99.1566 54.2945L99.3393 55.4063C99.1567 55.4989 98.8827 55.4989 98.6088 55.4989C97.6045 55.4989 97.2393 54.7577 97.2393 53.7386Z" fill="white"/>
<path d="M100.892 52.2565C100.892 50.2181 102.261 49.0137 103.722 49.0137C105.366 49.0137 106.187 50.2181 106.187 51.9785C106.187 52.2565 106.187 52.5344 106.096 52.7197H102.261C102.444 53.8316 103.174 54.3875 103.996 54.3875C104.544 54.3875 105 54.2022 105.366 53.9242L105.822 54.8507C105.274 55.2213 104.544 55.4993 103.722 55.4993C102.261 55.4993 100.892 54.2948 100.892 52.2565ZM102.352 51.6079H104.909C104.909 50.6814 104.544 50.2181 103.722 50.2181C103.174 50.1255 102.535 50.4961 102.352 51.6079Z" fill="white"/>
<path d="M107.922 52.2565C107.922 50.2181 109.291 49.0137 110.935 49.0137C111.665 49.0137 112.304 49.2916 112.67 49.6622L112.031 50.5887C111.757 50.3108 111.391 50.2181 111.026 50.2181C110.022 50.2181 109.383 51.052 109.383 52.2565C109.383 53.461 110.022 54.2948 111.026 54.2948C111.483 54.2948 111.939 54.1095 112.304 53.8316L112.852 54.7581C112.304 55.2213 111.665 55.4993 110.935 55.4993C109.2 55.4993 107.922 54.2948 107.922 52.2565Z" fill="white"/>
<path d="M114.039 52.2565C114.039 50.2181 115.409 49.0137 116.869 49.0137C118.513 49.0137 119.335 50.2181 119.335 51.9785C119.335 52.2565 119.335 52.5344 119.243 52.7197H115.409C115.591 53.8316 116.322 54.3875 117.143 54.3875C117.691 54.3875 118.148 54.2022 118.513 53.9242L118.969 54.8507C118.422 55.2213 117.691 55.4993 116.869 55.4993C115.409 55.4993 114.039 54.2948 114.039 52.2565ZM115.5 51.6079H118.056C118.056 50.6814 117.691 50.2181 116.869 50.2181C116.322 50.1255 115.683 50.4961 115.5 51.6079Z" fill="white"/>
<path d="M120.979 56.425C120.979 55.8691 121.252 55.4985 121.892 55.1278V55.0352C121.618 54.8499 121.344 54.4793 121.344 54.016C121.344 53.5528 121.709 53.0895 121.983 52.9042V52.8116C121.618 52.5336 121.161 51.885 121.161 51.1438C121.161 49.754 122.257 48.9202 123.535 48.9202C123.9 48.9202 124.174 49.0128 124.448 49.1055H126.639V50.1247H125.544V50.2173C125.726 50.4953 125.909 50.7732 125.909 51.2365C125.909 52.6262 124.905 53.2748 123.626 53.2748C123.352 53.2748 123.079 53.1822 122.805 53.0895C122.622 53.2748 122.531 53.3675 122.531 53.6454C122.531 54.016 122.805 54.2013 123.535 54.2013H124.631C126.092 54.2013 126.822 54.6646 126.822 55.6838C126.822 56.8882 125.544 57.8147 123.626 57.8147C121.983 58.0001 120.979 57.5368 120.979 56.425ZM121.709 46.2333L122.531 46.1406C122.622 46.6965 122.987 47.2524 123.718 47.2524C124.448 47.2524 124.813 46.6965 124.905 46.1406L125.726 46.2333C125.635 47.2524 125.087 48.179 123.718 48.179C122.348 48.179 121.8 47.2524 121.709 46.2333ZM125.27 56.147C125.27 55.6838 124.905 55.4985 124.174 55.4985H123.352C122.987 55.4985 122.713 55.4985 122.531 55.4058C122.165 55.6838 122.074 55.9617 122.074 56.2397C122.074 56.7956 122.713 57.1662 123.626 57.1662C124.631 57.0735 125.27 56.6103 125.27 56.147ZM124.539 51.2365C124.539 50.4953 124.083 50.032 123.535 50.032C122.896 50.032 122.439 50.4953 122.439 51.2365C122.439 51.9777 122.896 52.4409 123.535 52.4409C124.083 52.4409 124.539 51.9777 124.539 51.2365Z" fill="white"/>
<path d="M127.917 52.2565C127.917 50.2181 129.287 49.0137 130.748 49.0137C132.391 49.0137 133.213 50.2181 133.213 51.9785C133.213 52.2565 133.213 52.5344 133.122 52.7197H129.287C129.47 53.8316 130.2 54.3875 131.022 54.3875C131.57 54.3875 132.026 54.2022 132.391 53.9242L132.848 54.8507C132.3 55.2213 131.57 55.4993 130.748 55.4993C129.196 55.4993 127.917 54.2948 127.917 52.2565ZM129.378 51.6079H131.935C131.935 50.6814 131.57 50.2181 130.748 50.2181C130.109 50.1255 129.561 50.4961 129.378 51.6079Z" fill="white"/>
<path d="M138.6 47.1602H140.061V50.8662L142.983 47.1602H144.535L142.07 50.3103L144.991 55.3135H143.439L141.248 51.5148L140.061 52.9046V55.3135H138.6V47.1602Z" fill="white"/>
<path d="M146.27 53.6463C146.27 52.2565 147.365 51.6079 149.83 51.33C149.83 50.6814 149.556 50.2181 148.735 50.2181C148.096 50.2181 147.548 50.4961 147 50.7741L146.452 49.7549C147.091 49.2916 148.004 49.0137 148.917 49.0137C150.47 49.0137 151.2 49.9402 151.2 51.7006V55.314H150.013L149.922 54.6654H149.83C149.283 55.1287 148.643 55.4993 147.913 55.4993C147 55.4993 146.27 54.7581 146.27 53.6463ZM149.83 53.6463V52.3491C148.187 52.5344 147.639 52.905 147.639 53.5536C147.639 54.1095 148.004 54.2948 148.552 54.2948C149.009 54.2948 149.374 54.1095 149.83 53.6463Z" fill="white"/>
<path d="M153.757 53.2752V50.3103H152.844V49.1985L153.757 49.1058L153.939 47.1602H155.126V49.1058H156.679V50.2177H155.126V53.1825C155.126 53.9237 155.4 54.2943 155.948 54.2943C156.131 54.2943 156.405 54.2943 156.587 54.2017L156.861 55.2209C156.496 55.3135 156.131 55.4988 155.583 55.4988C154.213 55.4988 153.757 54.5723 153.757 53.2752Z" fill="white"/>
<path d="M160.057 49.1973H158.687V55.3123H160.057V49.1973Z" fill="white"/>
<path d="M162.705 53.7386V46.5117H164.074V53.8312C164.074 54.2018 164.257 54.2945 164.439 54.2945C164.531 54.2945 164.531 54.2945 164.622 54.2945L164.805 55.4063C164.622 55.4989 164.348 55.4989 164.074 55.4989C163.07 55.4989 162.705 54.7577 162.705 53.7386Z" fill="white"/>
<path d="M168.091 49.1973H166.722V55.3123H168.091V49.1973Z" fill="white"/>
<path d="M170.739 49.199H171.926L172.018 50.0328H172.109C172.657 49.4769 173.204 49.0137 173.935 49.0137C174.848 49.0137 175.304 49.3843 175.578 50.1255C176.126 49.4769 176.765 49.0137 177.496 49.0137C178.774 49.0137 179.413 49.9402 179.413 51.4226V55.314H177.952V51.6079C177.952 50.5888 177.678 50.2181 177.039 50.2181C176.674 50.2181 176.218 50.4961 175.761 50.9594V55.2213H174.391V51.5153C174.391 50.4961 174.118 50.1255 173.478 50.1255C173.113 50.1255 172.657 50.4034 172.2 50.8667V55.1287H170.739V49.199Z" fill="white"/>
<path d="M131.752 27.4247C131.752 26.5908 132.026 25.8496 132.665 25.2937C133.304 24.6451 133.943 24.3672 134.856 24.3672C135.678 24.3672 136.408 24.6451 136.956 25.2937C137.504 25.9423 137.778 26.5908 137.778 27.4247C137.778 28.1659 137.504 28.9071 136.865 29.5557C136.226 30.2042 135.587 30.4822 134.674 30.4822C133.761 30.4822 133.122 30.2042 132.574 29.5557C132.026 28.9071 131.752 28.2586 131.752 27.4247Z" fill="#E1B45F"/>
<path d="M148.369 30.3894C147.274 30.3894 146.178 30.2041 145.082 29.8335C144.078 29.4628 143.165 28.9069 142.343 28.1657C141.521 27.4245 140.882 26.498 140.334 25.2935C139.878 24.089 139.604 22.7919 139.604 21.3095C139.604 18.3446 140.608 15.843 142.526 13.8047C144.443 11.7664 146.908 10.8398 149.921 10.8398C152.021 10.8398 153.939 11.1178 155.947 11.6737L154.395 17.7887L153.939 17.8814C153.939 17.4181 153.756 16.6769 153.391 15.6577C152.934 14.6386 152.387 13.712 151.656 12.8782C150.926 11.9517 150.195 11.5811 149.465 11.5811C148.461 11.5811 147.547 12.3223 146.908 13.712C146.269 15.1018 145.904 16.9549 145.904 19.0859C145.904 20.4756 146.087 21.7728 146.361 22.8846C146.634 23.9964 147.091 24.8303 147.639 25.5715C148.187 26.22 148.826 26.6833 149.465 27.0539C150.104 27.4245 150.834 27.5172 151.656 27.5172C152.387 27.5172 153.208 27.4245 153.939 27.1466C154.669 26.8686 155.308 26.498 155.765 26.0347L156.039 26.498C153.847 29.0922 151.291 30.3894 148.369 30.3894Z" fill="#E1B45F"/>
<path d="M157.683 21.3086C157.683 18.1585 158.687 15.5642 160.604 13.7112C162.522 11.8582 165.17 10.9316 168.457 10.9316C171.47 10.9316 173.843 11.7655 175.396 13.3406C176.948 14.9157 177.861 17.1393 177.861 20.0115C177.861 23.069 176.948 25.5706 175.03 27.5163C173.113 29.462 170.465 30.3885 167.087 30.3885C163.983 30.3885 161.7 29.5546 160.057 27.9796C158.413 26.4045 157.683 24.1808 157.683 21.3086ZM163.8 19.8262C163.8 22.7911 164.165 25.2 164.804 26.9604C165.535 28.7208 166.539 29.6473 167.817 29.6473C168.457 29.6473 169.004 29.3693 169.552 28.9061C170.009 28.4428 170.465 27.7943 170.739 26.9604C171.013 26.1265 171.196 25.2927 171.378 24.3661C171.47 23.4396 171.561 22.5131 171.561 21.4939C171.561 19.5483 171.378 17.8805 171.104 16.3981C170.83 14.9157 170.374 13.8038 169.735 12.8773C169.096 12.0435 168.365 11.5802 167.452 11.5802C166.813 11.5802 166.174 11.8582 165.717 12.3214C165.261 12.7847 164.804 13.4332 164.53 14.2671C164.257 15.101 164.074 15.9348 163.891 16.8614C163.891 17.8805 163.8 18.807 163.8 19.8262Z" fill="#E1B45F"/>
<path d="M189.913 13.712C188.908 13.712 187.813 14.268 186.626 15.3798V30.0188H181.056V18.9932C181.056 16.7696 180.965 14.4533 180.782 12.2296L186.352 10.8398L186.717 14.5459C187.721 13.4341 188.817 12.6002 189.821 11.859C190.826 11.2105 191.921 10.8398 193.108 10.8398C194.204 10.8398 195.208 11.2105 196.121 11.859C197.034 12.5076 197.674 13.5267 198.039 14.7312C199.134 13.5267 200.23 12.6002 201.326 11.859C202.421 11.1178 203.517 10.8398 204.795 10.8398C206.347 10.8398 207.626 11.3958 208.63 12.6002C209.634 13.8047 210.182 15.2871 210.182 17.3255V29.9261H204.613V17.4181C204.613 16.2136 204.339 15.2871 203.791 14.6386C203.243 13.99 202.604 13.712 201.691 13.712C200.595 13.712 199.408 14.268 198.221 15.4724C198.404 16.3063 198.495 16.9549 198.495 17.4181V30.0188H192.926V17.4181C192.926 16.2136 192.652 15.2871 192.104 14.6386C191.374 13.99 190.734 13.712 189.913 13.712Z" fill="#E1B45F"/>
<path d="M17.9867 18.9003C17.9867 17.8811 17.9867 16.7693 17.8954 15.6575C17.8041 13.5265 19.1737 11.6735 21.2737 11.2102L23.5563 10.6543V24.1815C23.5563 27.3316 21.0911 29.8332 17.9867 29.8332V18.9003Z" fill="white"/>
<path d="M48.6654 16.6764C49.1219 15.3793 49.8524 14.2675 50.8567 13.341C51.8611 12.4144 52.9567 11.7659 54.235 11.21C55.6045 10.7467 57.0654 10.4688 58.6176 10.4688C60.0785 10.4688 61.448 10.6541 62.635 11.1173C63.8219 11.5806 64.8263 12.1365 65.648 12.9703C66.4698 13.8042 67.0176 14.7307 67.4741 15.8426C67.8393 16.9544 68.1132 18.2515 68.1132 19.5486C68.1132 21.0311 67.8393 22.4208 67.3828 23.718C66.9263 25.0151 66.1958 26.1269 65.2828 27.0534C64.3698 27.9799 63.2741 28.7211 61.9045 29.2771C60.535 29.833 58.9828 30.0183 57.3393 30.0183C55.7872 30.0183 54.4176 29.833 53.2306 29.3697C52.0437 28.9065 51.0393 28.3505 50.3089 27.5167C49.4872 26.6828 48.9393 25.7563 48.5741 24.6445C48.2089 23.5326 48.0263 22.3282 48.0263 20.9384C47.935 19.456 48.2089 17.9735 48.6654 16.6764ZM54.5089 24.5518C54.7828 26.1269 55.2393 27.3314 55.8785 28.1652C56.5176 28.9991 57.248 29.3697 58.0698 29.3697C58.8915 29.3697 59.5306 28.9991 60.0785 28.2579C60.6263 27.5167 61.0828 26.4975 61.3567 25.293C61.6306 23.9959 61.8132 22.6988 61.8132 21.2164C61.8132 18.9927 61.6306 17.2323 61.2654 15.7499C60.9002 14.2675 60.4437 13.1557 59.8958 12.4144C59.348 11.6732 58.6176 11.3026 57.7958 11.3026C56.9741 11.3026 56.335 11.6732 55.7872 12.4144C55.2393 13.1557 54.7828 14.1748 54.5089 15.4719C54.235 16.7691 54.0524 18.1588 54.0524 19.5486C54.0524 21.309 54.235 22.9767 54.5089 24.5518Z" fill="white"/>
<path d="M77.6085 10.748V16.9557C78.5216 14.6394 79.3433 12.9717 80.1651 12.1378C80.9868 11.2113 81.8998 10.8407 82.9042 10.8407C83.7259 10.8407 84.3651 10.9334 84.8216 11.2113V15.9365C83.1781 14.4541 78.7955 15.288 77.6085 18.0675V24.2752C77.6085 27.4254 75.1433 29.927 72.039 29.927V18.8087C72.039 17.6969 72.039 16.5851 71.9477 15.6586C71.8564 13.5276 73.2259 11.6746 75.2346 11.2113L77.6085 10.748Z" fill="white"/>
<path d="M108.835 30.1126H101.713L95.5957 20.1989C97.3305 18.7165 98.5174 17.512 99.0653 16.5855C100.526 14.6398 101.348 12.5088 101.53 10.2852H107.739C104.726 15.0104 102.078 17.6973 100.617 18.2532C101.165 18.8091 105.73 25.5727 108.835 30.1126Z" fill="white"/>
<path d="M88.9307 30.1118C92.2176 30.1118 94.8654 27.4249 94.8654 24.0895V0L92.4002 0.555911C90.3002 1.01917 88.8394 3.05751 88.8394 5.1885C88.9307 6.67093 88.9307 8.15335 88.9307 9.54313V30.1118Z" fill="white"/>
<path d="M128.83 27.1472C128.739 27.2398 128.556 27.2398 128.374 27.3325C128.191 27.4251 128.008 27.4251 127.917 27.4251C127.095 27.4251 126.73 26.7766 126.73 25.5721V16.3996C126.73 15.1024 126.456 13.9906 125.817 13.0641C125.178 12.1376 124.356 11.489 123.261 11.1184C122.165 10.7478 120.978 10.5625 119.7 10.5625C118.33 10.5625 116.869 10.7478 115.408 11.1184C113.856 11.489 112.487 11.9523 111.208 12.5082V17.6967H111.756C112.122 16.4922 114.587 11.2111 118.695 11.2111C119.335 11.2111 119.974 11.5817 120.43 12.3229C120.887 13.0641 121.161 13.9906 121.161 15.1024V18.8085C118.33 19.2718 116.139 19.9203 114.587 20.5689C113.035 21.2175 112.03 21.9587 111.391 22.7925C110.752 23.6264 110.478 24.4603 110.478 25.4794C110.478 26.406 110.752 27.2398 111.3 27.981C111.848 28.7222 112.487 29.2782 113.217 29.5561C113.948 29.8341 114.587 30.0194 115.226 30.0194C116.139 30.0194 117.052 29.7414 118.056 29.2782C119.061 28.8149 120.065 27.8884 121.252 26.6839C121.343 27.7031 121.708 28.5369 122.348 29.1855C122.895 29.8341 123.717 30.112 124.722 30.112C125.635 30.112 126.456 29.8341 127.278 29.3708C128.1 28.9075 128.648 28.259 129.195 27.6104L128.83 27.1472ZM121.252 25.9427C120.887 26.406 120.43 26.6839 119.882 26.9619C119.335 27.2398 118.878 27.3325 118.513 27.3325C117.874 27.3325 117.326 27.0545 116.869 26.406C116.413 25.7574 116.23 25.0162 116.23 23.9044C116.23 22.6072 116.687 21.5881 117.508 20.9395C118.33 20.2909 119.608 19.735 121.343 19.5497L121.252 25.9427Z" fill="white"/>
<path d="M44.465 18.0662C44.465 15.9352 44.5563 13.4336 44.7389 10.4688L41.6346 11.3953C39.8998 10.8394 38.3476 10.5614 36.7954 10.5614C35.4259 10.5614 34.1476 10.8394 32.8693 11.3953C31.6824 11.9512 30.5867 12.6924 29.6737 13.6189C28.7607 14.6381 28.1215 15.7499 27.5737 17.047C27.1172 18.4368 26.8433 19.8266 26.8433 21.4017C26.8433 22.6988 27.0259 23.9033 27.3911 25.0151C27.7563 26.1269 28.2128 27.0534 28.852 27.7946C29.4911 28.5358 30.1302 29.0918 30.952 29.4624C31.7737 29.833 32.5041 30.0183 33.3259 30.0183C35.2433 30.0183 37.1607 28.9991 39.2607 26.8681L39.078 32.6125C39.8085 32.4272 43.0954 30.9448 44.3737 28.9065C44.3737 28.1652 44.3737 25.293 44.3737 24.5518L44.465 18.0662ZM39.2607 26.1269C38.8954 26.4975 38.5302 26.7755 37.9824 26.9608C37.4346 27.1461 36.978 27.3314 36.4302 27.3314C35.152 27.3314 34.1476 26.6828 33.4172 25.3857C32.6867 24.0886 32.4128 22.2355 32.4128 19.9192C32.4128 18.4368 32.5954 16.9544 32.9607 15.6572C33.3259 14.2675 33.7824 13.2483 34.4215 12.4144C35.0607 11.5806 35.6998 11.21 36.5215 11.21C37.0693 11.21 37.6172 11.3953 38.0737 11.7659C38.6215 12.1365 38.9867 12.5997 39.352 13.1557L39.2607 26.1269Z" fill="white"/>
<path d="M29.7654 41.1377C29.7654 41.1377 32.5046 40.3039 34.8785 39.3773C38.1654 38.0802 38.1654 35.8566 38.8046 32.9844C35.335 34.5595 34.0567 34.9301 33.1437 35.3007C29.3089 36.5978 29.7654 41.1377 29.7654 41.1377Z" fill="white"/>
<path d="M17.9868 10.3764C17.9868 10.3764 20.9085 9.44986 23.3737 8.52334C26.8433 7.13357 26.8433 4.72462 27.5737 1.75977C23.9216 3.4275 22.552 3.89076 21.6389 4.16871C17.5302 5.55849 17.9868 10.3764 17.9868 10.3764Z" fill="#E1B45F"/>
<path d="M6.3913 30.2971C5.11304 30.2971 4.01739 30.1118 3.01304 29.8338C2.00869 29.5559 1.09565 29.1853 0.273909 28.722V24.0894H0.639126L1.91739 26.4057C2.46521 27.4249 3.10434 28.2587 3.74347 28.722C4.3826 29.1853 5.29565 29.4632 6.3913 29.4632C7.66956 29.4632 8.5826 29.1853 9.40434 28.6293C10.2261 28.0734 10.5 27.3322 10.5 26.4057C10.5 25.5718 10.2261 24.8306 9.67826 24.2747C9.13043 23.7188 8.12608 23.2555 6.66521 22.7923L5.02173 22.329C3.46956 21.8658 2.1913 21.1246 1.27826 20.1054C0.365213 19.0862 -0.0913086 17.8817 -0.0913086 16.492C-0.0913086 14.7316 0.547822 13.3418 1.91739 12.1373C3.28695 10.9329 5.20434 10.377 7.66956 10.377C8.67391 10.377 9.58695 10.4696 10.5 10.7476C11.413 10.9329 12.2348 11.3035 13.0565 11.7667L12.7826 16.0287H12.4174L11.0478 13.6198C10.5913 12.7859 10.0435 12.1373 9.58695 11.7667C9.31304 11.3035 8.5826 11.1182 7.66956 11.1182C6.75652 11.1182 5.93478 11.3961 5.20434 11.8594C4.47391 12.3226 4.01739 13.0639 4.01739 13.9904C4.01739 14.9169 4.3826 15.5655 5.02173 16.1214C5.66086 16.6773 6.66521 17.1405 7.94347 17.6038L9.67826 18.067C11.5043 18.623 12.8739 19.4568 13.6043 20.476C14.4261 21.4952 14.7913 22.6996 14.7913 24.0894C14.7913 26.0351 14.0609 27.5175 12.6 28.6293C11.1391 29.7412 9.03913 30.2971 6.3913 30.2971Z" fill="white"/>
</g>
<defs>
<clipPath id="clip0_945_628">
<rect width="210" height="58" fill="white"/>
</clipPath>
</defs>
</svg>
