<?xml version="1.0" encoding="UTF-8" standalone="no"?>
<!-- Created with Inkscape (http://www.inkscape.org/) -->

<svg
   width="196.18964mm"
   height="242.44652mm"
   viewBox="0 0 196.18964 242.44652"
   version="1.1"
   id="svg1"
   xml:space="preserve"
   inkscape:version="1.3.2 (091e20e, 2023-11-25, custom)"
   sodipodi:docname="ssl_icon.svg"
   xmlns:inkscape="http://www.inkscape.org/namespaces/inkscape"
   xmlns:sodipodi="http://sodipodi.sourceforge.net/DTD/sodipodi-0.dtd"
   xmlns="http://www.w3.org/2000/svg"
   xmlns:svg="http://www.w3.org/2000/svg"><sodipodi:namedview
     id="namedview1"
     pagecolor="#ffffff"
     bordercolor="#000000"
     borderopacity="0.25"
     inkscape:showpageshadow="2"
     inkscape:pageopacity="0.0"
     inkscape:pagecheckerboard="0"
     inkscape:deskcolor="#d1d1d1"
     inkscape:document-units="mm"
     inkscape:zoom="1.004205"
     inkscape:cx="408.78106"
     inkscape:cy="609.43729"
     inkscape:window-width="1920"
     inkscape:window-height="1111"
     inkscape:window-x="-9"
     inkscape:window-y="-9"
     inkscape:window-maximized="1"
     inkscape:current-layer="layer1" /><defs
     id="defs1" /><g
     inkscape:label="Katman 1"
     inkscape:groupmode="layer"
     id="layer1"
     transform="translate(-6.9453761,-27.817128)"><path
       style="font-size:59.9722px;font-family:Sans;-inkscape-font-specification:Sans;fill:#d9ae5f;stroke-width:4.36297"
       d="m 83.224117,184.47235 q 0,2.54765 -1.200615,5.03673 -1.171332,2.48908 -3.309013,4.2168 -2.342664,1.87413 -5.475977,2.92833 -3.10403,1.05419 -7.496525,1.05419 -4.714612,0 -8.492157,-0.87849 -3.748263,-0.8785 -7.642942,-2.60622 v -7.26226 h 0.409967 q 3.309012,2.75263 7.642941,4.24608 4.333928,1.49345 8.140757,1.49345 5.388128,0 8.375024,-2.02055 3.01618,-2.02055 3.01618,-5.38812 0,-2.89905 -1.434882,-4.27537 -1.405598,-1.37631 -4.304645,-2.13768 -2.196247,-0.58566 -4.773178,-0.96635 -2.547647,-0.38068 -5.41741,-0.96635 -5.798094,-1.22989 -8.60929,-4.18751 -2.781914,-2.98689 -2.781914,-7.76007 0,-5.47598 4.626761,-8.96069 4.626762,-3.514 11.742604,-3.514 4.597478,0 8.43359,0.8785 3.836113,0.8785 6.793726,2.16697 v 6.85229 h -0.409966 q -2.489081,-2.1084 -6.55946,-3.48472 -4.041095,-1.40559 -8.287173,-1.40559 -4.656045,0 -7.496525,1.93269 -2.811197,1.9327 -2.811197,4.97817 0,2.72334 1.405598,4.27536 1.405599,1.55201 4.948878,2.37194 1.874131,0.40997 5.329561,0.99564 3.455429,0.58566 5.85666,1.20061 4.861027,1.28847 7.320825,3.89468 2.459797,2.60621 2.459797,7.29154 z m 40.352383,0 q 0,2.54765 -1.20061,5.03673 -1.17133,2.48908 -3.30901,4.2168 -2.34267,1.87413 -5.47598,2.92833 -3.10403,1.05419 -7.49653,1.05419 -4.71461,0 -8.492154,-0.87849 -3.748262,-0.8785 -7.642941,-2.60622 v -7.26226 h 0.409966 q 3.309013,2.75263 7.642941,4.24608 4.333928,1.49345 8.140758,1.49345 5.38813,0 8.37502,-2.02055 3.01618,-2.02055 3.01618,-5.38812 0,-2.89905 -1.43488,-4.27537 -1.4056,-1.37631 -4.30464,-2.13768 -2.19625,-0.58566 -4.77318,-0.96635 -2.54765,-0.38068 -5.41741,-0.96635 -5.798095,-1.22989 -8.609292,-4.18751 -2.781913,-2.98689 -2.781913,-7.76007 0,-5.47598 4.626761,-8.96069 4.626761,-3.514 11.742604,-3.514 4.59748,0 8.43359,0.8785 3.83611,0.8785 6.79373,2.16697 v 6.85229 h -0.40997 q -2.48908,-2.1084 -6.55946,-3.48472 -4.0411,-1.40559 -8.28717,-1.40559 -4.65605,0 -7.496529,1.93269 -2.811197,1.9327 -2.811197,4.97817 0,2.72334 1.405599,4.27536 1.405598,1.55201 4.948877,2.37194 1.87413,0.40997 5.32956,0.99564 3.45543,0.58566 5.85666,1.20061 4.86103,1.28847 7.32083,3.89468 2.45979,2.60621 2.45979,7.29154 z m 36.89696,12.44541 h -27.58487 v -43.60284 h 5.7981 v 38.44897 h 21.78677 z"
       id="text6"
       aria-label="SSL" /><path
       d="m 105.05767,27.819491 c -0.9673,0.04704 -2.05297,0.797 -4.78885,2.324922 C 74.737571,44.402959 43.630269,53.326434 9.8288574,56.087533 6.8243689,56.332957 6.8199205,56.386209 7.0171427,88.704146 7.3831396,148.67846 14.339233,177.29266 36.090304,208.29581 c 15.68141,22.35169 35.467318,40.47605 65.945846,60.40769 3.28828,2.15039 2.66117,2.20674 7.09517,-0.64183 33.18017,-21.31613 56.55376,-44.27565 72.02196,-70.74607 17.93634,-30.69406 22.8064,-60.44409 21.87257,-133.614579 -0.10611,-8.31401 0.39207,-7.365763 -4.07107,-7.754048 -33.78771,-2.939475 -64.69009,-11.965135 -89.81829,-26.233541 -2.26274,-1.284839 -3.11152,-1.940982 -4.07882,-1.893941 z m -0.40463,10.512019 c 0.72428,-0.122987 1.55545,0.434139 4.60541,2.081527 21.76605,11.756627 51.95168,20.659377 80.7315,23.810433 2.21637,0.242667 3.63229,0.516108 3.76618,0.727087 1.14683,1.807186 -0.068,50.841873 -1.65054,66.616093 -5.21019,51.9337 -30.55415,90.79608 -81.28858,124.64872 -6.52052,4.35082 -5.1977,4.1542 -9.33225,1.38648 C 67.645486,234.94934 45.437307,211.19679 31.777905,183.04774 20.145102,159.07507 16.347803,136.97669 15.988688,91.160327 15.797863,66.814689 15.904906,64.69439 17.331242,64.508207 c 0.603264,-0.07874 3.596889,-0.44898 6.652824,-0.822689 28.386576,-3.471385 59.546514,-13.12693 79.024114,-24.486877 0.814,-0.474745 1.2103,-0.793338 1.64486,-0.867131 z"
       style="fill:#d9ae5f;fill-opacity:1"
       id="path5" /><path
       d="m 105.18942,58.01248 c -16.678872,0 -27.361163,11.402574 -27.885118,29.765108 -0.166075,5.820234 -0.16621,5.820041 -1.674317,6.007902 -2.910187,0.362516 -5.162612,2.016671 -6.410978,4.70824 -0.880334,1.89806 -1.090329,36.53725 -0.236678,39.04258 0.569937,1.67267 2.694775,3.84299 4.326351,4.41885 1.819825,0.6423 61.17907,0.67491 63.05817,0.0346 1.83656,-0.62578 3.98184,-2.69735 4.65398,-4.49378 0.74394,-1.98837 0.85702,-36.39973 0.12661,-38.543384 -0.8956,-2.628445 -3.69504,-4.796041 -6.67402,-5.167126 -1.50809,-0.187861 -1.50823,-0.187668 -1.67431,-6.007902 -0.52143,-18.2741 -11.18023,-29.765088 -27.60969,-29.765088 z m 0.6656,8.400004 c 5.08209,0.156676 10.16339,2.31 13.96297,6.756693 3.39268,3.970509 4.23045,12.772984 4.2569,20.369516 -18.93726,0.106814 0.15863,0.06005 -18.96505,0.127941 -17.109041,0.06073 -19.140038,0.0245 -19.281511,-0.344165 -0.32802,-0.854808 0.106988,-10.797436 0.543636,-12.423531 2.540767,-9.461894 11.012886,-14.747581 19.483055,-14.486454 z m -1.30742,38.250376 c 0.79544,-0.0467 1.64036,0.0468 2.51819,0.30748 4.94733,1.4692 6.43417,7.36618 2.83704,11.25151 -1.38819,1.49942 -1.38801,1.49946 -0.29042,7.78247 0.8089,4.63037 1.0245,6.39897 0.81959,6.72413 -0.31511,0.50002 -9.91853,0.80068 -10.6469,0.33332 -0.514801,-0.33032 -0.453704,-0.94565 0.74983,-7.55303 1.05813,-5.80911 1.05795,-5.80928 -0.0641,-6.88433 -4.654095,-4.45941 -1.491323,-11.63461 4.07675,-11.96155 z"
       style="fill:#d9ae5f;fill-opacity:1"
       id="path4"
       sodipodi:nodetypes="sssssssssssssscssssscssssscss" /></g></svg>
