<?xml version="1.0" encoding="UTF-8" standalone="no"?>
<!-- Created with Inkscape (http://www.inkscape.org/) -->

<svg
   width="209.89914mm"
   height="59.575611mm"
   viewBox="0 0 209.89914 59.575611"
   version="1.1"
   id="svg1"
   xml:space="preserve"
   inkscape:version="1.3.2 (091e20e, 2023-11-25, custom)"
   sodipodi:docname="icon_3d_secure.svg"
   xmlns:inkscape="http://www.inkscape.org/namespaces/inkscape"
   xmlns:sodipodi="http://sodipodi.sourceforge.net/DTD/sodipodi-0.dtd"
   xmlns="http://www.w3.org/2000/svg"
   xmlns:svg="http://www.w3.org/2000/svg"><sodipodi:namedview
     id="namedview1"
     pagecolor="#ffffff"
     bordercolor="#000000"
     borderopacity="0.25"
     inkscape:showpageshadow="2"
     inkscape:pageopacity="0.0"
     inkscape:pagecheckerboard="0"
     inkscape:deskcolor="#d1d1d1"
     inkscape:document-units="mm"
     inkscape:zoom="0.41683588"
     inkscape:cx="-211.11426"
     inkscape:cy="778.48384"
     inkscape:window-width="1920"
     inkscape:window-height="1111"
     inkscape:window-x="-9"
     inkscape:window-y="-9"
     inkscape:window-maximized="1"
     inkscape:current-layer="svg1" /><defs
     id="defs1" /><g
     id="g6"
     transform="matrix(1.0208376,0,0,1.0208376,-1.9921066,-119.44703)"
     inkscape:export-filename="g6.png"
     inkscape:export-xdpi="96"
     inkscape:export-ydpi="96"><g
       id="g2"
       transform="matrix(0.99347219,0,0,0.99347219,0.44417444,-1.3421224)"><g
         inkscape:label="Katman 1"
         id="layer1-1"
         style="display:inline" /><g
         id="layer2"
         inkscape:label="Katman 2"
         style="display:inline"><g
           inkscape:groupmode="layer"
           id="layer3"
           inkscape:label="Katman 3"
           style="display:inline" /><g
           id="g1"
           transform="matrix(1.0532788,0,0,1.0532788,4.7491396,-0.12742373)"><g
             id="g15"
             transform="matrix(0.4357918,0,0,0.4357918,-4.0124349,80.537448)"><path
               id="path4"
               style="display:inline;fill:#c7c3ef;fill-opacity:1"
               d="m 87.154448,84.432379 c 0.46853,0.174768 0.83891,0.336391 1.11466,0.480074 -0.20633,-0.201825 -0.43479,-0.363286 -0.59893,-0.363286 -0.0889,0 -0.35258,-0.0823 -0.51573,-0.116788 z m -35.663453,0.450101 -0.290938,0.08217 -5.17e-4,0.06459 c 0.07519,-0.04424 0.169756,-0.09196 0.291455,-0.14676 z m 37.412183,14.467851 v 5.17e-4 l 7.46156,0.02584 z m 9.06508,0.03204 v 0.115756 h -9.19737 l -0.0656,0.793753 c -0.47337,5.73527 -2.34567,10.01806 -6.2668,14.33607 -2.68916,2.96133 -7.4261,6.5846 -11.17606,8.54831 l -1.63349,0.85525 -1.995746,-1.10174 c -4.395663,-2.42647 -8.846396,-6.09462 -11.686108,-9.63197 -2.968072,-3.69729 -4.438945,-7.23833 -5.073592,-12.21217 l -0.187069,-1.466064 -20.987866,0.0708 -21.3609698,0.07235 -1.351339,0.713134 c -1.680852,0.88679 -3.603955,2.99063 -4.246769,4.64623 -0.464218,1.1956 -0.490636,3.07779 -0.558106,39.6198 -0.04853,26.28391 0.0175,38.79105 0.209807,39.71851 0.59573,2.87304 3.118162,5.72408 5.814115,6.57169 1.013977,0.31845 10.2389358,0.36716 62.1770828,0.32556 l 60.986462,-0.0491 1.33325,-0.70383 c 1.62238,-0.85639 3.40934,-2.74129 4.18011,-4.40904 l 0.57206,-1.23713 0.0692,-39.07307 c 0.0687,-38.57205 0.0628,-39.09106 -0.46199,-40.49365 -0.99162,-2.65037 -2.77331,-4.46871 -5.34747,-5.456515 -1.0179,-0.390607 -3.35319,-0.4451 -21.97489,-0.51108 z m -30.670476,6.315889 c 0.0035,9.2e-4 0.0222,0.0176 0.02481,0.0176 2.43e-4,0 0.0034,-0.003 0.0036,-0.003 -0.0055,-1.3e-4 -0.02236,-0.0137 -0.02842,-0.0145 z m -48.015674,7.17734 c 0.285226,-0.0188 0.557218,0.11206 0.668693,0.40256 0.286751,0.74726 0.171582,3.69796 -0.157096,4.02663 -0.418427,0.4184 -0.619782,0.40082 -1.118795,-0.0982 -0.482735,-0.48273 -0.57641,-3.02245 -0.141593,-3.8349 0.165213,-0.30873 0.463566,-0.47733 0.748791,-0.4961 z m 8.546249,0.002 c 0.288442,0.0294 0.592166,0.21701 0.769462,0.54829 0.409984,0.76606 0.189811,3.63684 -0.302824,3.94859 -0.497957,0.31512 -0.609938,0.30733 -0.98702,-0.0698 -0.328677,-0.32867 -0.443847,-3.27937 -0.157096,-4.02663 0.115649,-0.30138 0.389035,-0.42993 0.677478,-0.40049 z m -13.008509,0.1142 c 0.64325,0 0.66359,0.0579 0.73949,2.09393 0.05578,1.49629 -0.01971,2.15563 -0.264583,2.31097 -0.930885,0.59053 -1.307153,-0.17138 -1.214913,-2.46186 0.0755,-1.875 0.101612,-1.94304 0.740006,-1.94304 z m 8.73125,0 c 0.638395,0 0.66399,0.0681 0.73949,1.94304 0.0485,1.2045 -0.03937,2.08421 -0.230994,2.3151 -0.169985,0.20482 -0.398611,0.37207 -0.508496,0.37207 -0.570429,0 -0.812816,-0.87916 -0.740006,-2.68717 0.0755,-1.875 0.101612,-1.94304 0.740006,-1.94304 z m -3.191019,15.74271 h 3.476273 l -0.07648,2.31511 -0.07648,2.3151 -1.059367,0.078 c -0.936093,0.0691 -1.180441,-0.0461 -2.104264,-0.99219 l -1.044898,-1.07021 h -2.59209 c -1.425673,0 -2.592089,-0.0652 -2.592089,-0.14522 0,-0.08 0.173118,-0.48066 0.384989,-0.89038 0.668635,-1.293 1.788032,-1.61024 5.684408,-1.61024 z m 3.984769,0 h 3.31556 c 3.597304,0 4.766092,0.28706 5.513359,1.35392 0.816279,1.16541 0.617464,1.29192 -2.028817,1.29192 h -2.460315 l -1.101225,1.05833 c -0.913953,0.87821 -1.283719,1.05833 -2.17041,1.05833 h -1.068152 v -2.38125 z m 99.086462,0 c 0.39819,0 1.01325,1.14359 1.57923,2.93522 1.09351,3.46157 0.84094,8.13041 -0.59945,11.0877 h 5.2e-4 c -0.45832,0.941 -1.48469,1.39776 -1.6986,0.75602 -0.0609,-0.18261 0.22309,-1.29076 0.63097,-2.46238 1.06012,-3.0453 1.05286,-6.26262 -0.0212,-9.34826 -0.67055,-1.92644 -0.71604,-2.23831 -0.37466,-2.57969 0.21357,-0.21358 0.43118,-0.38861 0.48318,-0.38861 z m -3.56516,1.32292 c 0.67015,0 1.23298,0.87206 1.85312,2.87217 0.86209,2.78044 0.52672,6.69097 -0.76326,8.89972 -0.90064,1.54211 -2.05511,0.90289 -1.38028,-0.76429 1.31593,-3.25108 1.39162,-5.96072 0.24443,-8.77673 -0.71435,-1.75351 -0.70483,-2.23087 0.046,-2.23087 z m -3.20962,1.05833 c 0.78849,0 1.96799,2.6147 2.09754,4.64933 0.11908,1.87001 -0.44454,4.15592 -1.29036,5.23121 -0.30421,0.38674 -0.72718,0.7028 -0.93947,0.7028 -0.71143,0 -0.70295,-0.7999 0.0248,-2.42156 0.8904,-1.98406 0.8554,-4.14943 -0.0987,-6.11642 -0.66742,-1.37599 -0.59998,-2.04536 0.20619,-2.04536 z m -102.365848,0.79382 h 2.461348 c 2.43717,0 2.470045,0.009 3.307292,0.87282 0.707562,0.73002 0.845943,1.07565 0.845943,2.11666 v 1.24386 h -3.307292 -3.307291 v -2.11667 z m 14.706595,0 h 2.436027 2.436544 v 2.11667 2.11667 h -3.439583 -3.439583 v -1.13689 c 0,-0.9674 0.149304,-1.28301 1.003039,-2.11666 z m 84.189693,0.39739 c 0.70326,0.16996 1.81615,1.5973 2.13269,2.85461 0.39395,1.56479 -0.0926,3.4549 -1.2237,4.75165 -0.49772,0.57059 -1.34318,0.60265 -1.55184,0.0589 -0.0853,-0.22221 0.14937,-0.84727 0.52141,-1.38906 1.03762,-1.51109 1.05262,-2.91739 0.047,-4.39922 -0.78024,-1.14974 -0.83046,-1.6227 -0.19844,-1.86862 0.0802,-0.0312 0.17239,-0.0326 0.27285,-0.008 z m -91.752538,1.71928 h 2.513541 2.513542 v 2.38125 2.38125 h -2.513542 -2.513541 v -2.38125 z m -7.14375,2.64583 h 3.307291 3.307292 v 1.2423 c 0,0.98768 -0.145824,1.39439 -0.711068,1.98438 -0.684378,0.71438 -0.808032,0.74207 -3.307291,0.74207 h -2.596224 v -1.98437 z m 12.7,0 h 3.439583 3.439583 v 1.98438 1.98437 h -2.594157 c -2.586813,0 -2.596251,-0.002 -3.439583,-0.8723 -0.678581,-0.70012 -0.845426,-1.09216 -0.845426,-1.98437 z m -2.645834,2.64584 h 1.138432 c 0.954044,0 1.284579,0.15018 2.036568,0.92604 l 0.89762,0.92604 h 2.59364 c 2.382954,0 2.594157,0.0416 2.594157,0.50901 0,0.72582 -1.40598,2.03437 -2.39882,2.23294 -0.463498,0.0926 -2.196663,0.16847 -3.851961,0.16847 h -3.009636 v -2.38125 z m -2.306836,0.046 c 0.166261,-0.014 0.354994,-0.009 0.584461,0.008 l 1.060917,0.078 v 2.24896 2.24895 l -3.307292,0.0599 c -3.650752,0.066 -4.547085,-0.15976 -5.512842,-1.38751 -1.040394,-1.32265 -0.850343,-1.45056 2.153357,-1.45056 h 2.726449 l 0.908988,-0.93793 c 0.59005,-0.60877 0.887179,-0.82608 1.385962,-0.86816 z m 36.429818,16.74936 c 0.25375,-0.003 0.502871,0.0731 0.868164,0.22583 1.31043,0.54776 1.589634,1.06719 1.727026,3.20807 0.160098,2.49466 -0.08052,3.74644 -0.872814,4.53874 -0.874429,0.87446 -2.442303,0.86701 -3.395659,-0.0165 -0.672343,-0.6231 -0.699699,-0.76033 -0.699699,-3.45716 0,-1.54448 0.128537,-3.04864 0.285771,-3.34243 0.157235,-0.2938 0.693016,-0.70417 1.190625,-0.91209 0.384345,-0.1606 0.642836,-0.24175 0.896586,-0.24443 z m -42.195874,0.0496 c 0.809446,-0.0857 1.536488,0.23739 2.145089,0.96067 0.652021,0.77489 0.677778,0.92819 0.592728,3.56412 -0.08519,2.64013 -0.119866,2.7804 -0.831473,3.39204 -1.000986,0.86037 -2.281453,0.84276 -3.338298,-0.0465 -0.813624,-0.68462 -0.813904,-0.6866 -0.813904,-3.45715 0,-3.0963 0.197653,-3.6843 1.41025,-4.19096 0.286718,-0.1198 0.565792,-0.19364 0.835608,-0.22221 z m 13.275159,0.006 c 0.259066,0.0316 0.525107,0.10312 0.7953,0.21601 1.211856,0.50635 1.410767,1.09494 1.410767,4.17856 0,2.62868 -0.03315,2.79214 -0.697632,3.45663 -0.498232,0.49823 -0.972763,0.69764 -1.660881,0.69764 -2.069457,0 -2.765484,-1.25142 -2.629297,-4.7284 0.0802,-2.04763 0.177299,-2.46308 0.709001,-3.02875 0.580652,-0.61776 1.295544,-0.88643 2.072742,-0.79169 z m 22.754166,0 c 0.259084,0.0316 0.525064,0.1031 0.795301,0.21601 1.212596,0.50666 1.410766,1.09466 1.410766,4.19096 0,2.77055 -7.96e-4,2.77253 -0.81442,3.45715 -1.05713,0.88948 -2.337447,0.9074 -3.338298,0.0465 -0.729777,-0.62773 -0.742073,-0.68804 -0.742073,-3.55069 0,-2.68497 0.04782,-2.96346 0.615983,-3.56825 0.580562,-0.61798 1.295491,-0.88641 2.072741,-0.79169 z m 12.620419,5.2e-4 c 0.653691,0.0335 1.310559,0.34237 1.845882,0.91984 0.740127,0.79842 0.749548,0.84927 0.661458,3.58118 -0.08573,2.65868 -0.119811,2.79696 -0.83199,3.40909 -1.061835,0.91266 -2.384084,0.86016 -3.379122,-0.13487 -0.757728,-0.75773 -0.77308,-0.83071 -0.77308,-3.58428 0,-2.63122 0.04105,-2.85174 0.649056,-3.45974 0.523173,-0.52317 1.174104,-0.76476 1.827796,-0.73122 z m -28.625643,5.2e-4 c 0.388651,0.0743 0.984002,0.43008 1.322916,0.79065 0.531703,0.56567 0.629318,0.98112 0.709518,3.02875 0.100564,2.56749 -0.188833,3.69389 -1.114661,4.34237 -1.007229,0.70549 -2.728225,0.3872 -3.534151,-0.65319 -0.409308,-0.52839 -0.451955,-5.66388 -0.05323,-6.40891 0.371665,-0.69446 1.772065,-1.27125 2.669605,-1.09967 z m 67.646003,0.006 c 0.64468,-0.006 1.28427,0.23524 1.77405,0.72502 0.61053,0.61049 0.64957,0.82301 0.64957,3.54811 v 2.89904 l -0.81442,0.68523 c -1.62011,1.36323 -3.69478,0.58644 -4.09225,-1.5322 -0.0984,-0.52436 -0.13365,-1.84724 -0.0785,-2.93936 0.0854,-1.69083 0.19816,-2.0806 0.75706,-2.62723 0.51031,-0.49912 1.15986,-0.75259 1.80454,-0.75861 z m 19.31303,0 c 0.64507,-0.007 1.28483,0.23425 1.7756,0.72502 0.60803,0.608 0.64958,0.82852 0.64958,3.45974 0,2.75357 -0.0159,2.82655 -0.7736,3.58428 -0.86087,0.86086 -1.84032,0.98503 -2.96054,0.3762 -1.05163,-0.57155 -1.35909,-1.63826 -1.25367,-4.34702 0.0831,-2.1339 0.16347,-2.45709 0.75447,-3.03496 0.51287,-0.50148 1.1631,-0.75639 1.80816,-0.76326 z m -77.532218,0.01 c 0.88755,0.0375 1.766443,0.47728 2.140437,1.29811 0.161595,0.35466 0.294039,1.77942 0.294039,3.16622 0,2.43407 -0.027,2.54829 -0.773596,3.29489 -0.572585,0.57258 -1.024214,0.77308 -1.739945,0.77308 -0.715731,0 -1.167877,-0.2005 -1.740463,-0.77308 -0.747686,-0.74769 -0.773079,-0.85837 -0.773079,-3.32073 0,-1.76011 0.123944,-2.78705 0.401526,-3.32383 0.407385,-0.7878 1.30353,-1.15218 2.191081,-1.11466 z m -23.096782,0.0114 c 2.216986,-0.0625 2.777092,0.82995 2.777092,4.42712 0,2.46236 -0.02591,2.57304 -0.773597,3.32073 -0.572584,0.57258 -1.024214,0.77308 -1.739945,0.77308 -0.715731,0 -1.167878,-0.2005 -1.740462,-0.77308 -0.752318,-0.75232 -0.77308,-0.84602 -0.77308,-3.43545 0,-2.53031 0.036,-2.70263 0.727604,-3.47628 0.490165,-0.54832 0.986806,-0.82102 1.522388,-0.83612 z m 93.79531,0.009 c 0.7703,-0.0866 1.60025,0.1774 2.18126,0.82734 0.68,0.76066 0.72761,0.97066 0.72761,3.20446 0,2.536 -0.36268,3.70185 -1.30845,4.20801 -0.9638,0.51581 -2.12652,0.3183 -2.94556,-0.50074 -0.7466,-0.7466 -0.77308,-0.86082 -0.77308,-3.29489 0,-1.3868 0.13193,-2.81156 0.29353,-3.16622 0.34347,-0.75384 1.0544,-1.19138 1.82469,-1.27796 z m -5.87406,0.008 c 0.85415,0.0963 1.72867,0.62808 2.09445,1.36013 0.41078,0.82198 0.43973,4.39223 0.045,5.52472 -0.16405,0.47057 -0.62429,1.01292 -1.04489,1.23042 -1.09654,0.56705 -1.95386,0.47877 -2.87476,-0.29611 l -0.81391,-0.68523 v -2.8577 c 0,-3.20024 0.2468,-3.79006 1.7663,-4.21835 0.26066,-0.0735 0.54314,-0.09 0.82786,-0.0579 z m -23.024432,0.0145 c 0.63264,-0.0158 1.28603,0.19502 1.79885,0.63614 0.62871,0.54079 0.72796,0.85063 0.84181,2.62464 0.16374,2.55151 -0.0722,3.79965 -0.8692,4.59662 -0.92047,0.92048 -2.31989,0.8613 -3.32227,-0.14107 -0.75599,-0.75595 -0.77308,-0.83607 -0.77308,-3.53364 0,-2.56279 0.046,-2.80963 0.64854,-3.45974 0.43069,-0.46471 1.0427,-0.70712 1.67535,-0.72295 z m -6.29264,0.0227 c 0.79642,0 1.25382,0.17172 1.73167,0.64957 0.61054,0.61049 0.64958,0.82301 0.64958,3.54811 v 2.89904 l -0.81442,0.68523 c -0.86483,0.7277 -1.88902,0.8634 -2.75746,0.36535 -1.03609,-0.59419 -1.17335,-1.05849 -1.18235,-3.992 -0.008,-2.68543 0.0302,-2.89515 0.64078,-3.50573 0.47785,-0.47785 0.93577,-0.64957 1.7322,-0.64957 z m 12.83229,0 c 0.95217,0 1.25798,0.1361 1.82831,0.8139 0.63698,0.75701 0.68523,0.99977 0.68523,3.46026 0,2.57161 -0.0219,2.66774 -0.7736,3.41943 -0.57258,0.57258 -1.02421,0.77308 -1.73994,0.77308 -0.71573,0 -1.16787,-0.2005 -1.74046,-0.77308 -0.75169,-0.75169 -0.77308,-0.84782 -0.77308,-3.41943 0,-2.46049 0.0477,-2.70325 0.68471,-3.46026 0.57033,-0.6778 0.87665,-0.8139 1.82883,-0.8139 z m -19.23397,0.008 c 1.91245,0.0165 2.43293,0.94913 2.43293,4.36045 0,2.46707 -0.0257,2.577 -0.7736,3.32487 -1.22408,1.22407 -3.08128,0.9503 -3.86746,-0.57 -0.33758,-0.652 -0.41427,-1.40512 -0.34417,-3.34449 0.0854,-2.36248 0.13176,-2.53843 0.83251,-3.1409 0.50152,-0.43118 1.05947,-0.63593 1.71979,-0.62993 z m -51.938948,1.57923 c -0.332664,0 -0.677515,0.1884 -0.765845,0.41858 -0.263226,0.68596 -0.181693,3.80957 0.113688,4.36149 0.312095,0.58316 0.796771,0.65791 1.260389,0.1943 0.330338,-0.33034 0.449789,-3.79304 0.157096,-4.55579 -0.08833,-0.23018 -0.432664,-0.41858 -0.765328,-0.41858 z m 22.754167,0 c -0.332663,0 -0.677515,0.1884 -0.765845,0.41858 -0.292693,0.76275 -0.173243,4.22545 0.157096,4.55579 0.174625,0.17462 0.448676,0.3173 0.608749,0.3173 0.66939,0 0.926041,-0.70503 0.926041,-2.54455 0,-2.31993 -0.143926,-2.74712 -0.926041,-2.74712 z m 71.172923,0 c -0.33266,0 -0.67755,0.1884 -0.76585,0.41858 -0.29269,0.76275 -0.17324,4.22545 0.1571,4.55579 0.17463,0.17462 0.44868,0.3173 0.60875,0.3173 0.66938,0 0.92604,-0.70503 0.92604,-2.54455 0,-2.31993 -0.14393,-2.74712 -0.92604,-2.74712 z m -51.857307,0.0295 c -0.08817,-0.012 -0.182371,-0.008 -0.283186,0.0109 -0.449363,0.0859 -0.521262,0.3663 -0.589112,2.30321 -0.04899,1.39842 0.03565,2.34173 0.230994,2.57711 0.874821,1.0541 1.566313,0.0216 1.566313,-2.33888 0,-1.61936 -0.307834,-2.46862 -0.925009,-2.5523 z m 9.950815,0.0134 c -0.34735,-0.0491 -0.73291,0.07 -0.85628,0.26458 -0.34881,0.55031 -0.28025,4.30138 0.0853,4.6669 0.17463,0.17462 0.45755,0.3173 0.6289,0.3173 0.70395,0 0.92679,-0.77267 0.85059,-2.95073 -0.0735,-2.1007 -0.10776,-2.21315 -0.70848,-2.29805 z m 12.64005,0 c -0.60122,0.085 -0.6352,0.19615 -0.709,2.31614 -0.0427,1.22477 -0.0166,2.38562 0.0579,2.57969 0.20268,0.52817 1.15297,0.42541 1.46555,-0.15865 0.32811,-0.61307 0.35911,-3.97127 0.0413,-4.4726 -0.12337,-0.19458 -0.50842,-0.31368 -0.85577,-0.26458 z m -71.14294,0.0894 c -0.646558,0 -0.663453,0.0499 -0.738973,2.20865 -0.05022,1.43535 0.03393,2.34241 0.240296,2.59106 0.174632,0.21046 0.507309,0.34587 0.738973,0.30127 0.349915,-0.0674 0.421163,-0.50594 0.421163,-2.59106 0,-2.50091 -0.0024,-2.50992 -0.661459,-2.50992 z m 12.964584,0 c -0.647016,0 -0.663103,0.0485 -0.738973,2.22674 -0.04266,1.22477 -0.01659,2.38562 0.05788,2.57969 0.152454,0.39728 0.644516,0.45199 1.154968,0.12815 0.247494,-0.15701 0.320424,-0.86688 0.264584,-2.57555 -0.07579,-2.31917 -0.08813,-2.35903 -0.738456,-2.35903 z m 6.35,0 c -0.646559,0 -0.663453,0.0499 -0.738973,2.20865 -0.05021,1.43535 0.03393,2.34241 0.240295,2.59106 0.174632,0.21046 0.507309,0.34587 0.738973,0.30127 0.349916,-0.0674 0.421163,-0.50594 0.421163,-2.59106 0,-2.50091 -0.0024,-2.50992 -0.661458,-2.50992 z m 16.404166,0 c -0.647015,0 -0.663113,0.0485 -0.738973,2.22674 -0.04266,1.22477 -0.01659,2.38562 0.05788,2.57969 0.07447,0.19407 0.302949,0.35295 0.507979,0.35295 0.767331,0 0.989622,-0.71974 0.911572,-2.95073 -0.07552,-2.15866 -0.0919,-2.20865 -0.738456,-2.20865 z m 6.35,0 c -0.650332,0 -0.662666,0.0399 -0.738456,2.35903 -0.05579,1.70729 0.01729,2.41959 0.264583,2.57917 0.187918,0.12124 0.520175,0.18961 0.738457,0.15141 0.320004,-0.056 0.396875,-0.5559 0.396875,-2.57969 0,-2.50091 -0.0024,-2.50992 -0.661459,-2.50992 z m 22.75417,0 c -0.64702,0 -0.66308,0.0485 -0.73898,2.22674 -0.0426,1.22477 -0.0138,2.39402 0.0646,2.59829 0.0797,0.2076 0.40561,0.3341 0.73897,0.2868 0.57109,-0.0811 0.59687,-0.19161 0.59687,-2.59829 0,-2.50454 -0.002,-2.51354 -0.66146,-2.51354 z m 12.03854,0 -0.0775,2.20865 c -0.049,1.40062 0.0356,2.34425 0.231,2.57969 0.16945,0.20418 0.45762,0.37104 0.64027,0.37104 0.72516,0 0.94755,-0.75427 0.87075,-2.95073 l -0.077,-2.20865 h -0.79375 z m 10.715622,0 c -0.64701,0 -0.66307,0.0485 -0.73897,2.22674 -0.0427,1.22477 -0.0166,2.38562 0.0579,2.57969 0.15245,0.39728 0.64452,0.45199 1.15497,0.12815 0.24748,-0.15701 0.32038,-0.86688 0.26458,-2.57555 -0.0758,-2.31917 -0.0881,-2.35903 -0.73846,-2.35903 z m 6.35,0 c -0.65034,0 -0.66265,0.0399 -0.73845,2.35903 -0.0558,1.70729 0.0173,2.41959 0.26458,2.57917 0.18792,0.12124 0.52018,0.18961 0.73846,0.15141 0.31998,-0.056 0.39687,-0.5559 0.39687,-2.57969 0,-2.50091 -0.002,-2.50992 -0.66146,-2.50992 z m 12.96459,0 c -0.64701,0 -0.66308,0.0485 -0.73898,2.22674 -0.0426,1.22477 -0.0138,2.39402 0.0646,2.59829 0.0796,0.2076 0.40561,0.3341 0.73897,0.2868 0.57109,-0.0811 0.59687,-0.19161 0.59687,-2.59829 0,-2.50454 -0.002,-2.51354 -0.66146,-2.51354 z m -81.397104,18.71824 27.554392,0.0672 v 0.66146 0.66145 l -27.417449,0.0672 c -29.056498,0.0714 -28.314325,0.10096 -27.856181,-1.09295 0.15192,-0.39586 2.446473,-0.42612 27.719238,-0.36432 z m 62.615304,0.0672 h 5.68492 v 0.66146 0.66145 l -5.42396,0.0651 c -2.98317,0.0358 -5.584822,-0.0378 -5.781042,-0.16382 -0.19626,-0.126 -0.31366,-0.45297 -0.26096,-0.72657 0.0902,-0.46846 0.42725,-0.49764 5.781042,-0.49764 z m 15.34583,0 h 5.68493 v 0.66146 0.66145 l -5.42396,0.0651 c -2.98317,0.0358 -5.58483,-0.0378 -5.78105,-0.16382 -0.19626,-0.126 -0.31366,-0.45297 -0.26096,-0.72657 0.0902,-0.46846 0.42726,-0.49764 5.78104,-0.49764 z"
               inkscape:label="card" /><path
               id="path4-3"
               style="display:inline;fill:#febd55;fill-opacity:1"
               d="m 20.321315,128.74325 c -3.896368,0 -5.015773,0.31724 -5.684408,1.61024 -0.211869,0.40972 -0.384989,0.81038 -0.384989,0.89038 0,0.08 1.166419,0.14521 2.59209,0.14521 h 2.59209 l 1.044897,1.07022 c 0.923821,0.94609 1.168173,1.06129 2.104264,0.99219 l 1.059367,-0.078 0.07648,-2.3151 0.07648,-2.31511 z m 3.98477,0 v 2.38125 2.38125 h 1.068151 c 0.886691,0 1.25646,-0.18012 2.170411,-1.05833 l 1.101224,-1.05834 h 2.460315 c 2.646277,0 2.845094,-0.1265 2.028817,-1.29191 -0.747265,-1.06685 -1.916062,-1.35392 -5.513358,-1.35392 z m -10.054167,3.175 v 2.11667 2.11666 h 3.307292 3.307291 v -1.24385 c 0,-1.04101 -0.138383,-1.38664 -0.845943,-2.11666 -0.837245,-0.86382 -0.870126,-0.87282 -3.307292,-0.87282 z m 14.706596,0 -1.003556,0.97979 c -0.853735,0.83364 -1.00304,1.14926 -1.00304,2.11666 v 1.13688 h 3.439583 3.439584 v -2.11666 -2.11667 h -2.436544 z m -7.562846,2.11667 v 2.38125 2.38125 h 2.513542 2.513541 v -2.38125 -2.38125 H 23.90921 Z m -7.14375,2.64583 v 1.98438 1.98437 h 2.596224 c 2.499253,0 2.622914,-0.0277 3.307292,-0.74207 0.565242,-0.58999 0.711067,-0.9967 0.711067,-1.98438 v -1.2423 H 17.55921 Z m 12.7,0 v 1.11208 c 0,0.89221 0.166847,1.28425 0.845426,1.98437 0.843332,0.8703 0.852775,0.8723 3.439584,0.8723 h 2.594157 v -1.98437 -1.98438 h -3.439584 z m -2.645833,2.64583 v 2.38125 2.38125 h 3.009635 c 1.655294,0 3.388465,-0.0759 3.851961,-0.16846 0.992838,-0.19857 2.39882,-1.50712 2.39882,-2.23294 0,-0.46741 -0.211207,-0.50901 -2.594157,-0.50901 h -2.59364 l -0.897619,-0.92604 c -0.751989,-0.77586 -1.082527,-0.92605 -2.036569,-0.92605 z m -2.306836,0.0455 c -0.498783,0.0421 -0.795914,0.2594 -1.385962,0.86816 l -0.908989,0.93793 H 16.97785 c -3.003694,0 -3.193749,0.12791 -2.153357,1.45056 0.965755,1.22775 1.862096,1.45351 5.512842,1.38751 l 3.307291,-0.0599 v -2.24896 -2.24896 l -1.060917,-0.078 c -0.229467,-0.017 -0.418199,-0.0217 -0.58446,-0.008 z"
               inkscape:label="chip" /><path
               id="path3-3"
               style="display:inline;fill:#00a86b;fill-opacity:1"
               inkscape:label="shield"
               d="m 69.815838,75.004733 c -0.51465,0.01895 -1.035218,0.480632 -2.087722,1.404566 -3.40069,2.985279 -9.776366,6.469342 -14.14436,7.729244 -1.303609,0.37601 -2.462565,0.829336 -2.575554,1.007173 -0.112985,0.177836 -0.207089,3.444824 -0.209289,7.260539 l -0.0041,6.938078 -6.280754,0.02222 v 0.125057 h 6.148462 l 0.202572,1.5875 c 0.634648,4.97385 2.105517,8.51489 5.073592,12.21218 2.839715,3.53736 7.290441,7.2055 11.686111,9.63197 l 1.995742,1.10174 1.63349,-0.85525 c 3.74996,-1.96372 8.4869,-5.58698 11.17606,-8.54831 3.92113,-4.31801 5.79343,-8.60079 6.2668,-14.33608 l 0.0656,-0.79375 h 9.19737 v -0.115756 l -9.06508,-0.03152 v -6.850228 c 0,-3.767457 -0.07,-7.032011 -0.15554,-7.254854 -0.0904,-0.235522 -1.26872,-0.751275 -2.8143,-1.23145 -4.93703,-1.533814 -9.6902,-4.154571 -14.05702,-7.750948 -1.02881,-0.84729 -1.53741,-1.271072 -2.05208,-1.252121 z m 7.72046,18.380274 c 0.0766,-0.01569 0.14049,-0.01187 0.19741,0.0062 0.30267,0.09606 0.62999,0.424848 0.72709,0.730705 0.14748,0.464715 -0.73318,1.462649 -5.3573,6.071978 -3.04342,3.03367 -5.648412,5.51543 -5.789312,5.51543 -0.1409,0 -1.60678,-1.35404 -3.25717,-3.00912 -2.403917,-2.41076 -2.966629,-3.115598 -2.830833,-3.543454 0.09323,-0.293737 0.424395,-0.600539 0.736393,-0.682129 0.44884,-0.117374 1.0447,0.318157 2.85305,2.087733 1.257,1.23004 2.39546,2.23655 2.53008,2.23655 0.13462,0 2.403452,-2.15621 5.041552,-4.791437 3.47306,-3.469251 4.61317,-4.512651 5.14904,-4.622456 z" /><rect
               style="display:inline;fill:#c7c3ef;fill-opacity:1;stroke-width:0.269498"
               id="rect12"
               width="50.690342"
               height="65.884613"
               x="84.617928"
               y="122.47858" /><g
               id="g12"
               transform="matrix(0.63669958,0,0,0.63669958,96.609326,21.390048)"><rect
                 style="display:inline;fill:#616484;fill-opacity:1;stroke-width:0.415554"
                 id="rect13"
                 width="85.166168"
                 height="70.923363"
                 x="-11.886813"
                 y="209.92743" /><path
                 id="path5"
                 style="display:inline;fill:#28274a;fill-opacity:1"
                 d="m 30.607101,158.87187 c -3.914916,-0.0118 -6.32499,0.35107 -9.924081,1.49201 -4.941095,1.56637 -9.39476,4.28784 -13.0964718,8.00256 -5.2392886,5.25765 -8.48907427,11.90674 -9.3815345,19.18505 -0.1512016,1.23311 -0.2712733,5.5395 -0.2712733,9.56992 v 7.32438 l -1.7858824,0.15824 c -4.2515276,0.3828 -7.27444,1.71993 -9.856263,4.35544 -2.050315,2.09299 -3.009566,3.77519 -3.714937,6.53317 -0.504767,1.97363 -0.51994,3.0121 -0.51994,29.20709 0,18.23233 0.09529,27.67852 0.286344,28.73236 0.97675,5.38784 5.646069,10.16138 11.0920631,11.34073 2.6330558,0.5702 71.2457809,0.58417 73.9445769,0.0151 4.90332,-1.03405 8.774022,-4.41533 10.692688,-9.34386 l 0.685719,-1.76327 0.07535,-27.91854 c 0.0835,-30.84982 0.127153,-29.93792 -1.589963,-33.37415 -1.144798,-2.29099 -3.814571,-4.9424 -6.156397,-6.11119 -2.015806,-1.00609 -3.530703,-1.40693 -6.284497,-1.66531 l -1.785883,-0.16578 v -7.32438 c 0,-4.03042 -0.120063,-8.33681 -0.271273,-9.56992 -1.325198,-10.80747 -8.041878,-20.38202 -17.715653,-25.25102 -4.684599,-2.35785 -9.111174,-3.41267 -14.422696,-3.4286 z m 0,7.40727 c 4.960429,0.0228 6.986036,0.45915 10.850931,2.3435 6.543994,3.1906 11.221115,8.79579 13.390351,16.0428 0.546218,1.82485 0.592454,2.60877 0.693254,10.90368 l 0.11303,8.93695 -2.735338,-0.0753 -2.735339,-0.0754 -0.143172,-8.46222 c -0.138843,-8.30565 -0.153439,-8.51077 -0.851497,-10.58719 -1.041306,-3.09744 -2.423059,-5.27144 -4.958273,-7.80664 -2.540604,-2.54062 -4.719124,-3.9225 -7.806642,-4.95074 -1.89638,-0.63155 -2.515752,-0.70142 -5.952942,-0.70832 -3.477037,-0.007 -4.034574,0.055 -5.952942,0.70078 -3.098964,1.04334 -5.272257,2.42389 -7.806642,4.95828 -2.535214,2.5352 -3.916967,4.7092 -4.958273,7.80664 -0.698058,2.07642 -0.712655,2.28154 -0.851496,10.58719 l -0.143172,8.46222 -2.727804,0.0754 -2.7278036,0.0753 0.09796,-8.93695 c 0.09703,-8.8323 0.1066982,-8.96963 0.8138198,-11.26537 2.6800178,-8.70104 9.2142758,-15.05622 17.9266428,-17.43685 1.917036,-0.52383 2.82821,-0.60446 6.465347,-0.58776 z m -0.271274,12.64435 c 0.203607,-10e-4 0.407349,0.006 0.610365,0.0151 5.413791,0.22868 10.549988,3.9705 11.679822,10.08233 0.157602,0.85255 0.286344,4.66014 0.286344,8.50743 V 204.491 H 30.471464 18.038105 v -7.136 c 0,-4.18359 0.122336,-7.70742 0.293879,-8.53003 0.477043,-2.28757 1.737006,-4.61722 3.375846,-6.25436 2.479774,-2.47719 5.573889,-3.62654 8.627997,-3.64712 z m -35.3860927,32.96724 35.8231447,0.0678 35.815609,0.0678 1.092629,0.58776 c 1.444116,0.77241 2.711927,2.06362 3.308027,3.37584 0.458358,1.00902 0.482263,2.50496 0.482263,28.8454 0,26.32103 -0.02522,27.84268 -0.482263,28.84539 -0.72575,1.59204 -1.750053,2.65592 -3.270351,3.41352 L 66.354892,277.78 H 30.471464 -5.4044281 l -1.3714371,-0.68572 c -1.520298,-0.7576 -2.5370775,-1.82148 -3.2628148,-3.41352 -0.457087,-1.00271 -0.489799,-2.52436 -0.489799,-28.84539 0,-26.34044 0.03144,-27.83638 0.489799,-28.8454 0.6555485,-1.44309 2.0000332,-2.73419 3.6320478,-3.48134 z" /><path
                 d="m 30.607101,166.27914 c -3.637141,-0.0167 -4.548309,0.0639 -6.465347,0.58776 -8.712376,2.38063 -15.2466226,8.73581 -17.926643,17.43685 -0.7071223,2.29575 -0.7167899,2.43306 -0.8138198,11.26537 l -0.09796,8.93695 2.7278036,-0.0753 2.7278042,-0.0754 0.143172,-8.46222 c 0.138842,-8.30566 0.153437,-8.51077 0.851496,-10.58719 1.041307,-3.09744 2.423056,-5.27143 4.958273,-7.80664 2.534387,-2.53439 4.707674,-3.91494 7.806642,-4.95828 1.918369,-0.64576 2.475901,-0.70778 5.952942,-0.70078 3.437193,0.007 4.05656,0.0768 5.952942,0.70832 3.087521,1.02824 5.266035,2.41012 7.806642,4.95074 2.535217,2.53521 3.916966,4.7092 4.958273,7.80664 0.698059,2.07642 0.712654,2.28153 0.851497,10.58719 l 0.143172,8.46222 2.735339,0.0754 2.735338,0.0753 -0.11303,-8.93695 c -0.1008,-8.29492 -0.147035,-9.07883 -0.693254,-10.90368 -2.169238,-7.24702 -6.846351,-12.8522 -13.390351,-16.0428 -3.864899,-1.88435 -5.890497,-2.3207 -10.850931,-2.3435 z"
                 style="display:inline;fill:#b3b3b3"
                 id="path3" /><path
                 d="m 30.572781,224.79585 c -0.57244,-0.005 -1.157179,0.0297 -1.752348,0.10904 -3.388032,0.45145 -7.146713,3.06576 -8.653218,6.01875 -1.698016,3.32839 -1.76903,7.23936 -0.189136,10.43606 1.122227,2.27068 3.076515,4.30726 5.240507,5.46065 l 1.551326,0.82631 v 6.99078 c 0,5.81561 0.07164,7.17016 0.426848,8.05791 0.426678,1.06637 1.353479,1.93239 2.351277,2.19728 0.834148,0.22144 2.297843,-0.0779 3.06958,-0.62735 1.405776,-1.001 1.560629,-1.95585 1.560629,-9.63869 v -7.00164 l 1.374593,-0.6966 c 1.789431,-0.90677 4.170754,-3.19429 5.096846,-4.89582 4.296754,-7.89456 -1.490304,-17.15538 -10.076904,-17.23668 z m -0.129708,7.21248 c 3.024538,-0.0221 5.550783,3.23912 3.950663,6.34484 -0.861657,1.6724 -2.030931,2.38331 -3.919657,2.38331 -1.124926,0 -1.738545,-0.15206 -2.408638,-0.59738 -2.737989,-1.81953 -2.602024,-5.94626 0.248563,-7.54837 0.706475,-0.39706 1.431099,-0.57729 2.129069,-0.5824 z"
                 id="path11"
                 style="display:inline;fill:#28274a;fill-opacity:1" /><path
                 d="m 65.795957,212.41986 -35.586461,0.0693 c -34.3373731,0.067 -35.6219031,0.0871 -36.5972501,0.57154 -1.334327,0.66268 -2.528263,1.88399 -3.124357,3.19619 -0.458123,1.00849 -0.483869,2.50193 -0.4893759,28.52332 -0.0063,29.87124 -0.08506,28.23205 1.4500409,30.24467 0.355231,0.46574 1.270659,1.15803 2.033985,1.53841 l 1.387512,0.69143 35.8804971,-0.0687 35.880499,-0.0687 1.29501,-0.80099 c 0.80263,-0.49624 1.59976,-1.29338 2.096,-2.09599 l 0.80098,-1.29501 0.076,-27.40505 c 0.042,-15.07285 0.0103,-27.7752 -0.0708,-28.22722 -0.28419,-1.58478 -1.63441,-3.20173 -3.39928,-4.07003 z M 30.51697,224.2579 c 1.767865,-0.007 3.537859,0.35536 5.151624,1.11053 6.292252,2.94451 8.853285,10.78666 5.521627,16.90801 -0.956524,1.75746 -3.312225,4.08031 -5.067908,4.99763 l -1.413867,0.73845 -0.0062,7.01146 c -0.0072,7.79716 -0.151738,8.58268 -1.793689,9.75186 -0.817043,0.58178 -2.669168,0.91445 -3.625102,0.65113 -1.003173,-0.27635 -2.047675,-1.22527 -2.538863,-2.30684 -0.440037,-0.96893 -0.492925,-1.8319 -0.498678,-8.09615 l -0.0067,-7.01146 -1.413867,-0.73845 c -2.044335,-1.06814 -4.261967,-3.40192 -5.38055,-5.66167 -0.809023,-1.63438 -0.961176,-2.24069 -1.079004,-4.30723 -0.234276,-4.10885 1.098552,-7.40423 4.057634,-10.03505 2.206177,-1.96143 5.147122,-3.00042 8.093562,-3.01222 z"
                 id="path10"
                 style="display:inline;fill:#ffc72e;fill-opacity:1" /></g></g><g
             id="g16"
             transform="matrix(0.4357918,0,0,0.4357918,-7.2060749,81.609336)"><text
               xml:space="preserve"
               style="font-size:59.9723px;font-family:Sans;-inkscape-font-specification:Sans;display:inline;fill:#d9ae5f;fill-opacity:1;stroke-width:0.264583"
               x="159.15947"
               y="144.52116"
               id="text13"><tspan
                 sodipodi:role="line"
                 id="tspan13"
                 style="font-style:normal;font-variant:normal;font-weight:normal;font-stretch:normal;font-family:'Sans Serif Collection';-inkscape-font-specification:'Sans Serif Collection';fill:#d9ae5f;fill-opacity:1;stroke-width:0.264583"
                 x="159.15947"
                 y="144.52116">3D SECURE</tspan><tspan
                 sodipodi:role="line"
                 style="font-style:normal;font-variant:normal;font-weight:normal;font-stretch:normal;font-size:35.2778px;font-family:'Sans Serif Collection';-inkscape-font-specification:'Sans Serif Collection';fill:#d9ae5f;fill-opacity:1;stroke-width:0.264583"
                 x="159.15947"
                 y="230.03345"
                 id="tspan14" /></text><text
               xml:space="preserve"
               style="font-size:33.2666px;font-family:Sans;-inkscape-font-specification:Sans;display:inline;fill:#d9ae5f;fill-opacity:1;stroke-width:0.26263"
               x="159.65973"
               y="183.03079"
               id="text15"><tspan
                 sodipodi:role="line"
                 id="tspan15"
                 style="font-style:normal;font-variant:normal;font-weight:normal;font-stretch:normal;font-size:33.2666px;font-family:'Sans Serif Collection';-inkscape-font-specification:'Sans Serif Collection';fill:#d9ae5f;fill-opacity:1;stroke-width:0.26263"
                 x="159.65973"
                 y="183.03079">GÜVENLİ ALIŞVERİŞ</tspan></text></g></g></g></g></g></svg>
