<svg width="75" height="75" viewBox="0 0 75 75" fill="none" xmlns="http://www.w3.org/2000/svg">
<path d="M36.1611 1.20664C36.922 0.520906 38.078 0.520906 38.8389 1.20664L41.7318 3.81371C42.319 4.34294 43.1629 4.4766 43.885 4.15474L47.4419 2.56922C48.3775 2.15218 49.4769 2.50941 49.9887 3.39672L51.9343 6.77012C52.3293 7.45493 53.0905 7.84282 53.8767 7.75984L57.7495 7.35106C58.7681 7.24354 59.7034 7.92303 59.9159 8.92506L60.7239 12.7346C60.8879 13.5079 61.4921 14.1121 62.2654 14.2761L66.0749 15.0841C67.077 15.2966 67.7565 16.2319 67.6489 17.2505L67.2402 21.1233C67.1572 21.9095 67.5451 22.6707 68.2299 23.0657L71.6033 25.0113C72.4906 25.5231 72.8478 26.6225 72.4308 27.5581L70.8453 31.115C70.5234 31.8371 70.6571 32.681 71.1863 33.2682L73.7934 36.1611C74.4791 36.922 74.4791 38.078 73.7934 38.8389L71.1863 41.7318C70.6571 42.319 70.5234 43.1629 70.8453 43.885L72.4308 47.4419C72.8478 48.3775 72.4906 49.4769 71.6033 49.9887L68.2299 51.9343C67.5451 52.3293 67.1572 53.0905 67.2402 53.8767L67.6489 57.7495C67.7565 58.7681 67.077 59.7034 66.0749 59.9159L62.2654 60.7239C61.4921 60.8879 60.8879 61.4921 60.7239 62.2654L59.9159 66.0749C59.7034 67.077 58.7681 67.7565 57.7495 67.6489L53.8767 67.2402C53.0905 67.1572 52.3293 67.5451 51.9343 68.2299L49.9887 71.6033C49.4769 72.4906 48.3775 72.8478 47.4419 72.4308L43.885 70.8453C43.1629 70.5234 42.319 70.6571 41.7318 71.1863L38.8389 73.7934C38.078 74.4791 36.922 74.4791 36.1611 73.7934L33.2682 71.1863C32.681 70.6571 31.8371 70.5234 31.115 70.8453L27.5581 72.4308C26.6225 72.8478 25.5231 72.4906 25.0113 71.6033L23.0657 68.2299C22.6707 67.5451 21.9095 67.1572 21.1233 67.2402L17.2505 67.6489C16.2319 67.7565 15.2966 67.077 15.0841 66.0749L14.2761 62.2654C14.1121 61.4921 13.5079 60.8879 12.7346 60.7239L8.92506 59.9159C7.92303 59.7034 7.24354 58.7681 7.35106 57.7495L7.75984 53.8767C7.84282 53.0905 7.45493 52.3293 6.77012 51.9343L3.39672 49.9887C2.50941 49.4769 2.15218 48.3775 2.56922 47.4419L4.15474 43.885C4.4766 43.1629 4.34295 42.319 3.81371 41.7318L1.20664 38.8389C0.520906 38.078 0.520906 36.922 1.20664 36.1611L3.81371 33.2682C4.34294 32.681 4.4766 31.8371 4.15474 31.115L2.56922 27.5581C2.15218 26.6225 2.50941 25.5231 3.39672 25.0113L6.77012 23.0657C7.45493 22.6707 7.84282 21.9095 7.75984 21.1233L7.35106 17.2505C7.24354 16.2319 7.92303 15.2966 8.92506 15.0841L12.7346 14.2761C13.5079 14.1121 14.1121 13.5079 14.2761 12.7346L15.0841 8.92506C15.2966 7.92303 16.2319 7.24354 17.2505 7.35106L21.1233 7.75984C21.9095 7.84282 22.6707 7.45493 23.0657 6.77012L25.0113 3.39672C25.5231 2.50941 26.6225 2.15218 27.5581 2.56922L31.115 4.15474C31.8371 4.4766 32.681 4.34295 33.2682 3.81371L36.1611 1.20664Z" fill="#E2B560"/>
</svg>
