<svg width="230" height="50" viewBox="0 0 230 50" fill="none" xmlns="http://www.w3.org/2000/svg">
<path d="M144 32.3C144 31.4 144.3 30.6 145 30C145.6 29.3 146.4 29 147.4 29C148.3 29 149.1 29.3 149.7 30C150.3 30.7 150.6 31.4 150.6 32.3C150.6 33.1 150.3 33.9 149.6 34.5C149 35.1 148.2 35.5 147.2 35.5C146.3 35.5 145.5 35.2 144.9 34.5C144.4 33.9 144 33.2 144 32.3Z" fill="white"/>
<path d="M162.1 35.5998C160.9 35.5998 159.7 35.3998 158.6 34.9998C157.5 34.5998 156.5 33.9998 155.6 33.1998C154.7 32.3998 154 31.3998 153.5 30.1998C153 28.8998 152.7 27.4998 152.7 25.9998C152.7 22.7998 153.8 20.0998 155.9 17.9998C158 15.8998 160.7 14.7998 163.9 14.7998C166.1 14.7998 168.3 15.0998 170.4 15.6998L168.7 22.1998L168.2 22.2998C168.2 21.7998 168 20.9998 167.6 19.8998C167.1 18.7998 166.5 17.7998 165.7 16.8998C164.9 15.8998 164.1 15.4998 163.3 15.4998C162.2 15.4998 161.2 16.2998 160.5 17.7998C159.8 19.2998 159.4 21.1998 159.4 23.4998C159.4 24.9998 159.6 26.3998 159.9 27.5998C160.2 28.7998 160.7 29.6998 161.3 30.3998C161.9 31.0998 162.6 31.5998 163.3 31.9998C164 32.2998 164.8 32.4998 165.7 32.4998C166.5 32.4998 167.3 32.3998 168.2 32.0998C169 31.7998 169.7 31.3998 170.2 30.8998L170.5 31.3998C168.1 34.0998 165.3 35.5998 162.1 35.5998Z" fill="white"/>
<path d="M172.2 25.8002C172.2 22.4002 173.2 19.7002 175.4 17.7002C177.6 15.7002 180.3 14.7002 183.9 14.7002C187.2 14.7002 189.7 15.6002 191.5 17.3002C193.3 19.0002 194.1 21.4002 194.1 24.4002C194.1 27.7002 193.1 30.4002 191 32.4002C189 34.5002 186.1 35.5002 182.4 35.5002C179 35.5002 176.5 34.6002 174.8 32.9002C173.1 31.2002 172.2 28.8002 172.2 25.8002ZM179 24.2002C179 27.4002 179.4 30.0002 180.1 31.9002C180.9 33.8002 181.9 34.8002 183.4 34.8002C184.1 34.8002 184.7 34.5002 185.3 34.0002C185.8 33.5002 186.3 32.8002 186.6 31.9002C186.9 31.0002 187.1 30.1002 187.3 29.1002C187.4 28.1002 187.5 27.1002 187.5 26.0002C187.5 23.9002 187.3 22.1002 187 20.5002C186.7 18.9002 186.2 17.7002 185.5 16.8002C184.8 15.9002 184 15.4002 183 15.4002C182.3 15.4002 181.6 15.7002 181.1 16.2002C180.6 16.7002 180.1 17.4002 179.8 18.3002C179.5 19.2002 179.3 20.1002 179.1 21.1002C179 22.1002 179 23.2002 179 24.2002Z" fill="white"/>
<path d="M207.3 17.6002C206.2 17.6002 205 18.2002 203.7 19.4002V35.1002H197.6V23.3002C197.6 20.9002 197.5 18.5002 197.3 16.1002L203.3 14.7002L203.7 18.7002C204.8 17.5002 206 16.6002 207.1 15.9002C208.2 15.2002 209.4 14.8002 210.7 14.8002C211.9 14.8002 213 15.2002 214 15.9002C215 16.6002 215.7 17.6002 216.1 19.0002C217.3 17.7002 218.5 16.7002 219.6 16.0002C220.8 15.3002 222 14.9002 223.4 14.9002C225.1 14.9002 226.4 15.5002 227.5 16.7002C228.6 17.9002 229.1 19.6002 229.1 21.7002V35.2002H223.1V21.6002C223.1 20.3002 222.8 19.3002 222.2 18.6002C221.6 17.9002 220.9 17.6002 220 17.6002C218.8 17.6002 217.5 18.2002 216.2 19.5002C216.4 20.4002 216.5 21.1002 216.5 21.6002V35.1002H210.4V21.6002C210.4 20.3002 210.1 19.3002 209.5 18.7002C208.9 18.0002 208.2 17.6002 207.3 17.6002Z" fill="white"/>
<path d="M20.4 23.2004C20.4 22.1004 20.4 20.9004 20.3 19.8004C20.2 17.5004 21.7 15.5004 23.9 15.0004L26.4 14.4004V28.8004C26.4 32.1004 23.7 34.8004 20.4 34.8004V23.2004Z" fill="#2B2868"/>
<path d="M53.8 20.9004C54.3 19.5004 55.1 18.3004 56.2 17.4004C57.3 16.5004 58.4 15.7004 59.9 15.2004C61.4 14.7004 62.9 14.4004 64.7 14.4004C66.3 14.4004 67.8 14.6004 69.1 15.1004C70.4 15.6004 71.5 16.2004 72.3 17.1004C73.2 18.0004 73.8 19.0004 74.3 20.2004C74.7 21.4004 75 22.7004 75 24.2004C75 25.8004 74.7 27.3004 74.2 28.6004C73.7 30.0004 72.9 31.1004 72 32.2004C71 33.2004 69.8 34.0004 68.3 34.6004C66.8 35.2004 65.2 35.4004 63.3 35.4004C61.6 35.4004 60.1 35.2004 58.9 34.7004C57.6 34.2004 56.5 33.6004 55.7 32.7004C54.8 31.8004 54.2 30.8004 53.8 29.6004C53.4 28.4004 53.2 27.1004 53.2 25.6004C53 23.8004 53.2 22.2004 53.8 20.9004ZM60.1 29.3004C60.4 31.0004 60.9 32.3004 61.6 33.1004C62.3 34.0004 63.1 34.4004 64 34.4004C64.9 34.4004 65.6 34.0004 66.2 33.2004C66.8 32.4004 67.2 31.4004 67.6 30.0004C67.9 28.6004 68.1 27.2004 68.1 25.6004C68.1 23.3004 67.9 21.3004 67.5 19.7004C67.1 18.1004 66.6 16.9004 66 16.1004C65.4 15.3004 64.6 14.9004 63.7 14.9004C62.8 14.9004 62.1 15.3004 61.5 16.1004C60.9 16.9004 60.4 18.0004 60.1 19.3004C59.8 20.7004 59.6 22.1004 59.6 23.7004C59.7 25.8004 59.8 27.6004 60.1 29.3004Z" fill="#2B2868"/>
<path d="M85.3 14.4004L85.2 21.1004C86.2 18.6004 87.1 16.9004 88 15.9004C88.9 15.0004 89.9 14.5004 90.9 14.5004C91.8 14.5004 92.5 14.6004 93 14.9004V19.9004C91.2 18.3004 86.5 19.2004 85.2 22.2004V28.8004C85.2 32.2004 82.5 34.9004 79.1 34.9004V23.1004C79.1 21.9004 79.1 20.8004 79 19.7004C78.9 17.5004 80.4 15.5004 82.6 15.0004L85.3 14.4004Z" fill="#2B2868"/>
<path d="M119.2 35.2H111.4L104.7 24.6C106.6 23 107.8 21.7 108.4 20.8C110 18.7 110.8 16.4 111.1 14H117.8C114.6 19 111.6 22 110.1 22.5C110.8 23.2 115.8 30.4 119.2 35.2Z" fill="#2B2868"/>
<path d="M97.5 35.2C101.1 35.2 104 32.3 104 28.7V3L101.3 3.6C99 4.1 97.4 6.2 97.5 8.6C97.6 10.2 97.6 11.7 97.6 13.3L97.5 35.2Z" fill="#2B2868"/>
<path d="M140.9 31.9998C140.8 32.0998 140.6 32.0998 140.4 32.1998C140.2 32.2998 140 32.2998 139.9 32.2998C139 32.2998 138.6 31.5998 138.6 30.2998V20.4998C138.6 19.0998 138.3 17.8998 137.6 16.8998C137 15.8998 136 15.1998 134.8 14.8998C133.6 14.4998 132.3 14.2998 130.9 14.2998C129.4 14.2998 127.9 14.4998 126.2 14.8998C124.6 15.2998 123 15.7998 121.7 16.3998V21.9998H122.3C122.7 20.6998 125.3 14.9998 129.8 14.9998C130.5 14.9998 131.2 15.3998 131.7 16.1998C132.2 16.9998 132.5 17.9998 132.5 19.1998V23.1998C129.4 23.6998 127 24.2998 125.4 25.0998C123.8 25.7998 122.6 26.5998 121.9 27.4998C121.2 28.3998 120.9 29.2998 120.9 30.2998C120.9 31.2998 121.2 32.1998 121.8 32.9998C122.4 33.7998 123.1 34.3998 123.8 34.6998C124.6 34.9998 125.3 35.1998 126 35.1998C127 35.1998 128 34.8998 129.1 34.3998C130.2 33.8998 131.3 32.8998 132.5 31.5998C132.6 32.6998 133 33.5998 133.6 34.1998C134.2 34.7998 135.1 35.1998 136.2 35.1998C137.2 35.1998 138.1 34.8998 139 34.3998C139.9 33.8998 140.5 33.2998 141.1 32.4998L140.9 31.9998ZM132.7 30.6998C132.3 31.1998 131.8 31.4998 131.2 31.7998C130.6 32.0998 130.1 32.1998 129.7 32.1998C129 32.1998 128.4 31.8998 127.9 31.1998C127.4 30.5998 127.2 29.6998 127.2 28.5998C127.2 27.1998 127.7 26.0998 128.6 25.3998C129.5 24.6998 130.9 24.0998 132.7 23.8998V30.6998Z" fill="#2B2868"/>
<path d="M49.2 22.2996C49.2 19.9996 49.3 17.2996 49.5 14.0996L46.1 15.0996C44.2 14.4996 42.5 14.1996 40.8 14.1996C39.3 14.1996 37.9 14.4996 36.6 15.0996C35.3 15.6996 34.1 16.4996 33.2 17.4996C32.2 18.4996 31.5 19.7996 30.9 21.1996C30.4 22.5996 30.1 24.1996 30.1 25.7996C30.1 27.1996 30.3 28.4996 30.7 29.5996C31.1 30.7996 31.6 31.6996 32.3 32.4996C33 33.2996 33.7 33.8996 34.6 34.2996C35.5 34.6996 36.3 34.8996 37.2 34.8996C39.2 34.8996 41.4 33.7996 43.7 31.4996L43.4 37.9996C44.2 37.7996 47.7 36.1996 49.2 34.0996C49.2 33.3996 49.2 30.1996 49.2 29.3996V22.2996ZM43.6 30.9996C43.3 31.3996 42.8 31.6996 42.2 31.8996C41.6 32.0996 41.1 32.1996 40.5 32.1996C39.1 32.1996 38 31.4996 37.2 30.0996C36.4 28.6996 36.1 26.7996 36.1 24.2996C36.1 22.6996 36.3 21.1996 36.7 19.6996C37.1 18.1996 37.6 17.0996 38.3 16.1996C39 15.2996 39.7 14.8996 40.6 14.8996C41.2 14.8996 41.7 15.0996 42.3 15.4996C42.9 15.8996 43.3 16.3996 43.7 16.9996L43.6 30.9996Z" fill="#2B2868"/>
<path d="M33.2 47.0002C33.2 47.0002 36.2 46.1002 38.8 45.1002C42.4 43.7002 42.4 41.3002 43.1 38.2002C39.3 39.9002 37.9 40.3002 37 40.7002C32.7 42.2002 33.2 47.0002 33.2 47.0002Z" fill="#2B2868"/>
<path d="M20.4 14.0002C20.4 14.0002 23.6 13.0002 26.3 12.0002C30.1 10.5002 30.1 8.0002 30.8 4.7002C26.8 6.5002 25.3 6.9002 24.3 7.3002C19.9 8.9002 20.4 14.0002 20.4 14.0002Z" fill="white"/>
<path d="M7.8 35.4C6.4 35.4 5.2 35.2 4.1 34.9C3 34.6 2 34.2 1.1 33.7V28.7H1.5L3 31.3C3.6 32.4 4.3 33.3 5 33.8C5.7 34.3 6.7 34.6 7.8 34.6C9.1 34.6 10.2 34.3 11.1 33.7C11.9 33.1 12.3 32.3 12.3 31.3C12.3 30.4 12 29.6 11.4 29C10.8 28.4 9.7 27.9 8.1 27.4L6.3 26.9C4.6 26.4 3.3 25.6 2.3 24.5C1.3 23.4 0.800003 22.1 0.800003 20.6C0.800003 18.8 1.5 17.2 3 15.9C4.5 14.6 6.6 14 9.4 14C10.5 14 11.5 14.1 12.5 14.4C13.5 14.6 14.4 15 15.3 15.5L15 20H14.6L13.1 17.4C12.6 16.5 12 15.8 11.5 15.4C11 15 10.2 14.8 9.2 14.8C8.2 14.8 7.4 15.1 6.5 15.6C5.6 16.1 5.2 17 5.2 17.9C5.2 18.9 5.6 19.6 6.3 20.2C7 20.8 8.1 21.3 9.5 21.8L11.4 22.3C13.4 22.9 14.8 23.8 15.7 24.8C16.6 25.8 17 27.2 17 28.7C17 30.7 16.2 32.4 14.6 33.6C13 34.8 10.7 35.4 7.8 35.4Z" fill="#2B2868"/>
</svg>
