<svg width="30" height="30" viewBox="0 0 30 30" fill="none" xmlns="http://www.w3.org/2000/svg">
<path d="M20.061 23.2617H18.0103C17.6543 23.2617 17.3657 22.9731 17.3657 22.6172V17.9297C17.3657 17.5737 17.6543 17.2852 18.0103 17.2852C18.3662 17.2852 18.6548 17.5737 18.6548 17.9297V21.9727H20.061C20.417 21.9727 20.7056 22.2612 20.7056 22.6172C20.7056 22.9731 20.417 23.2617 20.061 23.2617Z" fill="#D9AE5F"/>
<path d="M10.8293 23.2628C10.6007 23.2628 10.3685 23.2189 10.1444 23.1261L9.83284 22.9971C9.50401 22.8609 9.3478 22.4838 9.48403 22.155C9.6202 21.8262 9.99725 21.6701 10.3261 21.8061L10.6376 21.9352C10.896 22.0422 11.193 21.9191 11.2999 21.6608C11.3512 21.5369 11.3508 21.3993 11.2987 21.2734C11.2465 21.1475 11.1496 21.0499 11.0257 20.9987L10.4026 20.7406C9.48772 20.3615 9.05172 19.3089 9.43065 18.3941C9.6137 17.952 9.95911 17.6073 10.4031 17.4234C10.8471 17.2395 11.3351 17.2391 11.7771 17.4222L12.0886 17.5512C12.4175 17.6874 12.5737 18.0645 12.4374 18.3933C12.3013 18.7221 11.9242 18.8782 11.5953 18.7422L11.2839 18.6131C11.1599 18.5619 11.0223 18.5622 10.8964 18.6144C10.7705 18.6665 10.6729 18.7634 10.6216 18.8874C10.5146 19.1456 10.6377 19.4427 10.8959 19.5497L11.5189 19.8077C11.961 19.9908 12.3057 20.3362 12.4896 20.7802C12.6735 21.2242 12.6739 21.7122 12.4909 22.1542C12.2048 22.8449 11.5343 23.2627 10.8293 23.2628Z" fill="#D9AE5F"/>
<path d="M14.7287 23.2628C14.5001 23.2629 14.2679 23.219 14.0439 23.1262L13.7323 22.9972C13.4035 22.8609 13.2473 22.4839 13.3835 22.155C13.5198 21.8262 13.8967 21.67 14.2256 21.8062L14.5371 21.9352C14.7955 22.0423 15.0925 21.9191 15.1994 21.6609C15.3063 21.4027 15.1833 21.1056 14.9251 20.9987L14.302 20.7406C13.3871 20.3615 12.9511 19.3089 13.3301 18.3941C13.5131 17.9521 13.8585 17.6073 14.3026 17.4234C14.7465 17.2395 15.2345 17.2391 15.6765 17.4222L15.9881 17.5512C16.3169 17.6874 16.4731 18.0645 16.3369 18.3933C16.2007 18.7221 15.8237 18.8782 15.4948 18.7422L15.1833 18.6131C15.0593 18.5619 14.9218 18.5622 14.7958 18.6144C14.67 18.6665 14.5723 18.7634 14.5211 18.8873C14.4141 19.1456 14.5371 19.4427 14.7954 19.5497L15.4184 19.8077C16.3333 20.1867 16.7693 21.2393 16.3903 22.1542C16.1042 22.845 15.4338 23.2628 14.7287 23.2628Z" fill="#D9AE5F"/>
<path d="M20.8196 29.7824C20.5932 29.7824 20.3735 29.6629 20.2557 29.451L18.9322 27.0703H11.0678L9.75193 29.4373C9.57896 29.7485 9.1865 29.8605 8.87543 29.6875C8.5643 29.5145 8.45232 29.1221 8.62523 28.811L10.1254 26.1126C10.239 25.9081 10.4547 25.7812 10.6887 25.7812H19.3113C19.5454 25.7812 19.761 25.9081 19.8746 26.1126L21.3823 28.8246C21.5553 29.1357 21.4433 29.5281 21.1321 29.7011C21.033 29.7563 20.9256 29.7824 20.8196 29.7824Z" fill="#D9AE5F"/>
<path d="M24.082 13.4766H23.5547V8.55469C23.5547 3.8376 19.7171 0 15 0C10.2829 0 6.44531 3.8376 6.44531 8.55469V13.4766H5.91797C4.75482 13.4766 3.80859 14.4228 3.80859 15.5859V27.8906C3.80859 29.0538 4.75482 30 5.91797 30H24.082C25.2452 30 26.1914 29.0538 26.1914 27.8906V15.5859C26.1914 14.4228 25.2451 13.4766 24.082 13.4766ZM7.73438 8.55469C7.73438 4.5484 10.9937 1.28906 15 1.28906C19.0063 1.28906 22.2656 4.5484 22.2656 8.55469V13.4766H20.625V8.55469C20.625 7.06049 20.0376 5.65025 18.971 4.58367C17.9044 3.51709 16.4942 2.92963 15 2.92963C13.5058 2.92963 12.0955 3.51703 11.0289 4.58367C9.9624 5.65025 9.375 7.06049 9.375 8.55469V13.4766H7.73438V8.55469ZM19.3359 13.4766H10.6641V8.55469C10.6641 6.16377 12.6091 4.21869 15 4.21869C17.3909 4.21869 19.3359 6.16377 19.3359 8.55469V13.4766ZM24.9023 27.8906C24.9023 28.343 24.5344 28.7109 24.082 28.7109H5.91797C5.46563 28.7109 5.09766 28.343 5.09766 27.8906V15.5859C5.09766 15.1336 5.46568 14.7656 5.91797 14.7656H24.082C24.5344 14.7656 24.9023 15.1336 24.9023 15.5859V27.8906Z" fill="#C7C3EF"/>
</svg>
