<svg width="100" height="15" viewBox="0 0 100 15" fill="none" xmlns="http://www.w3.org/2000/svg">
<path d="M7.82229 12.4312L3.737 14.8998C3.61986 14.9733 3.4954 15.0063 3.36361 14.999C3.23183 14.9917 3.11469 14.9512 3.01219 14.8778C2.90969 14.8043 2.83282 14.7088 2.78157 14.5912C2.73032 14.4737 2.71934 14.3414 2.74863 14.1945L3.82486 9.52186L0.222777 6.37003C0.105636 6.26717 0.0360835 6.1533 0.0141196 6.0284C-0.00784427 5.9035 -0.00418358 5.78228 0.0251016 5.66473C0.0543868 5.54717 0.120278 5.44799 0.222777 5.36717C0.325275 5.28636 0.449737 5.2386 0.596163 5.22391L5.36233 4.80513L7.2073 0.396978C7.26587 0.264733 7.35372 0.16555 7.47086 0.0994274C7.588 0.033305 7.70515 0.000244137 7.82229 0.000244137C7.93943 0.000244137 8.05657 0.033305 8.17371 0.0994274C8.29085 0.16555 8.3787 0.264733 8.43727 0.396978L10.2822 4.80513L15.0484 5.22391C15.1948 5.2386 15.3193 5.28636 15.4218 5.36717C15.5243 5.44799 15.5902 5.54717 15.6195 5.66473C15.6488 5.78228 15.6524 5.9035 15.6305 6.0284C15.6085 6.1533 15.5389 6.26717 15.4218 6.37003L11.8197 9.52186L12.8959 14.1945C12.9252 14.3414 12.9142 14.4737 12.863 14.5912C12.8118 14.7088 12.7349 14.8043 12.6324 14.8778C12.5299 14.9512 12.4127 14.9917 12.281 14.999C12.1492 15.0063 12.0247 14.9733 11.9076 14.8998L7.82229 12.4312Z" fill="#D9AE5F"/>
<path d="M28.9077 12.4312L24.8224 14.8998C24.7053 14.9733 24.5808 15.0063 24.449 14.999C24.3172 14.9917 24.2001 14.9512 24.0976 14.8778C23.9951 14.8043 23.9182 14.7088 23.867 14.5912C23.8157 14.4737 23.8048 14.3414 23.834 14.1945L24.9103 9.52186L21.3082 6.37003C21.1911 6.26717 21.1215 6.1533 21.0995 6.0284C21.0776 5.9035 21.0812 5.78228 21.1105 5.66473C21.1398 5.54717 21.2057 5.44799 21.3082 5.36717C21.4107 5.28636 21.5352 5.2386 21.6816 5.22391L26.4477 4.80513L28.2927 0.396978C28.3513 0.264733 28.4391 0.16555 28.5563 0.0994274C28.6734 0.033305 28.7906 0.000244137 28.9077 0.000244137C29.0248 0.000244137 29.142 0.033305 29.2591 0.0994274C29.3763 0.16555 29.4641 0.264733 29.5227 0.396978L31.3677 4.80513L36.1338 5.22391C36.2803 5.2386 36.4047 5.28636 36.5072 5.36717C36.6097 5.44799 36.6756 5.54717 36.7049 5.66473C36.7342 5.78228 36.7378 5.9035 36.7159 6.0284C36.6939 6.1533 36.6244 6.26717 36.5072 6.37003L32.9051 9.52186L33.9814 14.1945C34.0106 14.3414 33.9997 14.4737 33.9484 14.5912C33.8972 14.7088 33.8203 14.8043 33.7178 14.8778C33.6153 14.9512 33.4982 14.9917 33.3664 14.999C33.2346 15.0063 33.1101 14.9733 32.993 14.8998L28.9077 12.4312Z" fill="#D9AE5F"/>
<path d="M49.9931 12.4312L45.9078 14.8998C45.7907 14.9733 45.6662 15.0063 45.5344 14.999C45.4026 14.9917 45.2855 14.9512 45.183 14.8778C45.0805 14.8043 45.0036 14.7088 44.9524 14.5912C44.9011 14.4737 44.8901 14.3414 44.9194 14.1945L45.9957 9.52186L42.3936 6.37003C42.2764 6.26717 42.2069 6.1533 42.1849 6.0284C42.163 5.9035 42.1666 5.78228 42.1959 5.66473C42.2252 5.54717 42.2911 5.44799 42.3936 5.36717C42.4961 5.28636 42.6205 5.2386 42.767 5.22391L47.5331 4.80513L49.3781 0.396978C49.4367 0.264733 49.5245 0.16555 49.6417 0.0994274C49.7588 0.033305 49.8759 0.000244137 49.9931 0.000244137C50.1102 0.000244137 50.2274 0.033305 50.3445 0.0994274C50.4616 0.16555 50.5495 0.264733 50.6081 0.396978L52.453 4.80513L57.2192 5.22391C57.3656 5.2386 57.4901 5.28636 57.5926 5.36717C57.6951 5.44799 57.761 5.54717 57.7903 5.66473C57.8196 5.78228 57.8232 5.9035 57.8013 6.0284C57.7793 6.1533 57.7097 6.26717 57.5926 6.37003L53.9905 9.52186L55.0667 14.1945C55.096 14.3414 55.085 14.4737 55.0338 14.5912C54.9825 14.7088 54.9057 14.8043 54.8032 14.8778C54.7007 14.9512 54.5835 14.9917 54.4518 14.999C54.32 15.0063 54.1955 14.9733 54.0784 14.8998L49.9931 12.4312Z" fill="#D9AE5F"/>
<path d="M71.0782 12.4312L66.9929 14.8998C66.8758 14.9733 66.7513 15.0063 66.6195 14.999C66.4878 14.9917 66.3706 14.9512 66.2681 14.8778C66.1656 14.8043 66.0887 14.7088 66.0375 14.5912C65.9862 14.4737 65.9753 14.3414 66.0045 14.1945L67.0808 9.52186L63.4787 6.37003C63.3616 6.26717 63.292 6.1533 63.27 6.0284C63.2481 5.9035 63.2517 5.78228 63.281 5.66473C63.3103 5.54717 63.3762 5.44799 63.4787 5.36717C63.5812 5.28636 63.7057 5.2386 63.8521 5.22391L68.6182 4.80513L70.4632 0.396978C70.5218 0.264733 70.6096 0.16555 70.7268 0.0994274C70.8439 0.033305 70.9611 0.000244137 71.0782 0.000244137C71.1953 0.000244137 71.3125 0.033305 71.4296 0.0994274C71.5468 0.16555 71.6346 0.264733 71.6932 0.396978L73.5382 4.80513L78.3043 5.22391C78.4508 5.2386 78.5752 5.28636 78.6777 5.36717C78.7802 5.44799 78.8461 5.54717 78.8754 5.66473C78.9047 5.78228 78.9083 5.9035 78.8864 6.0284C78.8644 6.1533 78.7949 6.26717 78.6777 6.37003L75.0756 9.52186L76.1519 14.1945C76.1811 14.3414 76.1702 14.4737 76.1189 14.5912C76.0677 14.7088 75.9908 14.8043 75.8883 14.8778C75.7858 14.9512 75.6687 14.9917 75.5369 14.999C75.4051 15.0063 75.2806 14.9733 75.1635 14.8998L71.0782 12.4312Z" fill="#D9AE5F"/>
<path d="M92.1777 12.431L88.0924 14.8996C87.9753 14.973 87.8508 15.0061 87.719 14.9988C87.5873 14.9914 87.4701 14.951 87.3676 14.8775C87.2651 14.8041 87.1883 14.7085 87.137 14.591C87.0858 14.4734 87.0748 14.3412 87.1041 14.1943L88.1803 9.52162L84.5782 6.36979C84.4611 6.26693 84.3915 6.15305 84.3695 6.02815C84.3476 5.90326 84.3512 5.78203 84.3805 5.66448C84.4098 5.54693 84.4757 5.44775 84.5782 5.36693C84.6807 5.28611 84.8052 5.23836 84.9516 5.22367L89.7178 4.80489L91.5627 0.396734C91.6213 0.264489 91.7091 0.165306 91.8263 0.0991833C91.9434 0.0330609 92.0606 0 92.1777 0C92.2949 0 92.412 0.0330609 92.5291 0.0991833C92.6463 0.165306 92.7341 0.264489 92.7927 0.396734L94.6377 4.80489L99.4038 5.22367C99.5503 5.23836 99.6747 5.28611 99.7772 5.36693C99.8797 5.44775 99.9456 5.54693 99.9749 5.66448C100.004 5.78203 100.008 5.90326 99.9859 6.02815C99.9639 6.15305 99.8944 6.26693 99.7772 6.36979L96.1751 9.52162L97.2514 14.1943C97.2807 14.3412 97.2697 14.4734 97.2184 14.591C97.1672 14.7085 97.0903 14.8041 96.9878 14.8775C96.8853 14.951 96.7682 14.9914 96.6364 14.9988C96.5046 15.0061 96.3801 14.973 96.263 14.8996L92.1777 12.431Z" fill="#D9AE5F"/>
</svg>
