<svg width="41" height="45" viewBox="0 0 41 45" fill="none" xmlns="http://www.w3.org/2000/svg">
<g clip-path="url(#clip0_991_481)">
<path d="M25.3871 8.55309C25.99 8.82905 26.6265 8.95926 27.253 8.95926C28.9628 8.95926 30.6112 7.98949 31.39 6.34924C32.4554 4.10459 31.4948 1.44015 29.2514 0.410136C28.1623 -0.0893242 26.9388 -0.134023 25.8042 0.283813C24.6716 0.699706 23.7644 1.52761 23.2505 2.61398C22.7366 3.70035 22.6733 4.91694 23.0746 6.03635C23.4778 7.15965 24.3 8.05363 25.3891 8.55309H25.3871Z" fill="#291F69"/>
<path d="M12.0729 34.8144L12.7845 29.3748L17.0558 26.1798L16.0735 31.5903C15.9885 31.9343 15.9786 32.2841 16.0438 32.6339C16.0735 32.9449 16.1545 33.2422 16.2869 33.5182L19.0067 39.2377C19.3131 39.8829 19.8566 40.3726 20.5386 40.6156C20.841 40.7225 21.1533 40.7769 21.4656 40.7769C21.8569 40.7769 22.2463 40.6914 22.612 40.5242C23.2682 40.223 23.7663 39.6886 24.0134 39.0181C24.2604 38.3476 24.2268 37.6246 23.9205 36.9794L21.5446 31.9848L23.5548 23.9118L26.1481 18.4022L28.2373 25.7561C28.2413 25.7717 28.2472 25.7833 28.2531 25.7989C28.7255 26.996 30.034 27.6413 31.2358 27.2642C31.7497 27.101 32.1984 26.7745 32.4968 26.3392C32.8467 25.8261 33.0048 25.142 32.9317 24.4657C32.9277 24.4404 32.9238 24.4152 32.9159 24.3919L30.5005 15.9827C30.0558 14.3133 29.105 12.947 27.8242 12.1308C27.8064 12.1211 27.7886 12.1094 27.7689 12.1016L21.0979 9.04074C21.0801 9.03297 21.0604 9.0252 21.0406 9.01937C19.5819 8.57821 17.9058 8.73951 16.3284 9.47413L8.21461 13.0597C8.19089 13.0695 8.16915 13.0831 8.14741 13.0967C7.56827 13.4776 7.13738 14.0373 6.96542 14.63C6.81915 15.1353 6.85078 15.6834 7.05436 16.1751C7.53269 17.3236 8.87479 17.8969 10.1121 17.4791C10.126 17.4752 10.1398 17.4694 10.1517 17.4635L17.2278 14.3133L14.1878 20.6683L8.38855 26.1371C8.1316 26.378 7.93196 26.6695 7.79558 27.0038C7.65129 27.2778 7.55839 27.5713 7.51688 27.8784L6.6966 34.1381C6.60371 34.8436 6.79543 35.5452 7.23621 36.1088C7.67896 36.6724 8.31739 37.0338 9.03687 37.1252C10.5193 37.3117 11.8831 36.2798 12.0768 34.8222L12.0729 34.8144Z" fill="#291F69"/>
<path d="M37.632 38.6935H37.628C34.1216 38.9637 30.88 40.1394 27.7412 41.2744C21.5802 43.5054 15.7592 45.6141 8.71075 40.5534C8.40834 40.3377 7.98535 40.4018 7.76397 40.6991C7.54457 40.9965 7.6098 41.4143 7.91222 41.63C11.0688 43.898 14.2709 44.998 17.7022 44.998C21.3845 44.998 24.8554 43.7406 28.2136 42.524C31.2635 41.4182 34.4161 40.2755 37.7348 40.0209C38.1083 39.9937 38.387 39.6711 38.3574 39.3038C38.3277 38.9365 38.0075 38.6663 37.632 38.6916V38.6935Z" fill="#291F69"/>
<path d="M39.9841 34.8768C36.5251 34.0373 29.7672 33.8565 26.5612 34.8904C26.2054 35.0051 26.0117 35.3841 26.1283 35.7319C26.2212 36.006 26.4801 36.1906 26.7726 36.1906C26.8438 36.1906 26.915 36.1789 26.9861 36.1575C29.9885 35.1897 36.3748 35.3743 39.6599 36.1711C39.7153 36.1867 39.7706 36.1925 39.8259 36.1925C39.9485 36.1925 40.0671 36.1595 40.1738 36.0954C40.328 36.004 40.4387 35.8563 40.4822 35.6853C40.496 35.6309 40.5019 35.5784 40.5019 35.5259C40.5019 35.2266 40.2944 34.9526 39.988 34.8788L39.9841 34.8768Z" fill="#291F69"/>
<path d="M7.22237 21.9608L5.99689 19.8988C5.904 19.7453 5.75971 19.6364 5.58379 19.5898C5.40788 19.5431 5.22603 19.5684 5.06988 19.6598C4.7477 19.8463 4.63899 20.2544 4.82676 20.5712L6.05224 22.6332C6.17281 22.8373 6.39814 22.9636 6.63928 22.9636C6.75788 22.9636 6.87647 22.9305 6.98123 22.8722C7.30341 22.6857 7.41212 22.2775 7.22435 21.9608H7.22237Z" fill="#291F69"/>
<path d="M4.45723 24.1508L2.34427 23.0178C2.12487 22.8798 1.84222 22.8779 1.62085 23.012C1.30262 23.2063 1.20379 23.6183 1.40145 23.9312C1.4647 24.0284 1.54969 24.112 1.65247 24.1644L3.80299 25.3208C3.90181 25.3752 4.01646 25.4024 4.12912 25.4024C4.37817 25.4024 4.60745 25.2702 4.72407 25.0545C4.90394 24.7319 4.78139 24.3257 4.45526 24.1508H4.45723Z" fill="#291F69"/>
<path d="M3.16652 27.3422L0.664178 27.4005C0.55349 27.4043 0.442801 27.4335 0.341996 27.4879C0.18387 27.5754 0.0712054 27.7192 0.0237677 27.8902C-0.0256467 28.0612 -0.00192779 28.242 0.087018 28.3955C0.205612 28.6034 0.432919 28.7336 0.678014 28.7336C0.693826 28.7336 0.705686 28.7336 0.711615 28.7336L3.19815 28.6773C3.57172 28.6676 3.8682 28.3625 3.8603 27.9951C3.85634 27.8144 3.78124 27.6473 3.64683 27.5229C3.51637 27.4024 3.34244 27.3363 3.16454 27.3422H3.16652Z" fill="#291F69"/>
</g>
<defs>
<clipPath id="clip0_991_481">
<rect width="40.5" height="45" fill="white"/>
</clipPath>
</defs>
</svg>
