<svg width="46" height="43" viewBox="0 0 46 43" fill="none" xmlns="http://www.w3.org/2000/svg">
<g clip-path="url(#clip0_991_489)">
<path d="M8.01727 12.6791C9.94265 12.7763 11.5368 11.2495 11.5368 9.3602C11.5368 7.47094 10.0383 6.03687 8.19291 6.03687C6.34756 6.03687 4.74678 7.63224 4.85572 9.55023C4.9491 11.2251 6.332 12.5951 8.01949 12.6813L8.01727 12.6791Z" fill="#291F69"/>
<path d="M37.5072 12.6679C39.6193 12.8778 41.3891 11.119 41.1779 9.01977C41.0223 7.46638 39.7572 6.20908 38.192 6.0522C36.0798 5.84228 34.3101 7.60117 34.5213 9.70035C34.6769 11.2537 35.942 12.511 37.5072 12.6679Z" fill="#291F69"/>
<path d="M19.7986 21.754C19.9454 23.0887 21.0259 24.1692 22.3688 24.3216C24.1385 24.5227 25.6459 23.1483 25.6459 21.427C25.6459 19.8184 24.3297 18.5125 22.7134 18.5125C20.9881 18.5125 19.6052 19.9996 19.7986 21.754Z" fill="#291F69"/>
<path d="M22.2865 16.0532C22.5044 16.2698 22.8023 16.378 23.1158 16.3515C23.3693 16.3294 23.6027 16.2057 23.7806 16.0267L31.0886 8.76134C32.2069 7.65209 32.745 6.11859 32.5671 4.55636C32.3892 2.99413 31.5044 1.60867 30.1348 0.753532C28.5185 -0.254073 26.3485 -0.251864 24.7322 0.762371C24.014 1.21093 23.436 1.79649 23.018 2.48591C22.6022 1.79649 22.0197 1.21314 21.3038 0.762371C19.6875 -0.251864 17.5175 -0.254073 15.9012 0.753532C14.5316 1.60867 13.6467 2.99413 13.4689 4.55636C13.291 6.11859 13.8313 7.65209 14.9474 8.76134L22.2821 16.0532H22.2865Z" fill="#291F69"/>
<path d="M44.4684 41.1705H40.9756C41.3158 37.0008 41.6537 32.8334 41.9939 28.6638H41.9983C42.0028 28.6638 42.005 28.6638 42.0095 28.6638C42.0339 28.6638 42.0606 28.6594 42.0873 28.6594C42.1273 28.6594 42.1695 28.655 42.2118 28.6483C42.2518 28.6439 42.2896 28.6395 42.3296 28.6329C42.4096 28.6218 42.4897 28.6063 42.5697 28.5887C42.6031 28.582 42.6364 28.5732 42.6698 28.5644C42.7076 28.5555 42.7409 28.5445 42.7787 28.5334C42.8054 28.5268 42.8321 28.518 42.8588 28.5091C42.8966 28.4981 42.9321 28.4848 42.9699 28.4693C43.0277 28.4472 43.0855 28.4252 43.1411 28.3986C43.1656 28.3876 43.1923 28.3743 43.2189 28.3611C43.2812 28.3323 43.3412 28.2992 43.4012 28.2638C43.4279 28.2484 43.4524 28.2329 43.4791 28.2174C43.5369 28.1821 43.5925 28.1445 43.648 28.1048C43.7014 28.0672 43.7525 28.0274 43.8059 27.9854C43.8837 27.9213 43.9571 27.8551 44.0304 27.7843C44.6041 27.2143 44.9198 26.4563 44.9198 25.6498V17.5072C44.9198 15.8367 43.6591 14.48 42.1073 14.48H33.5964C32.2936 14.48 31.1597 15.4765 30.904 16.8399L28.9675 26.1404H25.9416C25.9127 26.1293 25.8838 26.1205 25.8527 26.1138C25.8149 26.1072 25.7837 26.105 25.7571 26.105C25.1323 25.8509 24.0518 25.5018 22.6711 25.5084C21.3282 25.515 20.2766 25.8531 19.6585 26.105C19.5918 26.105 19.5273 26.1183 19.4673 26.1426H16.3258L14.496 16.8509C14.2381 15.4765 13.1064 14.4822 11.8013 14.4822H4.58669C3.28383 14.4822 2.14994 15.4787 1.89426 16.8487L0.500245 24.0346C0.351283 24.8035 0.553604 25.5902 1.05385 26.1912C1.08498 26.2287 1.11833 26.2663 1.15167 26.3017C1.18502 26.3392 1.21837 26.3724 1.25395 26.4055C1.28507 26.4365 1.3162 26.463 1.34733 26.4917C1.35844 26.5005 1.36734 26.5094 1.37845 26.5182C1.40958 26.5447 1.44071 26.569 1.47183 26.5933C1.50963 26.6243 1.54965 26.6508 1.58744 26.6773C1.62524 26.7038 1.66304 26.7281 1.70083 26.7524C1.85202 26.8452 2.01432 26.9248 2.18329 26.9845C2.21442 26.9955 2.24777 27.0065 2.27889 27.0154C2.34559 27.0375 2.41452 27.0552 2.48566 27.0728L1.69639 31.1519C1.66748 31.2977 1.7075 31.4502 1.80088 31.5651C1.89648 31.68 2.03878 31.7463 2.18774 31.7463H4.58447L5.26702 41.1793H0.920451C0.411312 41.1793 0 41.5881 0 42.0941C0 42.6001 0.411312 43.0089 0.920451 43.0089H44.4684C44.9776 43.0089 45.3889 42.6001 45.3889 42.0941C45.3889 41.5881 44.9776 41.1793 44.4684 41.1793V41.1705ZM10.9165 41.1705L10.9631 40.3109V40.28L11.5812 31.7374H13.9757C14.1247 31.7374 14.267 31.6711 14.3626 31.5562C14.4582 31.4413 14.496 31.2911 14.4693 31.143L13.7578 27.475L13.6911 27.1325H13.6867L13.5466 26.4431L12.1371 19.5224C12.0815 19.2484 12.2616 18.9811 12.5372 18.9258C12.8129 18.8684 13.082 19.0474 13.1375 19.3213L13.5933 21.5619L14.7272 27.1325H14.7228L14.7695 27.3424L14.9095 27.981C14.9807 28.3699 15.3253 28.6527 15.7233 28.6505C16.8727 28.6439 18.0088 28.6373 19.136 28.6307L19.1472 29.2715L19.1316 34.621C19.1316 34.6409 19.136 34.6608 19.136 34.6829L20.0231 41.1683H10.912L10.9165 41.1705ZM25.3635 41.1705V41.1528L26.2506 34.6895C26.2506 34.6652 26.2551 34.6409 26.2551 34.6166V29.3046C26.2551 29.3046 26.2551 29.298 26.2551 29.2958V28.5909C27.6936 28.582 29.1409 28.5732 30.6128 28.5666C31.2464 28.5666 31.7978 28.1357 31.949 27.528L31.9534 27.517C31.9601 27.4927 31.9645 27.4706 31.9712 27.4463L32.029 27.1347V27.1192L33.1207 21.5509C33.174 21.2791 33.4364 21.1045 33.7098 21.1554C33.9833 21.2084 34.1589 21.4713 34.1056 21.7409L33.2429 26.147L33.0495 27.1347L32.9295 27.7468C33.303 32.2213 33.672 36.6959 34.0433 41.1727H25.3635V41.1705Z" fill="#291F69"/>
</g>
<defs>
<clipPath id="clip0_991_489">
<rect width="45.3889" height="43" fill="white"/>
</clipPath>
</defs>
</svg>
