<svg width="45" height="40" viewBox="0 0 45 40" fill="none" xmlns="http://www.w3.org/2000/svg">
<g clip-path="url(#clip0_991_495)">
<path d="M43.5222 10.1399L35.2785 1.43409C34.4157 0.521552 33.2022 0.000101788 31.9483 0.000101788H27.5184C27.2979 0.000101788 27.1202 0.18735 27.1368 0.407781C27.1368 0.412522 27.1368 0.414892 27.1368 0.419632L27.1889 0.936343L27.5539 4.53672L24.2332 9.07097C24.1455 9.18948 24.1313 9.34592 24.1906 9.47628L26.5229 14.5035L26.0133 15.198L25.2927 16.1817L22.3868 20.1352L23.5577 16.1817L23.8493 15.198L24.1005 14.3447C24.1384 14.2215 24.1124 14.0887 24.0341 13.9868L21.735 10.9885L23.1477 4.85907C23.1595 4.80219 23.1619 4.74056 23.1477 4.68131L22.3039 0.874717L22.1735 0.29401C22.1356 0.118613 21.9815 -0.00463867 21.8014 -0.00463867H12.1854C10.9315 -0.00463867 9.71557 0.516812 8.85518 1.42935L0.61863 10.1399C0.220431 10.5618 0 11.1141 0 11.6924V13.9228C0 15.1198 0.938611 16.1058 2.12136 16.1769H13.1334C13.1524 16.1793 13.1761 16.1817 13.1951 16.1817H16.2811C16.6414 16.2243 16.9211 16.5277 16.9211 16.8998C16.9211 17.298 16.5987 17.6228 16.1982 17.6228H3.03152V39.5071C3.03152 39.7797 3.25196 39.9977 3.52216 39.9977H40.6186C40.8912 39.9977 41.1093 39.7773 41.1093 39.5071V16.1817H41.8796C43.1263 16.1817 44.1384 15.1696 44.1384 13.9228V11.6948C44.1384 11.4056 44.0839 11.1236 43.9772 10.8605C43.873 10.5974 43.7189 10.3533 43.5198 10.1423L43.5222 10.1399ZM31.498 35.7029H37.388C37.7862 35.7029 38.1109 36.0252 38.1109 36.4258C38.1109 36.8264 37.7862 37.1487 37.388 37.1487H31.498C31.0998 37.1487 30.7751 36.824 30.7751 36.4258C30.7751 36.0276 31.0998 35.7029 31.498 35.7029ZM28.7675 29.6066C28.3693 29.6066 28.0446 29.2843 28.0446 28.8837C28.0446 28.4832 28.3693 28.1608 28.7675 28.1608H32.2683V19.4976C32.2683 19.097 32.5907 18.7747 32.9912 18.7747C33.3918 18.7747 33.7142 19.097 33.7142 19.4976V28.8837C33.7142 29.2843 33.3894 29.6066 32.9912 29.6066H28.7675ZM17.4591 39.0165H11.2325V27.8171C11.2325 27.1914 11.7421 26.6818 12.3702 26.6818H16.3238C16.9519 26.6818 17.4615 27.1914 17.4615 27.8171V39.0165H17.4591Z" fill="#291F69"/>
</g>
<defs>
<clipPath id="clip0_991_495">
<rect width="44.1408" height="40" fill="white"/>
</clipPath>
</defs>
</svg>
