<svg width="48" height="48" viewBox="0 0 48 48" fill="none" xmlns="http://www.w3.org/2000/svg">
<path d="M44.6962 18.1468L24.4468 3.14721C24.3175 3.0516 24.1609 3 24 3C23.8392 3 23.6826 3.0516 23.5533 3.14721L3.30385 18.1468C3.1443 18.2654 3.03833 18.4425 3.00924 18.6391C2.98015 18.8358 3.0303 19.036 3.14868 19.1957C3.26706 19.3554 3.444 19.4616 3.64062 19.491C3.83725 19.5203 4.0375 19.4705 4.19738 19.3523L24 4.68342L43.8027 19.3523C43.9625 19.4705 44.1628 19.5203 44.3594 19.491C44.556 19.4616 44.733 19.3554 44.8514 19.1957C44.9697 19.036 45.0199 18.8358 44.9908 18.6391C44.9617 18.4425 44.8557 18.2654 44.6962 18.1468Z" fill="#291F69"/>
<path d="M41.2499 5.25098C41.2493 5.05224 41.1701 4.86181 41.0296 4.72128C40.8891 4.58075 40.6987 4.50155 40.4999 4.50098H34.5001C34.3014 4.50155 34.111 4.58075 33.9704 4.72128C33.8299 4.86181 33.7507 5.05224 33.7501 5.25098V8.16836L41.2499 13.7257L41.2499 5.25098Z" fill="#291F69"/>
<path d="M18.7507 29.3555H29.2507V44.9997H18.7507V29.3555Z" fill="#291F69"/>
<path d="M34.1851 14.0935C34.0844 14.0182 33.9652 13.9716 33.8401 13.9585L27.0828 13.051L28.6878 10.9811C28.8089 10.8219 28.862 10.6211 28.8352 10.4229C28.8085 10.2246 28.7043 10.0451 28.5453 9.92361L24.4504 6.88623C24.3211 6.78836 24.1638 6.73478 24.0017 6.73342C23.8395 6.73207 23.6813 6.78303 23.5505 6.87873L7.05094 19.0959C6.95141 19.1718 6.87203 19.271 6.81973 19.3848C6.76743 19.4985 6.74381 19.6234 6.75094 19.7484L7.15594 26.3557C7.16574 26.5069 7.22115 26.6517 7.31487 26.7709C7.40859 26.89 7.53622 26.978 7.68094 27.0232L11.7158 28.2682L7.77844 33.788C7.67315 33.9306 7.62258 34.1062 7.63594 34.283L7.89844 38.5354C7.90628 38.6448 7.93781 38.7512 7.99085 38.8473C8.0439 38.9433 8.11719 39.0267 8.20565 39.0916C8.29411 39.1565 8.39562 39.2015 8.50316 39.2232C8.61069 39.245 8.72168 39.2432 8.82844 39.2179L9.83339 38.9629L8.28089 40.4704C8.20296 40.5455 8.14243 40.6369 8.10356 40.7379C8.06469 40.839 8.04842 40.9473 8.05589 41.0554L8.25089 44.2953C8.26206 44.4864 8.34602 44.666 8.48552 44.7971C8.62501 44.9282 8.80944 45.0009 9.00089 45.0003H17.2506V28.6056C17.2512 28.4068 17.3304 28.2164 17.4709 28.0759C17.6115 27.9353 17.8019 27.8561 18.0006 27.8556H30.0002C30.199 27.8561 30.3894 27.9353 30.5299 28.0759C30.6705 28.2164 30.7497 28.4068 30.7502 28.6056V45.0001H40.4999C40.6987 44.9995 40.8891 44.9203 41.0296 44.7798C41.1702 44.6393 41.2494 44.4488 41.2499 44.2501V41.7002C41.2491 41.5287 41.191 41.3624 41.0849 41.2277L39.4125 39.1577L40.98 37.8678C41.065 37.7975 41.1332 37.7093 41.1799 37.6094C41.2266 37.5096 41.2506 37.4006 41.25 37.2903V19.7034C41.2503 19.585 41.2226 19.4683 41.1692 19.3627C41.1157 19.2571 41.0381 19.1657 40.9425 19.0959L34.1851 14.0935Z" fill="#291F69"/>
</svg>
