<svg width="44" height="44" viewBox="0 0 44 44" fill="none" xmlns="http://www.w3.org/2000/svg">
<g clip-path="url(#clip0_1816_907)">
<path d="M13.365 36.1416L12.21 39.285H31.8843L30.8079 36.1416H13.365Z" fill="#291F69"/>
<path d="M43.8822 26.7507C43.6936 26.0356 43.3007 25.399 42.7507 24.9118C41.195 23.6152 39.4429 22.0749 38.5864 21.2183H41.0693C42.2479 21.2183 43.2064 20.2674 43.2064 19.0886C43.2064 17.9099 42.2557 16.9511 41.0772 16.9511C41.0772 16.9511 41.0772 16.9511 41.0693 16.9511C39.8907 17.014 37.6986 16.6839 36.7086 17.4383C36.0093 15.678 35.1686 13.5248 34.5243 11.8588C33.9743 10.5228 32.725 9.59551 31.2872 9.46191C31.2007 9.98844 31.0672 10.5071 30.8864 11.01C31.8293 11.01 32.6857 11.568 33.055 12.4403C33.2593 12.9983 36.5357 21.1083 36.5986 21.2183H7.39359C7.45644 21.1083 10.7172 13.0218 10.9293 12.4639C11.2907 11.5837 12.155 11.0022 13.1057 11.01H13.1136C12.9329 10.5071 12.7993 9.98844 12.7129 9.46191C11.2672 9.60337 10.0179 10.5307 9.46787 11.8745C8.83144 13.5326 7.99073 15.678 7.29144 17.4383C6.3093 16.6761 4.08573 17.0218 2.93073 16.9511C1.75216 16.9668 0.809302 17.9334 0.825016 19.1044C0.840731 20.2674 1.77573 21.2026 2.93073 21.2104H5.41359C4.5493 22.0749 2.79716 23.6152 1.21002 24.9433C0.683588 25.4226 0.306445 26.0513 0.125731 26.7429C-0.102126 26.9393 0.0550164 34.8686 0.0157307 35.348C0.0157307 36.9118 0.935016 38.3264 2.36502 38.955C2.86002 39.1672 3.3943 39.2772 3.93644 39.2772H10.5364L12.0764 35.0808C12.1864 34.7664 12.485 34.5621 12.815 34.5621H31.3657C31.7036 34.5621 32.0022 34.7743 32.1122 35.0965L33.5422 39.2772H40.0636C40.6057 39.2772 41.14 39.1672 41.635 38.955C43.065 38.3264 43.9922 36.9118 43.9922 35.348C43.945 34.845 44.0943 26.955 43.8822 26.7429V26.7507ZM12.1707 31.0179C12.0372 31.2772 11.77 31.4344 11.4793 31.4344H6.29359C4.12502 31.4344 2.36502 29.6741 2.36502 27.5051C2.36502 27.0729 2.71859 26.7193 3.15073 26.7193H9.38144C9.64073 26.7193 9.8843 26.8529 10.0336 27.0651L12.1314 30.2085C12.2964 30.4521 12.3122 30.7586 12.1707 31.0179ZM31.4993 27.9452L29.4093 31.0886C29.26 31.3008 29.0164 31.4344 28.7572 31.4344H15.2507C14.9914 31.4344 14.7479 31.3008 14.5986 31.0886L12.5007 27.9452C12.2572 27.5837 12.3593 27.0886 12.7207 26.8529C12.8464 26.7664 12.9957 26.7193 13.1529 26.7193H30.8472C31.2872 26.7193 31.6329 27.0808 31.6329 27.5209C31.6329 27.6702 31.5857 27.8195 31.4993 27.9452ZM37.7064 31.4344H32.5207C32.0807 31.4265 31.735 31.0651 31.7429 30.625C31.7429 30.4757 31.79 30.3342 31.8686 30.2085L33.9664 27.0651C34.1157 26.8529 34.3593 26.7193 34.6186 26.7193H40.8493C41.2814 26.7193 41.635 27.0729 41.635 27.5051C41.635 29.6741 39.875 31.4344 37.7064 31.4344Z" fill="#291F69"/>
<path d="M0.801453 39.874V41.6422C0.801453 42.9389 1.85431 43.9919 3.1586 43.9998H7.87288C9.16931 43.9998 10.2222 42.9467 10.23 41.6422V40.8563H3.94431C2.82074 40.8563 1.72074 40.5184 0.801453 39.874Z" fill="#291F69"/>
<path d="M33.7778 40.8563V41.6422C33.7778 42.9389 34.8307 43.9919 36.135 43.9998H40.8493C42.1457 43.9998 43.1985 42.9467 43.2064 41.6422V39.874C42.2871 40.5184 41.1871 40.8563 40.0635 40.8563H33.7778Z" fill="#291F69"/>
<path d="M19.6979 6.56934C19.1007 6.56934 18.6765 7.00941 18.6765 7.59881C18.6765 8.1882 19.1007 8.62042 19.6979 8.62042C20.295 8.62042 20.7743 8.18034 21.2143 7.59881C20.7743 7.00156 20.2793 6.56934 19.6979 6.56934Z" fill="#291F69"/>
<path d="M24.5379 6.56934C23.9565 6.56934 23.4615 7.00941 23.0215 7.59881C23.4615 8.18034 23.9565 8.62042 24.5379 8.62042C25.1193 8.62042 25.5593 8.18034 25.5593 7.59881C25.5593 7.01727 25.1351 6.56934 24.5379 6.56934Z" fill="#291F69"/>
<path d="M22 0C17.6629 0 14.1429 3.52063 14.1429 7.85855C14.1429 12.1965 17.6629 15.7092 22 15.7171C26.3372 15.7171 29.8572 12.1965 29.8572 7.85855C29.8572 3.52063 26.3372 0 22 0ZM24.5929 10.0118C23.5636 10.0118 22.7386 9.35953 22.1179 8.69941C21.4972 9.36739 20.6722 10.0118 19.6272 10.0118C18.2286 10.0118 17.1679 9.02161 17.1679 7.60707C17.1679 6.19253 18.2286 5.20236 19.6272 5.20236C20.6722 5.20236 21.4972 5.85462 22.1179 6.51473C22.7386 5.84676 23.5636 5.20236 24.5929 5.20236C26.0072 5.20236 27.0679 6.17682 27.0679 7.60707C27.0679 9.03733 26.0072 10.0118 24.5929 10.0118Z" fill="#291F69"/>
</g>
<defs>
<clipPath id="clip0_1816_907">
<rect width="44" height="44" fill="white"/>
</clipPath>
</defs>
</svg>
