<svg width="50" height="50" viewBox="0 0 50 50" fill="none" xmlns="http://www.w3.org/2000/svg">
<path d="M25.0006 18.7547C28.4771 17.8797 31.9927 15.6141 31.9927 11.7626L31.9302 6.10645C31.9293 5.94704 31.8793 5.79177 31.7871 5.66177C31.6948 5.53177 31.5648 5.43334 31.4146 5.37989L25.2662 3.17676C25.0947 3.11426 24.9066 3.11426 24.735 3.17676L18.5867 5.37989C18.4365 5.43334 18.3064 5.53176 18.2141 5.66176C18.1219 5.79177 18.0719 5.94704 18.071 6.10645L18.0085 11.7704C18.0086 15.6141 21.5319 17.8875 25.0006 18.7547ZM21.9851 10.3876C22.1326 10.2412 22.3319 10.1591 22.5398 10.1591C22.7476 10.1591 22.9469 10.2412 23.0944 10.3876L24.1804 11.4814L26.9069 8.74704C27.054 8.59993 27.2535 8.51728 27.4616 8.51728C27.6696 8.51728 27.8692 8.59993 28.0163 8.74704C28.1634 8.89415 28.246 9.09368 28.246 9.30172C28.246 9.50977 28.1634 9.7093 28.0163 9.85641L24.7351 13.1376C24.587 13.2828 24.3878 13.3642 24.1804 13.3642C23.973 13.3642 23.7738 13.2828 23.6257 13.1376L21.9851 11.497C21.8387 11.3495 21.7566 11.1501 21.7566 10.9423C21.7566 10.7345 21.8387 10.5351 21.9851 10.3876Z" fill="#291F69"/>
<path d="M16.4125 39.0615L15.2648 42.185H34.8242L33.7539 39.0615H16.4125Z" fill="#291F69"/>
<path d="M46.758 29.7233C46.572 29.0161 46.1805 28.38 45.633 27.8952C44.0862 26.6062 42.344 25.0749 41.4925 24.2234H43.9612C44.2408 24.2251 44.518 24.1715 44.7768 24.0657C45.0357 23.9598 45.271 23.8039 45.4694 23.6067C45.6677 23.4096 45.8251 23.1752 45.9325 22.917C46.0399 22.6589 46.0952 22.382 46.0952 22.1024C46.0952 21.8227 46.0399 21.5459 45.9325 21.2877C45.8251 21.0295 45.6677 20.7951 45.4694 20.598C45.271 20.4008 45.0357 20.2449 44.7768 20.1391C44.518 20.0332 44.2408 19.9796 43.9612 19.9813C42.7893 20.0438 40.6096 19.7157 39.6253 20.4657C38.93 18.7157 38.0941 16.5751 37.4534 14.9189C37.1578 14.2054 36.6569 13.5959 36.0143 13.1675C35.3717 12.7391 34.6164 12.5112 33.8441 12.5127H33.516C33.4649 13.0441 33.3548 13.5681 33.1879 14.0752H33.8441C34.3041 14.0714 34.7547 14.2046 35.1387 14.4578C35.5227 14.711 35.8227 15.0728 36.0004 15.497C36.2035 16.0517 39.4613 24.1141 39.5238 24.2235H10.4774C10.5399 24.1141 13.7821 16.0752 13.9929 15.5205C14.168 15.0909 14.4677 14.7237 14.8534 14.4661C15.2391 14.2085 15.6932 14.0723 16.157 14.0752H16.8054C16.6374 13.5688 16.5299 13.0443 16.4851 12.5127H16.157C15.3819 12.5121 14.6241 12.7421 13.98 13.1733C13.3359 13.6046 12.8346 14.2176 12.5398 14.9345C11.907 16.5829 11.0711 18.7157 10.3758 20.4656C9.39928 19.7078 7.18838 20.0516 6.03994 19.9813C5.48151 19.9875 4.94808 20.2137 4.5554 20.6108C4.16273 21.0079 3.94249 21.5438 3.94249 22.1023C3.94249 22.6608 4.16273 23.1967 4.5554 23.5938C4.94808 23.9909 5.48151 24.2171 6.03994 24.2234H8.50869C7.64932 25.0827 5.90713 26.6139 4.32905 27.9342C3.80381 28.4134 3.42923 29.035 3.25093 29.7233C3.02436 29.9186 3.18061 37.8013 3.14155 38.2778C3.13953 39.038 3.35949 39.7823 3.77443 40.4193C4.18938 41.0563 4.78125 41.5582 5.47743 41.8636C5.97139 42.0745 6.50285 42.1835 7.03993 42.184H13.6023L15.1336 38.0121C15.1883 37.8612 15.2882 37.7309 15.4195 37.6386C15.5509 37.5464 15.7074 37.4968 15.868 37.4965H34.3129C34.4767 37.4961 34.6364 37.5472 34.7696 37.6425C34.9028 37.7378 35.0027 37.8726 35.0551 38.0278L36.477 42.1839H42.9612C43.4983 42.1834 44.0298 42.0745 44.5237 41.8636C45.2199 41.5573 45.812 41.0554 46.2281 40.4187C46.6442 39.7821 46.8663 39.0383 46.8675 38.2778C46.8205 37.7778 46.9689 29.9342 46.758 29.7233ZM15.2273 33.9654C15.162 34.091 15.0632 34.1962 14.9419 34.2692C14.8206 34.3423 14.6814 34.3804 14.5398 34.3794H9.38368C8.34782 34.3791 7.3545 33.9674 6.62203 33.2349C5.88956 32.5025 5.47789 31.5092 5.4775 30.4733C5.47811 30.2663 5.56061 30.0679 5.707 29.9215C5.85338 29.7752 6.05174 29.6927 6.25875 29.692H12.4539C12.5818 29.6926 12.7076 29.7241 12.8205 29.784C12.9335 29.8439 13.0302 29.9303 13.1024 30.0358L15.1883 33.1607C15.2688 33.278 15.315 33.4154 15.3219 33.5575C15.3288 33.6996 15.2961 33.8408 15.2273 33.9654ZM34.4458 30.9108L32.3676 34.0357C32.2955 34.1412 32.1987 34.2276 32.0858 34.2875C31.9728 34.3474 31.847 34.3789 31.7192 34.3794H18.2897C18.1619 34.3789 18.0361 34.3474 17.9232 34.2875C17.8102 34.2276 17.7135 34.1412 17.6414 34.0357L15.5554 30.9108C15.4771 30.7929 15.4322 30.6561 15.4253 30.5148C15.4184 30.3735 15.4499 30.233 15.5163 30.1081C15.5828 29.9832 15.6818 29.8786 15.8028 29.8053C15.9238 29.7321 16.0624 29.6929 16.2039 29.692H33.7973C33.9386 29.6933 34.0769 29.7328 34.1977 29.8061C34.3185 29.8794 34.4173 29.984 34.4836 30.1087C34.55 30.2335 34.5815 30.3738 34.5748 30.5149C34.5682 30.6561 34.5236 30.7928 34.4458 30.9108ZM40.6175 34.3794H35.4613C35.3207 34.3765 35.1834 34.3362 35.0635 34.2625C34.9437 34.1888 34.8457 34.0845 34.7796 33.9603C34.7135 33.8361 34.6818 33.6965 34.6876 33.556C34.6935 33.4154 34.7367 33.279 34.8129 33.1607L36.8988 30.0358C36.971 29.9303 37.0677 29.8439 37.1806 29.784C37.2936 29.7241 37.4194 29.6926 37.5472 29.692H43.7424C43.9494 29.6927 44.1478 29.7752 44.2942 29.9215C44.4406 30.0679 44.5231 30.2663 44.5237 30.4733C44.5233 31.5092 44.1116 32.5025 43.3791 33.235C42.6467 33.9674 41.6534 34.3791 40.6175 34.3794Z" fill="#291F69"/>
<path d="M3.91962 42.7705V44.5273C3.92144 45.148 4.16881 45.7427 4.60771 46.1816C5.0466 46.6205 5.64135 46.8679 6.26204 46.8697H10.9469C11.5676 46.8679 12.1623 46.6205 12.6012 46.1816C13.0401 45.7427 13.2875 45.148 13.2893 44.5273V43.7465H7.04284C5.92618 43.75 4.83558 43.4092 3.91962 42.7705Z" fill="#291F69"/>
<path d="M36.7134 43.7465V44.5273C36.7153 45.148 36.9626 45.7427 37.4015 46.1816C37.8404 46.6205 38.4352 46.8679 39.0559 46.8697H43.7407C44.3614 46.8679 44.9561 46.6205 45.395 46.1816C45.8339 45.7427 46.0813 45.148 46.0831 44.5273V42.7705C45.1666 43.408 44.0764 43.7487 42.9599 43.7465H36.7134Z" fill="#291F69"/>
</svg>
