<svg width="50" height="50" viewBox="0 0 50 50" fill="none" xmlns="http://www.w3.org/2000/svg">
<path d="M44.8767 22.8058C45.0363 22.9273 45.2371 22.9815 45.4361 22.9569C45.6352 22.9323 45.8168 22.8309 45.942 22.6743C46.0673 22.5176 46.1264 22.3183 46.1067 22.1187C46.087 21.9191 45.99 21.7351 45.8365 21.606L25.1047 5.02013C24.9682 4.91162 24.7991 4.85254 24.6248 4.85254C24.4504 4.85254 24.2813 4.91162 24.1449 5.02013L3.413 21.6061C3.33401 21.669 3.26822 21.7469 3.21938 21.8353C3.17054 21.9237 3.13962 22.0209 3.12837 22.1213C3.11713 22.2217 3.12579 22.3233 3.15385 22.4203C3.18192 22.5173 3.22884 22.6078 3.29193 22.6867C3.35502 22.7656 3.43305 22.8312 3.52154 22.8799C3.61004 22.9286 3.70726 22.9593 3.80766 22.9704C3.90805 22.9815 4.00964 22.9726 4.10661 22.9444C4.20358 22.9161 4.29403 22.8691 4.37279 22.8058L24.6247 6.60304L44.8767 22.8058Z" fill="#291F69"/>
<path d="M23.4577 31.4492H16.5778C16.3743 31.4498 16.1794 31.5309 16.0355 31.6748C15.8916 31.8186 15.8105 32.0136 15.8099 32.2171V43.9497H24.2255V32.2171C24.2249 32.0136 24.1438 31.8186 24 31.6748C23.8561 31.5309 23.6611 31.4498 23.4577 31.4492Z" fill="#291F69"/>
<path d="M46.5851 31.0502C46.5053 30.6355 46.4355 30.0846 45.9555 29.9522L38.661 27.6026L38.3845 27.5104C38.0638 27.3585 37.4333 27.6976 37.1253 27.7638L30.3452 29.9522C29.8614 30.0837 29.7895 30.6271 29.7079 31.0502C28.7864 35.6496 30.0995 39.865 33.0941 42.4143C33.8205 43.0346 34.6293 43.5514 35.4974 43.95C36.354 44.4031 37.2388 44.8007 38.1465 45.1403C38.2555 45.2619 40.8469 43.8822 41.0105 43.8426C45.5179 41.6772 47.7062 36.6555 46.5851 31.0502ZM41.7631 35.0354L37.6244 38.721C37.478 38.8506 37.2878 38.9196 37.0923 38.9139C36.8969 38.9082 36.711 38.8283 36.5724 38.6903L34.5069 36.6248C34.3631 36.4798 34.2823 36.2838 34.2823 36.0796C34.2823 35.8754 34.3631 35.6794 34.5069 35.5344C34.578 35.4632 34.6623 35.4068 34.7552 35.3682C34.8481 35.3297 34.9477 35.3098 35.0483 35.3098C35.1488 35.3098 35.2484 35.3297 35.3413 35.3682C35.4342 35.4068 35.5186 35.4632 35.5896 35.5344L37.1483 37.0931L40.7418 33.8912C40.8943 33.7611 41.0917 33.6958 41.2917 33.7093C41.4917 33.7229 41.6785 33.8142 41.812 33.9638C41.9455 34.1134 42.0152 34.3093 42.006 34.5095C41.9969 34.7098 41.9097 34.8986 41.7631 35.0354Z" fill="#291F69"/>
<path d="M28.203 30.7502C28.2274 30.2464 28.402 29.7614 28.7044 29.3577C29.0069 28.954 29.4232 28.6501 29.8999 28.4851L37.4324 26.051C37.8287 25.9161 38.2558 25.9 38.661 26.0049V21.9814L40.7265 23.6323C40.8856 23.7561 41.0871 23.8123 41.2874 23.7887C41.4877 23.7651 41.6706 23.6637 41.7967 23.5063C41.9228 23.349 41.9819 23.1483 41.9612 22.9477C41.9405 22.7471 41.8418 22.5627 41.6862 22.4344L25.1009 9.16601C24.9657 9.05792 24.7978 8.99902 24.6248 8.99902C24.4518 8.99902 24.2839 9.05792 24.1487 9.16601L7.5633 22.4344C7.4074 22.5626 7.30829 22.7471 7.28744 22.9479C7.26658 23.1486 7.32566 23.3496 7.45187 23.5071C7.57809 23.6646 7.76128 23.7661 7.96177 23.7895C8.16227 23.813 8.36392 23.7565 8.52306 23.6323L10.5885 21.9814V40.9856C10.6295 41.8096 10.9949 42.5838 11.6049 43.1392C12.215 43.6945 13.0201 43.9859 13.8442 43.9495H14.2742V32.2168C14.276 31.6064 14.5193 31.0215 14.9509 30.5899C15.3825 30.1583 15.9674 29.915 16.5778 29.9132H23.4577C24.0681 29.915 24.6529 30.1583 25.0845 30.5899C25.5162 31.0215 25.7594 31.6064 25.7612 32.2168V43.9495H32.5567C28.7449 41.0295 27.1482 36.0594 28.203 30.7502Z" fill="#291F69"/>
</svg>
