<svg width="50" height="50" viewBox="0 0 50 50" fill="none" xmlns="http://www.w3.org/2000/svg">
<path d="M45.701 25.8068H30.6124C30.48 25.8053 30.3501 25.7709 30.2342 25.7069C30.1184 25.6428 30.0202 25.551 29.9486 25.4397L28.4334 23.0186L22.209 32.3593C22.1228 32.4824 22.0033 32.5785 21.8646 32.6364C21.7259 32.6943 21.5736 32.7116 21.4254 32.6862C21.2772 32.6608 21.1393 32.5938 21.0278 32.4931C20.9163 32.3923 20.8356 32.2619 20.7954 32.1171L17.8589 20.3633L15.3519 25.3772C15.2887 25.5074 15.1898 25.6168 15.0667 25.6929C14.9436 25.7689 14.8015 25.8084 14.6568 25.8068H4.30875C4.1038 25.8101 3.90837 25.8938 3.76461 26.0399C3.62084 26.1861 3.54028 26.3828 3.54028 26.5878C3.54029 26.7928 3.62087 26.9895 3.76464 27.1356C3.90841 27.2817 4.10385 27.3655 4.3088 27.3688H6.56583C12.431 36.3735 23.9115 44.4567 24.5597 44.9097C24.6902 45.0012 24.8456 45.0503 25.0049 45.0503C25.1642 45.0503 25.3197 45.0012 25.4501 44.9097C26.0983 44.4567 37.5788 36.3735 43.444 27.3688H45.701C45.9059 27.3653 46.1012 27.2815 46.2449 27.1354C46.3885 26.9894 46.4691 26.7927 46.4691 26.5878C46.4691 26.3829 46.3886 26.1862 46.2449 26.0401C46.1012 25.894 45.9059 25.8102 45.701 25.8068Z" fill="#E6E4FF"/>
<path d="M14.1726 24.2453L17.4059 17.7787C17.4772 17.6355 17.5905 17.5175 17.7308 17.4406C17.8711 17.3638 18.0315 17.3317 18.1905 17.3487C18.3496 17.3657 18.4996 17.431 18.6204 17.5358C18.7412 17.6406 18.8271 17.7799 18.8664 17.9349L21.8888 30.0246L27.8008 21.1447C27.8738 21.0372 27.9723 20.9493 28.0875 20.8891C28.2027 20.829 28.3311 20.7983 28.4611 20.7998C28.5911 20.8014 28.7186 20.8351 28.8324 20.898C28.9461 20.9609 29.0425 21.0511 29.1129 21.1604L31.0419 24.2453H45.2325C46.2851 22.217 46.8468 19.9699 46.8725 17.685C46.7339 6.47163 33.2273 0.932935 25.0049 8.39916C13.8768 -1.20677 -2.0711 10.9304 4.77743 24.2453L14.1726 24.2453Z" fill="#E6E4FF"/>
</svg>
