<svg width="50" height="50" viewBox="0 0 50 50" fill="none" xmlns="http://www.w3.org/2000/svg">
<path d="M35.3836 32.8115C33.9928 32.8115 32.6333 33.2239 31.4769 33.9966C30.3206 34.7692 29.4193 35.8675 28.8871 37.1523C28.3549 38.4372 28.2156 39.8511 28.4869 41.2151C28.7582 42.5791 29.428 43.8321 30.4114 44.8155C31.3948 45.7989 32.6477 46.4686 34.0117 46.7399C35.3758 47.0112 36.7896 46.872 38.0745 46.3398C39.3594 45.8075 40.4576 44.9063 41.2302 43.7499C42.0029 42.5935 42.4153 41.234 42.4153 39.8433C42.4138 37.9788 41.6725 36.1911 40.3541 34.8727C39.0357 33.5543 37.248 32.813 35.3836 32.8115ZM38.6651 38.5697L35.0242 42.2184C34.9514 42.2912 34.8649 42.3487 34.7697 42.3876C34.6744 42.4265 34.5723 42.446 34.4694 42.445C34.2619 42.4456 34.0625 42.3642 33.9147 42.2184L32.0943 40.398C31.9479 40.2505 31.8658 40.0511 31.8658 39.8432C31.8658 39.6354 31.9479 39.436 32.0943 39.2885C32.1666 39.2161 32.2524 39.1586 32.3469 39.1194C32.4414 39.0802 32.5428 39.06 32.6451 39.06C32.7474 39.06 32.8488 39.0802 32.9433 39.1194C33.0378 39.1586 33.1236 39.2161 33.1959 39.2885L34.4694 40.5621L37.5634 37.4681C37.6357 37.3956 37.7216 37.3382 37.8161 37.299C37.9106 37.2598 38.0119 37.2396 38.1142 37.2396C38.2166 37.2396 38.3179 37.2598 38.4124 37.299C38.5069 37.3382 38.5928 37.3956 38.6651 37.4681C38.7392 37.5394 38.7981 37.6249 38.8384 37.7196C38.8787 37.8142 38.8995 37.916 38.8995 38.0189C38.8995 38.1218 38.8787 38.2236 38.8384 38.3182C38.7981 38.4129 38.7392 38.4984 38.6651 38.5697Z" fill="#291F69"/>
<path d="M26.9298 41.4055H12.6475C12.4403 41.4055 12.2416 41.3232 12.0951 41.1766C11.9485 41.0301 11.8662 40.8314 11.8662 40.6242C11.8662 40.417 11.9485 40.2182 12.0951 40.0717C12.2416 39.9252 12.4403 39.8429 12.6475 39.8429H26.7891C26.7884 39.3188 26.8355 38.7958 26.9298 38.2803H15.7728C15.5656 38.2803 15.3669 38.198 15.2203 38.0514C15.0738 37.9049 14.9915 37.7062 14.9915 37.499C14.9915 37.2917 15.0738 37.093 15.2203 36.9465C15.3669 36.8 15.5656 36.7177 15.7728 36.7177H27.3751C28.0047 35.1061 29.1058 33.7219 30.5346 32.7462C31.9634 31.7704 33.6533 31.2484 35.3835 31.2485C35.7441 31.2481 36.1043 31.2716 36.4617 31.3188V10.0986C36.4599 9.47749 36.2124 8.88236 35.7732 8.44318C35.334 8.004 34.7389 7.75647 34.1178 7.75466H33.0396V5.60608C33.04 5.23514 32.9566 4.86892 32.7956 4.53474C32.6346 4.20057 32.4001 3.90708 32.1098 3.67619C31.8178 3.44093 31.4765 3.27451 31.1113 3.1893C30.7461 3.10409 30.3664 3.10228 30.0003 3.184L9.68641 7.77808C9.6786 7.77808 9.67079 7.77807 9.67079 7.78589C9.09942 7.84711 8.57069 8.11689 8.1858 8.54359C7.80091 8.97029 7.5869 9.52394 7.58472 10.0986V44.5307C7.58653 45.1518 7.83405 45.7469 8.27323 46.1861C8.7124 46.6253 9.30752 46.8728 9.92861 46.8746H30.4457C28.6045 45.5807 27.3426 43.6177 26.9298 41.4055ZM30.3363 4.70755C30.4747 4.67717 30.6181 4.67824 30.7561 4.71069C30.894 4.74314 31.0229 4.80614 31.1332 4.89505C31.2404 4.97999 31.327 5.08807 31.3865 5.21119C31.446 5.33432 31.4769 5.46931 31.4769 5.60607V7.75466H16.851L30.3363 4.70755ZM22.0232 13.8488C23.8775 13.8488 25.6902 14.3987 27.232 15.4289C28.7739 16.4591 29.9756 17.9234 30.6852 19.6366C31.3948 21.3498 31.5805 23.2349 31.2187 25.0536C30.857 26.8723 29.964 28.5429 28.6528 29.8541C27.3416 31.1653 25.671 32.0583 23.8523 32.42C22.0336 32.7818 20.1485 32.5961 18.4353 31.8865C16.7221 31.1769 15.2578 29.9752 14.2276 28.4334C13.1974 26.8915 12.6475 25.0788 12.6475 23.2245C12.6508 20.7389 13.6397 18.3561 15.3972 16.5986C17.1548 14.841 19.5376 13.8521 22.0232 13.8488Z" fill="#291F69"/>
<path d="M18.2414 30.0526C17.1831 28.2095 16.6054 26.1298 16.5615 24.0049H14.2487C14.375 25.2608 14.8043 26.4674 15.4998 27.5208C16.1952 28.5742 17.1361 29.443 18.2414 30.0526Z" fill="#291F69"/>
<path d="M18.2414 16.3945C17.1374 17.0058 16.1977 17.8751 15.5025 18.9282C14.8072 19.9813 14.3771 21.1869 14.2487 22.4423H16.5615C16.6065 20.3175 17.1841 18.2381 18.2414 16.3945Z" fill="#291F69"/>
<path d="M21.2419 30.873V24.0049H18.1243C18.2961 27.3725 19.6011 30.1855 21.2419 30.873Z" fill="#291F69"/>
<path d="M21.2419 22.4414V15.5732C19.601 16.2686 18.2961 19.0815 18.1243 22.4414H21.2419Z" fill="#291F69"/>
<path d="M25.9222 24.0049H22.8046V30.873C24.4454 30.1855 25.7503 27.3725 25.9222 24.0049Z" fill="#291F69"/>
<path d="M22.8046 15.5732V22.4414H25.9222C25.7503 19.0815 24.4454 16.2686 22.8046 15.5732Z" fill="#291F69"/>
<path d="M25.8051 30.0526C26.9104 29.443 27.8512 28.5742 28.5467 27.5208C29.2422 26.4674 29.6715 25.2608 29.7978 24.0049H27.4849C27.4411 26.1298 26.8634 28.2095 25.8051 30.0526Z" fill="#291F69"/>
<path d="M29.7978 22.4423C29.6694 21.1869 29.2392 19.9813 28.544 18.9282C27.8487 17.8751 26.909 17.0058 25.8051 16.3945C26.8623 18.2381 27.4399 20.3175 27.4849 22.4423H29.7978Z" fill="#291F69"/>
</svg>
