<svg width="50" height="50" viewBox="0 0 50 50" fill="none" xmlns="http://www.w3.org/2000/svg">
<path d="M9.2883 21.2917C9.70146 20.7506 10.2297 20.3081 10.8348 19.9961C11.4398 19.6841 12.1067 19.5104 12.7871 19.4876C13.2958 18.9468 13.8328 18.4332 14.3959 17.9491C13.8472 17.5233 13.4446 16.9373 13.2439 16.2724C13.0432 15.6075 13.0543 14.8966 13.2758 14.2383C13.4972 13.5801 13.918 13.007 14.4798 12.5986C15.0415 12.1901 15.7164 11.9666 16.4109 11.959H18.5664C18.6757 11.6779 18.91 11.0687 19.1365 10.4986L18.9569 6.33597C18.9496 6.2001 18.9072 6.06845 18.8336 5.95398C18.7601 5.83951 18.658 5.74616 18.5374 5.68311C18.4168 5.62006 18.2819 5.58949 18.146 5.59441C18.01 5.59933 17.8776 5.63956 17.7619 5.71115L14.4662 7.82763L11.5766 4.0477C11.4834 3.92615 11.3566 3.83471 11.2118 3.78479C11.0671 3.73487 10.9108 3.72867 10.7625 3.76698C10.6143 3.80529 10.4806 3.88641 10.3781 4.00021C10.2757 4.11402 10.209 4.25547 10.1864 4.40692L9.47573 9.17094L4.83674 7.86663C4.69297 7.83027 4.54188 7.83495 4.40064 7.88013C4.25939 7.92531 4.13364 8.00919 4.03766 8.12224C3.94169 8.23529 3.87933 8.37299 3.85767 8.5197C3.83601 8.66641 3.85592 8.81625 3.91514 8.95221L6.07066 13.6225L3.43091 15.6296C3.33663 15.7044 3.2606 15.7998 3.20859 15.9083C3.15658 16.0169 3.12994 16.1359 3.13069 16.2563C3.13144 16.3767 3.15957 16.4953 3.21293 16.6032C3.2663 16.7111 3.34351 16.8055 3.43873 16.8792L9.2883 21.2917Z" fill="#291F69"/>
<path d="M46.7753 20.893C46.3719 19.3148 44.0693 18.1024 43.1751 17.0661L44.5104 17.0662C44.7436 17.0667 44.9745 17.0212 45.19 16.9323C45.4055 16.8435 45.6014 16.713 45.7664 16.5483C45.9315 16.3836 46.0624 16.188 46.1517 15.9727C46.241 15.7574 46.287 15.5265 46.287 15.2934C46.287 15.0603 46.241 14.8294 46.1517 14.6141C46.0624 14.3988 45.9315 14.2032 45.7664 14.0385C45.6014 13.8738 45.4055 13.7433 45.19 13.6544C44.9745 13.5656 44.7436 13.5201 44.5104 13.5205H42.5189C42.131 13.5204 41.7485 13.6113 41.4022 13.7861C40.8945 12.5131 40.3088 11.0214 39.8714 9.88901C39.6383 9.32545 39.2428 8.84403 38.7351 8.50606C38.2275 8.16809 37.6307 7.98887 37.0209 7.99123H23.9003C20.8487 8.01421 20.619 11.5411 19.519 13.7861C18.7935 13.3556 17.211 13.5678 16.4107 13.5205C15.9441 13.526 15.4985 13.7152 15.1705 14.0471C14.8424 14.379 14.6585 14.8268 14.6585 15.2934C14.6585 15.7601 14.8425 16.2079 15.1705 16.5397C15.4986 16.8716 15.9442 17.0608 16.4108 17.0662H17.7462C17.0579 17.7167 15.9805 18.6566 14.9972 19.4794H26.0871C26.7248 19.4763 27.3562 19.6059 27.941 19.86C28.5259 20.1142 29.0515 20.4872 29.4843 20.9555H38.7547C38.9614 20.9562 39.1594 21.0387 39.3053 21.1851C39.4512 21.3315 39.5332 21.5298 39.5332 21.7365C39.5332 21.9432 39.4512 22.1415 39.3053 22.2878C39.1594 22.4342 38.9614 22.5168 38.7547 22.5175H30.4528C30.7417 23.2672 31.0854 24.1497 31.4212 25.0088H33.5767C34.1502 25.0087 34.714 25.1568 35.2134 25.4387C35.7128 25.7205 36.131 26.1266 36.4273 26.6176H36.5601C36.7104 26.6177 36.8574 26.6613 36.9835 26.743C37.1096 26.8248 37.2093 26.9413 37.2707 27.0784L38.4422 29.7415H43.7685C44.5884 29.736 45.373 29.4074 45.952 28.8269C46.5311 28.2464 46.8577 27.4609 46.8612 26.641C46.8623 26.1382 46.9206 21.2406 46.7753 20.893ZM20.0189 16.6679C20.0267 16.6601 22.229 11.1542 22.4868 10.4904C22.604 10.2124 22.8007 9.97523 23.0522 9.80853C23.3036 9.64182 23.5987 9.553 23.9003 9.5532H37.0209C37.3197 9.55211 37.6123 9.63888 37.8622 9.80272C38.1122 9.96657 38.3084 10.2003 38.4266 10.4747C38.6765 11.123 40.8945 16.6601 40.9023 16.6679L20.0189 16.6679ZM44.1121 22.5175H41.8785C41.6739 22.5137 41.4788 22.4298 41.3354 22.2838C41.192 22.1377 41.1116 21.9412 41.1116 21.7365C41.1117 21.5318 41.192 21.3352 41.3354 21.1892C41.4789 21.0431 41.6739 20.9592 41.8786 20.9555H44.1121C44.3172 20.9586 44.5128 21.0423 44.6568 21.1884C44.8007 21.3345 44.8814 21.5314 44.8814 21.7365C44.8814 21.9416 44.8007 22.1385 44.6568 22.2846C44.5128 22.4307 44.3172 22.5144 44.1121 22.5175Z" fill="#291F69"/>
<path d="M39.7152 31.3054C39.723 31.8138 39.9305 32.2987 40.293 32.6553C40.6554 33.0119 41.1436 33.2115 41.6521 33.211H44.3465C44.6008 33.2111 44.8527 33.161 45.0877 33.0637C45.3227 32.9663 45.5363 32.8237 45.7161 32.6438C45.896 32.4639 46.0386 32.2504 46.136 32.0154C46.2333 31.7804 46.2833 31.5285 46.2833 31.2741V30.5635C44.6998 31.7181 41.789 31.1978 39.7152 31.3054Z" fill="#291F69"/>
<path d="M14.0133 41.2285L13.2711 42.7902H25.8063L25.1188 41.2285H14.0133Z" fill="#291F69"/>
<path d="M32.2414 30.115L33.5768 30.1151C34.0433 30.1096 34.489 29.9204 34.817 29.5886C35.145 29.2567 35.329 28.8089 35.3289 28.3422C35.3289 27.8756 35.145 27.4278 34.817 27.0959C34.4889 26.7641 34.0433 26.5749 33.5767 26.5694C32.7691 26.6099 31.1775 26.4122 30.4685 26.835C29.3646 24.5908 29.1548 21.0674 26.0872 21.04L12.9666 21.0401C9.91442 21.0633 9.68576 24.5898 8.58531 26.835C7.87047 26.4059 6.26973 26.616 5.47707 26.5694C5.01036 26.5747 4.56455 26.7638 4.23639 27.0957C3.90822 27.4276 3.72418 27.8755 3.72419 28.3423C3.72419 28.809 3.90825 29.2569 4.23643 29.5888C4.5646 29.9207 5.01041 30.1098 5.47712 30.1151H6.8125C5.78791 31.3186 3.0285 32.6171 3.12625 34.6681L3.1263 39.6899C3.12839 40.3442 3.33613 40.9813 3.72013 41.5111C4.10413 42.0408 4.64496 42.4365 5.26614 42.642C5.75578 42.9119 10.892 42.7512 11.5375 42.7904L12.8104 40.1117C12.874 39.979 12.9736 39.8668 13.0979 39.7881C13.2222 39.7094 13.3662 39.6672 13.5133 39.6665H25.6264C25.7766 39.6666 25.9237 39.7102 26.0498 39.7919C26.1758 39.8737 26.2756 39.9901 26.337 40.1273L27.5085 42.7904H32.8348C33.6547 42.7849 34.4393 42.4562 35.0183 41.8757C35.5973 41.2952 35.924 40.5098 35.9275 39.6899C35.9362 39.1906 35.9814 34.2874 35.8416 33.9419C35.4383 32.3636 33.1355 31.1512 32.2414 30.115ZM8.1168 35.5664H5.87539C5.67072 35.5626 5.47569 35.4787 5.33227 35.3326C5.18884 35.1866 5.10849 34.9901 5.10849 34.7854C5.1085 34.5806 5.18887 34.3841 5.3323 34.2381C5.47573 34.092 5.67077 34.0081 5.87544 34.0044H8.1168C8.32188 34.0075 8.51751 34.0912 8.66143 34.2373C8.80535 34.3834 8.88602 34.5803 8.88601 34.7854C8.88601 34.9905 8.80533 35.1874 8.6614 35.3335C8.51748 35.4796 8.32187 35.5633 8.1168 35.5664ZM27.8209 35.5664H11.2407C11.036 35.5626 10.841 35.4787 10.6976 35.3326C10.5541 35.1866 10.4738 34.9901 10.4738 34.7854C10.4738 34.5806 10.5542 34.3841 10.6976 34.2381C10.841 34.092 11.0361 34.0081 11.2407 34.0044H27.8209C28.026 34.0075 28.2216 34.0912 28.3655 34.2373C28.5095 34.3834 28.5901 34.5803 28.5901 34.7854C28.5901 34.9905 28.5095 35.1873 28.3655 35.3335C28.2216 35.4796 28.026 35.5632 27.8209 35.5664ZM9.08516 29.7168C9.09297 29.709 11.2954 24.2031 11.553 23.5392C11.6703 23.2613 11.867 23.0241 12.1184 22.8574C12.3699 22.6907 12.6649 22.6019 12.9666 22.602H26.0872C26.386 22.601 26.6786 22.6877 26.9285 22.8516C27.1785 23.0155 27.3747 23.2492 27.4929 23.5236C27.7428 24.1718 29.9608 29.709 29.9686 29.7168H9.08516ZM33.1784 35.5664H30.9448C30.7401 35.5626 30.5451 35.4787 30.4017 35.3326C30.2583 35.1866 30.1779 34.9901 30.1779 34.7854C30.1779 34.5806 30.2583 34.3841 30.4017 34.2381C30.5452 34.092 30.7402 34.0081 30.9449 34.0044H33.1784C33.3835 34.0075 33.5791 34.0912 33.723 34.2373C33.867 34.3834 33.9476 34.5803 33.9476 34.7854C33.9476 34.9905 33.867 35.1873 33.7231 35.3335C33.5791 35.4796 33.3835 35.5632 33.1784 35.5664Z" fill="#291F69"/>
<path d="M4.80543 44.1336C4.41941 44.0022 4.04989 43.8266 3.70422 43.6104V44.321C3.70418 44.5754 3.75424 44.8273 3.85156 45.0623C3.94888 45.2973 4.09154 45.5108 4.2714 45.6907C4.45126 45.8705 4.66479 46.0132 4.8998 46.1105C5.13481 46.2078 5.38668 46.2579 5.64104 46.2579H8.33543C8.84388 46.2584 9.33211 46.0587 9.69455 45.7021C10.057 45.3456 10.2645 44.8607 10.2723 44.3523C9.19683 44.2948 5.79191 44.5246 4.80543 44.1336Z" fill="#291F69"/>
<path d="M28.7815 44.3523C28.7893 44.8607 28.9968 45.3456 29.3592 45.7021C29.7217 46.0587 30.2099 46.2584 30.7184 46.2579H33.4128C33.6671 46.2579 33.919 46.2078 34.154 46.1105C34.389 46.0132 34.6025 45.8705 34.7824 45.6907C34.9623 45.5108 35.1049 45.2973 35.2022 45.0622C35.2996 44.8272 35.3496 44.5753 35.3496 44.321V43.6104C33.7661 44.7649 30.8553 44.2447 28.7815 44.3523Z" fill="#291F69"/>
</svg>
