<svg width="102" height="102" viewBox="0 0 102 102" fill="none" xmlns="http://www.w3.org/2000/svg">
<g clip-path="url(#clip0_1816_341)">
<path d="M52.6689 1.69141H51.8467L50.751 3.0184V11.9583H53.7393L54.3377 11.3944V4.16869C54.3379 3.04749 53.6472 2.08905 52.6689 1.69141Z" fill="#7E75DE"/>
<path d="M76.6744 57.748C77.2637 59.3922 77.9793 61.3639 78.0937 61.5639C78.2929 61.9125 80.8329 64.7811 80.8329 64.7811L83.0558 66.0716H90.2626C94.1093 66.0716 97.3956 62.5725 98.5678 57.748H76.6744Z" fill="#7E75DE"/>
<path d="M51 4.16865C51 3.04745 51.6905 2.08901 52.6689 1.69137C52.3581 1.56506 52.0192 1.49414 51.6632 1.49414H50.3366C48.8594 1.49414 47.6621 2.69164 47.6621 4.16865V11.3945L48.2277 11.9585H51.5656L51 11.3945V4.16865Z" fill="#9E95F0"/>
<path d="M94.9047 58.5795C94.2875 58.5795 93.7102 58.1942 93.4946 57.579L81.8033 24.2063C81.5304 23.4276 81.9406 22.5751 82.7195 22.3022C83.4984 22.0294 84.3507 22.4394 84.6236 23.2184L96.315 56.5911C96.5879 57.3699 96.1777 58.2223 95.3988 58.4952C95.2352 58.5522 95.0685 58.5795 94.9047 58.5795Z" fill="#291F69"/>
<path d="M69.8157 58.5795C69.6518 58.5795 69.4852 58.5522 69.3219 58.4951C68.5431 58.2223 68.1329 57.3699 68.4057 56.5909L80.097 23.2182C80.37 22.4395 81.2226 22.0297 82.0012 22.302C82.7799 22.5747 83.1901 23.4272 82.9174 24.2061L71.226 57.5789C71.0103 58.1942 70.4327 58.5795 69.8157 58.5795Z" fill="#291F69"/>
<path d="M32.2275 58.7028C31.6106 58.7028 31.033 58.3175 30.8175 57.7024L19.0827 24.2063C18.8098 23.4276 19.2199 22.5751 19.9987 22.3022C20.7774 22.0294 21.6299 22.4394 21.9028 23.2184L33.6374 56.7144C33.9103 57.4932 33.5001 58.3456 32.7214 58.6186C32.558 58.6755 32.3913 58.7028 32.2275 58.7028Z" fill="#291F69"/>
<path d="M7.05211 58.7028C6.88815 58.7028 6.7216 58.6755 6.55805 58.6183C5.7793 58.3456 5.36911 57.4931 5.64204 56.7142L17.3764 23.2181C17.6494 22.4394 18.5018 22.0298 19.2806 22.3019C20.0593 22.5747 20.4695 23.4271 20.1966 24.2061L8.46218 57.7023C8.24662 58.3175 7.66929 58.7028 7.05211 58.7028Z" fill="#291F69"/>
<path d="M77.2809 57.748H66.1527C67.3247 62.5725 70.611 66.0716 74.4579 66.0716H85.5861C81.7394 66.0716 78.4529 62.5725 77.2809 57.748Z" fill="#9E95F0"/>
<path d="M13.954 57.748C14.5433 59.3922 15.2589 61.3639 15.3732 61.5639C15.5725 61.9125 18.1125 64.7811 18.1125 64.7811L20.3354 66.0716H27.5421C31.3888 66.0716 34.6752 62.5725 35.8474 57.748H13.954Z" fill="#7E75DE"/>
<path d="M14.5605 57.748H3.43231C4.60432 62.5725 7.89063 66.0716 11.7375 66.0716H22.8657C19.019 66.0716 15.7327 62.5725 14.5605 57.748Z" fill="#9E95F0"/>
<path d="M100.506 59.2422H64.2145C63.3894 59.2422 62.7204 58.5734 62.7204 57.748C62.7204 56.9227 63.3894 56.2539 64.2145 56.2539H100.506C101.331 56.2539 102 56.9227 102 57.748C102 58.5734 101.331 59.2422 100.506 59.2422Z" fill="#C7C3EF"/>
<path d="M37.7856 59.2422H1.49414C0.668977 59.2422 0 58.5734 0 57.748C0 56.9227 0.668977 56.2539 1.49414 56.2539H37.7856C38.6108 56.2539 39.2798 56.9227 39.2798 57.748C39.2798 58.5734 38.6108 59.2422 37.7856 59.2422Z" fill="#C7C3EF"/>
<path d="M17.573 21.6871H47.016V19.3295L46.2191 18.8008H30.5501C28.4836 18.8008 26.4223 19.0349 24.4122 19.5142C22.0166 20.0853 19.673 20.7342 17.3832 21.4512L17.573 21.6871Z" fill="#7E75DE"/>
<path d="M84.3775 21.6871L84.617 21.4512C82.3271 20.7342 79.9835 20.0853 77.5879 19.5142C75.5778 19.0349 73.5163 18.8008 71.45 18.8008H55.7812L55.0342 19.2548V21.6869L84.3775 21.6871Z" fill="#7E75DE"/>
<path d="M17.5152 21.457C17.47 21.457 17.4266 21.4538 17.383 21.451C17.2393 21.496 17.0937 21.5387 16.9503 21.5841C14.9513 22.2198 15.4177 25.1756 17.515 25.1756H46.2187L47.0156 24.6805V20.9619L46.2187 21.457H17.5152Z" fill="#9E95F0"/>
<path d="M85.0497 21.5837C84.9064 21.5381 84.7608 21.4957 84.617 21.4506C84.5733 21.4534 84.5299 21.4566 84.4847 21.4566H55.7812L55.0342 20.4414V24.1602L55.7812 25.1754H84.4849C86.5825 25.1752 87.0486 22.2194 85.0497 21.5837Z" fill="#9E95F0"/>
<path d="M51.3487 76.567V86.8643L48.6094 87.5615L48.4409 87.6611H54.3377V75.0605C53.554 75.9168 52.5087 76.4732 51.3487 76.567Z" fill="#291F69"/>
<path d="M51.713 76.5232C51.4805 76.5623 51.2425 76.5826 51.0002 76.5826C49.7013 76.5826 48.5241 76.0019 47.6623 75.0605V87.6611H51.713V76.5232Z" fill="#3D2E9E"/>
<path d="M58.9025 87.0664H50.5566L48.6096 87.5621L45.7458 89.2554L43.8533 91.8702L43.1176 94.2359H65.5765L67.2077 93.043C66.0355 89.5788 62.7492 87.0664 58.9025 87.0664Z" fill="#7167B6"/>
<path d="M52.1005 87.0664H43.0976C39.2507 87.0664 35.9644 89.5788 34.7924 93.043L36.4904 94.2359H45.4933L43.7953 93.043C44.9673 89.5788 48.2538 87.0664 52.1005 87.0664Z" fill="#291F69"/>
<path d="M52.6688 10.335H52.0792L50.0537 11.7424L49.2734 14.0667V74.0977L50.3193 75.791L51.8134 76.6542L52.6687 76.8714C54.4861 76.1942 55.781 74.4435 55.781 72.3902V14.8162C55.7812 12.7626 54.4865 11.0121 52.6688 10.335Z" fill="#C7C3EF"/>
<path d="M49.5567 72.3904V14.8164C49.5567 12.7628 50.8516 11.0123 52.669 10.3352C52.1495 10.1415 51.5873 10.0352 51.0002 10.0352C48.3596 10.0352 46.219 12.1758 46.219 14.8164V72.3904C46.219 75.031 48.3596 77.1716 51.0002 77.1716C51.5873 77.1716 52.1495 77.0652 52.669 76.8716C50.8514 76.1945 49.5567 74.4439 49.5567 72.3904Z" fill="#7E75DE"/>
<path d="M75.2384 93.043H34.9116L34.0665 93.5635L33.4439 94.2359V99.1168L34.3902 100.287L34.8074 100.506H75.2382C76.3664 100.506 77.2808 99.5919 77.2808 98.4639V95.0858C77.281 93.9574 76.3664 93.043 75.2384 93.043Z" fill="#C7C3EF"/>
<path d="M33.7221 98.4627V95.0846C33.7221 93.9564 34.6367 93.042 35.7647 93.042H26.7618C25.6336 93.042 24.7192 93.9566 24.7192 95.0846V98.4627C24.7192 99.5909 25.6338 100.505 26.7618 100.505H35.7647C34.6367 100.506 33.7221 99.5909 33.7221 98.4627Z" fill="#7E75DE"/>
</g>
<defs>
<clipPath id="clip0_1816_341">
<rect width="102" height="102" fill="white"/>
</clipPath>
</defs>
</svg>
