<svg width="87" height="87" viewBox="0 0 87 87" fill="none" xmlns="http://www.w3.org/2000/svg">
<g clip-path="url(#clip0_1816_392)">
<path d="M76.5748 68.3025C75.594 68.8689 74.4372 68.8471 73.5069 68.3499C73.2939 68.2361 73.0379 68.2634 72.8527 68.4002V83.5324L75.944 85.9209C76.635 86.4546 77.6375 85.9622 77.6375 85.0891V67.2959C77.3756 67.6976 77.0188 68.0461 76.5748 68.3025Z" fill="#C7C3EF"/>
<path d="M67.1739 68.4002C66.9885 68.2633 66.7324 68.2361 66.5197 68.3499C65.5893 68.8473 64.4327 68.8689 63.4517 68.3025C63.0076 68.0461 62.6509 67.6978 62.389 67.2959V85.0893C62.389 85.9623 63.3917 86.4546 64.0825 85.921L67.1739 83.5326V68.4002Z" fill="#C7C3EF"/>
<path d="M73.0457 68.3057C72.9059 68.3468 72.78 68.4357 72.6986 68.5667C72.1412 69.4637 71.147 70.061 70.0133 70.061C68.8796 70.061 67.8854 69.4637 67.3279 68.5667C67.2465 68.4357 67.1206 68.3468 66.9807 68.3057V83.6821L69.3707 81.8355C69.7491 81.5431 70.2772 81.5431 70.6556 81.8355L73.0456 83.6821L73.0457 68.3057Z" fill="#877EDE"/>
<path d="M82.9327 0.858398H4.06742C1.8304 0.858398 0 2.6888 0 4.92582V61.2668C0 63.5038 1.8304 65.3341 4.06742 65.3341H82.9327C85.1698 65.3341 87 63.5037 87 61.2668V4.92582C87 2.6888 85.1698 0.858398 82.9327 0.858398Z" fill="#6257AB"/>
<path d="M8.52379 61.2668V4.92582C8.52379 2.6888 10.354 0.858398 12.5912 0.858398H4.06742C1.8304 0.858398 0 2.6888 0 4.92582V61.2668C0 63.5038 1.8304 65.3341 4.06742 65.3341H12.5912C10.354 65.3342 8.52379 63.5038 8.52379 61.2668Z" fill="#291F69"/>
<path d="M80.486 11.88C78.1902 11.4793 76.3795 9.66879 75.9788 7.37281C75.89 6.86372 75.4521 6.49023 74.9355 6.49023H12.0644C11.5477 6.49023 11.1098 6.86372 11.0211 7.37281C10.6203 9.66879 8.80974 11.4793 6.51392 11.88C6.00501 11.9689 5.63135 12.4067 5.63135 12.9235V53.2704C5.63135 53.7871 6.00484 54.2249 6.51392 54.3139C8.80974 54.7146 10.6204 56.5253 11.0211 58.8211C11.11 59.3302 11.5479 59.7037 12.0644 59.7037H58.0147L81.3686 50.7119V12.9233C81.3686 12.4067 80.9951 11.9687 80.486 11.88Z" fill="#E5E2FF"/>
<path d="M19.5449 58.8199C19.1442 56.5241 17.3335 54.7136 15.0377 54.3127C14.5288 54.2239 14.1551 53.7862 14.1551 53.2693V12.9225C14.1551 12.4058 14.5286 11.9679 15.0377 11.879C17.3335 11.4783 19.1442 9.66782 19.5449 7.37183C19.6338 6.86275 20.0716 6.48926 20.5882 6.48926H12.0644C11.5477 6.48926 11.1098 6.86275 11.0211 7.37183C10.6203 9.66799 8.80974 11.4785 6.51392 11.8792C6.00501 11.968 5.63135 12.4059 5.63135 12.9227V53.2696C5.63135 53.7863 6.00484 54.224 6.51392 54.3131C8.80974 54.7138 10.6204 56.5244 11.0211 58.8203C11.11 59.3293 11.5479 59.7028 12.0644 59.7028H20.5882C20.0715 59.7025 19.6336 59.329 19.5449 58.8199Z" fill="#A49DEC"/>
<path d="M54.9028 14.9365H32.0972C30.9997 14.9365 30.11 15.8262 30.11 16.9238V18.5805C30.11 19.678 30.9997 20.5677 32.0972 20.5677H54.9028C56.0003 20.5677 56.89 19.678 56.89 18.5805V16.9238C56.8902 15.8262 56.0003 14.9365 54.9028 14.9365Z" fill="#958CEC"/>
<path d="M39.8207 18.5805V16.9238C39.8207 15.8262 40.7104 14.9365 41.8079 14.9365H32.0972C30.9997 14.9365 30.11 15.8262 30.11 16.9238V18.5805C30.11 19.678 30.9997 20.5677 32.0972 20.5677H41.8079C40.7104 20.5677 39.8207 19.678 39.8207 18.5805Z" fill="#6D61BD"/>
<path d="M50.1951 28.7653H36.8051C36.0801 28.7653 35.4923 28.1775 35.4923 27.4525C35.4923 26.7274 36.0801 26.1396 36.8051 26.1396H50.1951C50.9202 26.1396 51.508 26.7274 51.508 27.4525C51.508 28.1775 50.9202 28.7653 50.1951 28.7653Z" fill="#C7C3EF"/>
<path d="M64.9975 36.1442H22.0025C21.2775 36.1442 20.6897 35.5564 20.6897 34.8314C20.6897 34.1063 21.2775 33.5186 22.0025 33.5186H64.9977C65.7227 33.5186 66.3105 34.1063 66.3105 34.8314C66.3105 35.5564 65.7226 36.1442 64.9975 36.1442Z" fill="#C7C3EF"/>
<path d="M64.9975 41.7047H22.0025C21.2775 41.7047 20.6897 41.117 20.6897 40.3919C20.6897 39.6669 21.2775 39.0791 22.0025 39.0791H64.9977C65.7227 39.0791 66.3105 39.6669 66.3105 40.3919C66.3105 41.117 65.7226 41.7047 64.9975 41.7047Z" fill="#C7C3EF"/>
<path d="M54.2488 47.0368H32.7513C32.0262 47.0368 31.4385 46.449 31.4385 45.7239C31.4385 44.9989 32.0262 44.4111 32.7513 44.4111H54.249C54.974 44.4111 55.5618 44.9989 55.5618 45.7239C55.5618 46.449 54.9738 47.0368 54.2488 47.0368Z" fill="#C7C3EF"/>
<path d="M81.642 59.9729C82.5391 59.4156 83.1363 58.4214 83.1363 57.2875C83.1363 56.1538 82.5391 55.1595 81.642 54.602C81.3707 54.4335 81.275 54.0754 81.4256 53.7937C81.9229 52.8634 81.9445 51.7067 81.3782 50.7258C80.8111 49.7436 79.7967 49.1837 78.7408 49.1506C78.4219 49.1406 78.1598 48.8787 78.1498 48.5596C78.1167 47.5039 77.5568 46.4893 76.5746 45.9222C75.5937 45.3559 74.437 45.3775 73.5067 45.8748C73.225 46.0254 72.8671 45.9297 72.6984 45.6584C72.141 44.7613 71.1468 44.1641 70.0129 44.1641C68.8792 44.1641 67.885 44.7613 67.3275 45.6584C67.1589 45.9297 66.8009 46.0254 66.5192 45.8748C65.5888 45.3775 64.4322 45.3559 63.4512 45.9222C62.4691 46.4893 61.9092 47.5037 61.8761 48.5594C61.866 48.8784 61.6042 49.1404 61.2851 49.1504C60.2293 49.1836 59.2147 49.7435 58.6477 50.7256C58.0814 51.7064 58.1029 52.8632 58.6003 53.7935C58.7508 54.0753 58.655 54.4333 58.3838 54.6019C57.4868 55.1592 56.8895 56.1534 56.8895 57.2873C56.8895 58.4212 57.4868 59.4152 58.3838 59.9727C58.6552 60.1413 58.7508 60.4993 58.6003 60.7811C58.1029 61.7114 58.0814 62.868 58.6477 63.849C59.2147 64.8312 60.2293 65.391 61.2851 65.4242C61.604 65.4342 61.866 65.6961 61.8761 66.0152C61.9092 67.0709 62.4691 68.0855 63.4512 68.6525C64.4322 69.2189 65.5888 69.1973 66.5192 68.6999C66.8009 68.5494 67.1588 68.645 67.3275 68.9164C67.8848 69.8134 68.879 70.4107 70.0129 70.4107C71.1467 70.4107 72.1409 69.8134 72.6984 68.9164C72.8669 68.645 73.225 68.5494 73.5067 68.6999C74.437 69.1973 75.5937 69.2189 76.5746 68.6525C77.5568 68.0855 78.1167 67.0709 78.1498 66.0152C78.1598 65.6962 78.4219 65.4342 78.7408 65.4242C79.7965 65.391 80.8111 64.8312 81.3782 63.849C81.9445 62.8682 81.9229 61.7114 81.4256 60.7811C81.2748 60.4995 81.3707 60.1415 81.642 59.9729Z" fill="#958CEC"/>
<path d="M71.3429 68.6524C70.3608 68.0853 69.8009 67.0709 69.7678 66.0152C69.7577 65.6961 69.4957 65.4342 69.1768 65.4242C68.1211 65.391 67.1064 64.8312 66.5394 63.849C65.9731 62.8682 65.9946 61.7114 66.492 60.7811C66.6426 60.4993 66.5467 60.1413 66.2755 59.9727C65.3785 59.4154 64.7812 58.4212 64.7812 57.2873C64.7812 56.1536 65.3785 55.1594 66.2755 54.6019C66.5467 54.4333 66.6426 54.0753 66.492 53.7935C65.9946 52.8632 65.9731 51.7066 66.5394 50.7256C67.1064 49.7435 68.1209 49.1836 69.1768 49.1504C69.4957 49.1404 69.7577 48.8784 69.7678 48.5594C69.8009 47.5037 70.3608 46.4893 71.3429 45.9222C71.7431 45.6912 72.1727 45.5596 72.6043 45.5166C72.0332 44.6993 71.086 44.1641 70.0133 44.1641C68.8796 44.1641 67.8854 44.7613 67.3279 45.6584C67.1593 45.9297 66.8013 46.0254 66.5195 45.8748C65.5892 45.3775 64.4326 45.3559 63.4516 45.9222C62.4694 46.4893 61.9096 47.5037 61.8764 48.5594C61.8664 48.8784 61.6045 49.1404 61.2854 49.1504C60.2297 49.1836 59.2153 49.7435 58.6481 50.7256C58.0817 51.7064 58.1033 52.8632 58.6007 53.7935C58.7512 54.0753 58.6554 54.4333 58.3842 54.6019C57.4872 55.1592 56.8899 56.1534 56.8899 57.2873C56.8899 58.4212 57.4872 59.4152 58.3842 59.9727C58.6554 60.1413 58.7512 60.4993 58.6007 60.7811C58.1033 61.7114 58.0817 62.868 58.6481 63.849C59.2151 64.8312 60.2297 65.391 61.2854 65.4242C61.6044 65.4342 61.8664 65.6961 61.8764 66.0152C61.9096 67.0709 62.4694 68.0855 63.4516 68.6524C64.4326 69.2187 65.5892 69.1971 66.5195 68.6998C66.8013 68.5492 67.1591 68.6449 67.3279 68.9162C67.8852 69.8133 68.8794 70.4105 70.0133 70.4105C71.086 70.4105 72.0333 69.8755 72.6043 69.058C72.1728 69.0151 71.7433 68.8834 71.3429 68.6524Z" fill="#6D61BD"/>
<path d="M70.0132 64.3587C73.9181 64.3587 77.0836 61.1931 77.0836 57.2882C77.0836 53.3833 73.9181 50.2178 70.0132 50.2178C66.1083 50.2178 62.9427 53.3833 62.9427 57.2882C62.9427 61.1931 66.1083 64.3587 70.0132 64.3587Z" fill="#C7BEFF"/>
</g>
<defs>
<clipPath id="clip0_1816_392">
<rect width="87" height="87" fill="white"/>
</clipPath>
</defs>
</svg>
