<svg width="90" height="90" viewBox="0 0 90 90" fill="none" xmlns="http://www.w3.org/2000/svg">
<g clip-path="url(#clip0_1816_373)">
<path d="M24.7712 60.0947L34.6537 50.2123L39.7748 55.3334L29.8923 65.2158L24.7712 60.0947Z" fill="#9087EE"/>
<path d="M29.2613 68.4212L9.27395 88.4086C7.15216 90.5304 3.71279 90.5304 1.59119 88.4086L25.42 59.458L29.2613 68.4212Z" fill="#291F69"/>
<path d="M27.9809 62.0187L1.59105 88.4084C-0.529471 86.2879 -0.530739 82.8473 1.59105 80.7257L21.5784 60.7383L27.9809 62.0187Z" fill="#291F69"/>
<path d="M33.1027 64.5797L29.2614 60.7383L26.0601 61.3784L25.4198 64.5797L29.2614 68.421L33.1027 64.5797Z" fill="#9D95E9"/>
<path d="M21.5698 60.7344L25.4107 56.8935L29.2515 60.7344L25.4107 64.5752L21.5698 60.7344Z" fill="#C7C3EF"/>
<path d="M57.4041 65.191C75.4061 65.191 89.9996 50.5975 89.9996 32.5955C89.9996 14.5935 75.4061 0 57.4041 0C39.4021 0 24.8086 14.5935 24.8086 32.5955C24.8086 50.5975 39.4021 65.191 57.4041 65.191Z" fill="#291F69"/>
<path d="M76.6112 13.3887L38.197 51.8028C48.7878 62.3937 66.0204 62.3937 76.6112 51.8028C87.202 41.212 87.202 23.9795 76.6112 13.3887Z" fill="#A59DF3"/>
<path d="M72.7698 47.9612C83.3606 37.3704 85.0839 21.8611 76.6112 13.3884C66.0204 2.79761 48.7878 2.79761 38.197 13.3884C27.6062 23.9793 27.6062 41.2118 38.197 51.8026C46.6697 60.2753 62.179 58.552 72.7698 47.9612Z" fill="#C7C3EF"/>
</g>
<defs>
<clipPath id="clip0_1816_373">
<rect width="90" height="90" fill="white"/>
</clipPath>
</defs>
</svg>
