<svg width="90" height="90" viewBox="0 0 90 90" fill="none" xmlns="http://www.w3.org/2000/svg">
<g clip-path="url(#clip0_1816_382)">
<path d="M43.819 61.9239L80.273 9.37421C82.118 6.82675 81.6442 3.28091 79.195 1.30749C76.7457 -0.665933 73.18 -0.374108 71.0836 1.97079L27.4967 48.774L27.4651 48.8131L19.8948 65.1526C19.3716 66.2814 19.6847 67.621 20.6536 68.4018L26.098 72.7881C27.0668 73.5681 28.4422 73.5887 29.4337 72.8375L43.7881 61.9631L43.819 61.9239Z" fill="#ACA5F3"/>
<path d="M79.195 1.3071C78.9636 1.12102 78.7226 0.95485 78.4741 0.808594L36.8674 54.972L36.8358 55.0104L24.2159 71.2716L26.098 72.7877C27.0669 73.5677 28.4423 73.5883 29.4338 72.8371L43.7881 61.9627L43.819 61.9236L80.2731 9.37382C82.1181 6.82636 81.6443 3.28052 79.195 1.3071Z" fill="#8D84EF"/>
<path d="M22.6435 65.6494L11.6757 73.024C11.0865 73.4195 10.691 74.045 10.5853 74.7461L8.80687 86.5324C8.62903 87.7121 9.78809 88.6459 10.9025 88.2209L22.0406 83.9746C22.7032 83.7219 23.2299 83.2028 23.4915 82.543L28.3626 70.2568L22.6435 65.6494ZM19.7136 79.3075C18.8079 80.4322 17.162 80.6094 16.0373 79.7037C14.9125 78.7973 14.7354 77.1514 15.6411 76.0267C16.5474 74.9027 18.1933 74.7255 19.3181 75.6312C20.4428 76.5369 20.6199 78.1828 19.7136 79.3075Z" fill="#291F69"/>
<path d="M64.8716 8.64133L75.0772 16.8632L78.6574 11.7031L69.1521 4.04492L64.8716 8.64133Z" fill="#D2CFF5"/>
<path d="M69.5648 12.4068L75.093 16.8411L78.6725 11.681L73.3819 7.4375L69.5648 12.4068Z" fill="#C7C3EF"/>
<path d="M17.0851 80.5476C17.1606 80.4536 17.2203 80.3526 17.2663 80.2476C16.8303 80.1789 16.406 80.0004 16.0372 79.7038C15.6685 79.4064 15.4042 79.0295 15.2442 78.6182C15.1515 78.6861 15.0649 78.7658 14.9894 78.8592L8.80754 86.5325C8.6297 87.7121 9.78876 88.6459 10.9032 88.2209L17.0851 80.5476Z" fill="#6C61B2"/>
<path d="M43.7228 61.9113L27.5296 48.8657L27.4651 48.8135L19.8948 65.1529C19.3716 66.2818 19.6847 67.6214 20.6536 68.4021L26.098 72.7884C27.0668 73.5685 28.4422 73.5891 29.4337 72.8379L43.7881 61.9634L43.7228 61.9113Z" fill="#4336BC"/>
<path d="M36.1904 55.8418L24.2159 71.2714L26.098 72.7875C27.0662 73.5683 28.4423 73.5882 29.4338 72.8377L43.7881 61.9626L43.7229 61.9104L36.1904 55.8418Z" fill="#3123B7"/>
<path d="M47.8784 90.0005C45.4676 90.0005 43.1962 89.526 41.3347 88.2035C40.749 87.7874 40.2223 87.304 39.754 86.7513C36.3634 88.9307 32.7592 89.6894 29.7571 89.846C29.0197 89.8824 28.3818 89.3145 28.3427 88.5723C28.3042 87.8307 28.8741 87.1969 29.6164 87.1585C32.9418 86.9847 35.8511 86.0907 38.3292 84.4867C37.6261 82.9651 37.1743 81.1215 36.9642 78.9352C36.454 73.6315 39.3469 69.8035 42.4402 68.3629C44.4981 67.4043 46.545 67.5911 47.7816 68.8518C48.9812 70.0747 49.8628 72.6551 47.2474 78.002C45.7361 81.0926 43.8973 83.4066 41.9142 85.1294C42.2122 85.4638 42.5384 85.757 42.8934 86.0097C45.8549 88.1136 50.9333 87.236 55.0271 86.2363C64.0826 84.0253 73.1154 86.8124 73.4951 86.9325C74.2045 87.1557 74.5979 87.911 74.3747 88.6203C74.1509 89.3289 73.3956 89.7231 72.687 89.4992C72.6011 89.4725 63.9741 86.822 55.6657 88.851C53.1285 89.4704 50.4259 90.0005 47.8784 90.0005ZM44.9945 70.4414C44.5839 70.4414 44.0923 70.5622 43.5766 70.8025C40.4922 72.239 39.375 75.8913 39.6435 78.6777C39.7973 80.2783 40.0905 81.6399 40.5279 82.7735C42.2212 81.2032 43.6569 79.2174 44.8297 76.8196C46.5484 73.306 46.4591 71.347 45.8604 70.7366C45.6667 70.5396 45.3639 70.4414 44.9945 70.4414Z" fill="#291F69"/>
</g>
<defs>
<clipPath id="clip0_1816_382">
<rect width="90" height="90" fill="white"/>
</clipPath>
</defs>
</svg>
