<svg width="98" height="98" viewBox="0 0 98 98" fill="none" xmlns="http://www.w3.org/2000/svg">
<path d="M49.0005 98C42.3877 98 35.9693 96.7043 29.9267 94.1478C24.0917 91.6799 18.851 88.1468 14.3532 83.6479C9.85429 79.149 6.32226 73.9094 3.85323 68.0744C1.2957 62.0307 0 55.6134 0 49.0005C0 42.3877 1.2957 35.9704 3.85213 29.9267C6.32008 24.0917 9.8532 18.851 14.3521 14.3532C18.851 9.85429 24.0906 6.32226 29.9256 3.85432C35.9693 1.2957 42.3866 0 49.0005 0C55.6145 0 61.6898 1.22906 67.5948 3.65221C69.7546 4.53822 70.7859 7.00725 69.8999 9.16712C69.0139 11.327 66.5449 12.3583 64.385 11.4723C59.5038 9.46864 54.3275 8.45262 49.0005 8.45262C43.6735 8.45262 38.2154 9.52436 33.2195 11.6372C28.3917 13.6791 24.0545 16.6037 20.3302 20.3291C16.6048 24.0545 13.6813 28.3906 11.6383 33.2184C9.52545 38.2143 8.45372 43.5239 8.45372 48.9994C8.45372 54.475 9.52545 59.7845 11.6383 64.7805C13.6802 69.6082 16.6048 73.9454 20.3302 77.6697C24.0556 81.3951 28.3917 84.3187 33.2195 86.3616C38.2154 88.4745 43.5249 89.5462 49.0005 89.5462C54.4761 89.5462 59.7856 88.4745 64.7816 86.3616C69.6093 84.3198 73.9465 81.3951 77.6708 77.6697C81.3962 73.9443 84.3198 69.6082 86.3627 64.7805C88.4756 59.7845 89.5473 54.475 89.5473 48.9994C89.5473 44.0122 88.6537 39.1451 86.8915 34.5337C86.059 32.3531 87.1504 29.9103 89.331 29.0767C91.5116 28.2431 93.9545 29.3356 94.788 31.5163C96.9195 37.0956 98 42.9776 98 48.9994C98 55.6123 96.7043 62.0307 94.1478 68.0744C91.6799 73.9094 88.1468 79.1501 83.6479 83.6479C79.149 88.1468 73.9094 91.6788 68.0744 94.1478C62.0307 96.7043 55.6134 98 48.9994 98H49.0005Z" fill="#BF3030"/>
<g clip-path="url(#clip0_71_97)">
<path d="M84.8388 15.0723C81.9593 16.7767 78.9739 18.7069 76.1929 20.579C69.1377 25.4027 62.3716 30.7048 55.9558 36.3682C54.5603 37.608 53.1693 38.8911 51.7875 40.201C49.9249 38.1989 48.0715 36.182 46.2965 34.2076C44.2297 31.9538 41.7615 29.3461 39.6855 27.0536C38.2097 25.3999 36.0407 22.8687 34.5868 21.1468C31.461 17.6284 26.2419 21.7773 28.8724 25.6737C31.9107 29.8484 35.2682 34.4463 38.4478 38.5012C40.6688 41.2223 42.9783 43.9204 45.3598 46.553C43.9798 47.9688 42.6225 49.3921 41.2963 50.8079C35.5828 56.9931 30.1412 64.0208 25.026 70.7313C22.307 74.6001 27.4641 78.8264 30.6428 75.3771C30.6428 75.3771 30.6866 75.3255 30.6866 75.3264C31.814 74.011 34.4628 70.9277 35.6184 69.663C38.8117 66.0699 42.6034 62.2224 45.9426 58.7906C47.7614 56.8825 49.6449 54.9698 51.5576 53.0681C52.1249 53.6341 52.695 54.1955 53.2687 54.7495C58.5335 59.8396 64.1019 64.6402 69.9568 69.0224C70.3599 69.3192 71.1617 69.9073 71.5712 70.1976C72.1103 70.5885 72.6539 70.9719 73.2003 71.3517C74.3048 72.1205 75.8281 72.0449 76.8533 71.0853C78.0408 69.9736 78.1129 68.0996 77.0129 66.8995C76.3781 66.2008 75.6174 65.4025 74.9707 64.7195C72.0473 61.6592 69.124 58.597 66.1998 55.5413C63.4771 52.6653 60.6979 49.723 57.9798 46.8111C59.3051 45.5409 60.6277 44.2845 61.9356 43.0465C69.8017 35.6317 77.9761 28.4492 86.2699 21.5284C86.9267 20.98 87.5779 20.4214 88.2282 19.8619C90.877 17.4477 87.951 13.3218 84.8388 15.0723Z" fill="#BF3030"/>
</g>
<defs>
<clipPath id="clip0_71_97">
<rect width="65" height="62" fill="white" transform="translate(24.2607 14.6521)"/>
</clipPath>
</defs>
</svg>
