<svg width="6" height="6" viewBox="0 0 6 6" fill="none" xmlns="http://www.w3.org/2000/svg">
<g clip-path="url(#clip0_1_1682)">
<path d="M3 0C1.3419 0 0 1.34175 0 3C0 4.65807 1.34175 6 3 6C4.6581 6 6 4.65825 6 3C6 1.34193 4.65825 0 3 0ZM3 5.58139C1.57662 5.58139 0.418605 4.42339 0.418605 3C0.418605 1.57661 1.57662 0.418605 3 0.418605C4.42338 0.418605 5.58139 1.57661 5.58139 3C5.58139 4.42339 4.42338 5.58139 3 5.58139Z" fill="#151448"/>
<path d="M2.99987 2.50073C2.82216 2.50073 2.6958 2.57578 2.6958 2.68635V4.19087C2.6958 4.28565 2.82216 4.38041 2.99987 4.38041C3.16967 4.38041 3.30787 4.28565 3.30787 4.19087V2.68632C3.30787 2.57577 3.16967 2.50073 2.99987 2.50073Z" fill="#151448"/>
<path d="M3.00007 1.57275C2.81842 1.57275 2.67627 1.70307 2.67627 1.85313C2.67627 2.0032 2.81843 2.13746 3.00007 2.13746C3.17777 2.13746 3.31995 2.0032 3.31995 1.85313C3.31995 1.70307 3.17776 1.57275 3.00007 1.57275Z" fill="#151448"/>
</g>
<defs>
<clipPath id="clip0_1_1682">
<rect width="6" height="6" fill="white"/>
</clipPath>
</defs>
</svg>
