<svg width="98" height="98" viewBox="0 0 98 98" fill="none" xmlns="http://www.w3.org/2000/svg">
<path d="M49.0005 98C42.3877 98 35.9693 96.7043 29.9267 94.1478C24.0917 91.6799 18.851 88.1468 14.3532 83.6479C9.85429 79.149 6.32226 73.9094 3.85323 68.0744C1.2957 62.0307 0 55.6134 0 49.0005C0 42.3877 1.2957 35.9704 3.85213 29.9267C6.32008 24.0917 9.8532 18.851 14.3521 14.3532C18.851 9.85429 24.0906 6.32226 29.9256 3.85432C35.9693 1.2957 42.3866 0 49.0005 0C55.6145 0 61.6898 1.22906 67.5948 3.65221C69.7546 4.53822 70.7859 7.00725 69.8999 9.16712C69.0139 11.327 66.5449 12.3583 64.385 11.4723C59.5038 9.46864 54.3275 8.45262 49.0005 8.45262C43.6735 8.45262 38.2154 9.52436 33.2195 11.6372C28.3917 13.6791 24.0545 16.6037 20.3302 20.3291C16.6048 24.0545 13.6813 28.3906 11.6383 33.2184C9.52545 38.2143 8.45372 43.5239 8.45372 48.9994C8.45372 54.475 9.52545 59.7845 11.6383 64.7805C13.6802 69.6082 16.6048 73.9454 20.3302 77.6697C24.0556 81.3951 28.3917 84.3187 33.2195 86.3616C38.2154 88.4745 43.5249 89.5462 49.0005 89.5462C54.4761 89.5462 59.7856 88.4745 64.7816 86.3616C69.6093 84.3198 73.9465 81.3951 77.6708 77.6697C81.3962 73.9443 84.3198 69.6082 86.3627 64.7805C88.4756 59.7845 89.5473 54.475 89.5473 48.9994C89.5473 44.0122 88.6537 39.1451 86.8915 34.5337C86.059 32.3531 87.1504 29.9103 89.331 29.0767C91.5116 28.2431 93.9545 29.3356 94.788 31.5163C96.9195 37.0956 98 42.9776 98 48.9994C98 55.6123 96.7043 62.0307 94.1478 68.0744C91.6799 73.9094 88.1468 79.1501 83.6479 83.6479C79.149 88.1468 73.9094 91.6788 68.0744 94.1478C62.0307 96.7043 55.6134 98 48.9994 98H49.0005Z" fill="url(#paint0_linear_71_98)"/>
<path d="M82.371 7.88353C82.371 7.88353 57.3376 37.7468 46.7754 50.3466C44.5674 46.8823 42.2557 43.4813 39.8413 40.1503C36.8817 36.0284 31.0096 35.2177 27.046 38.3903C23.1895 41.4602 22.5515 47.0746 25.6203 50.9311C30.4229 56.9299 34.7929 63.2817 38.8744 69.8115C41.9596 74.5726 49.2214 74.6032 52.3351 69.8334L90.0184 13.6257C93.1976 8.48549 86.3881 3.39338 82.3699 7.88244L82.371 7.88353Z" fill="url(#paint1_linear_71_98)"/>
<defs>
<linearGradient id="paint0_linear_71_98" x1="49" y1="0" x2="49" y2="98" gradientUnits="userSpaceOnUse">
<stop stop-color="#1AC315"/>
<stop offset="1" stop-color="#0D5D0A"/>
</linearGradient>
<linearGradient id="paint1_linear_71_98" x1="57.2588" y1="6.15405" x2="57.2588" y2="73.3966" gradientUnits="userSpaceOnUse">
<stop stop-color="#1AC315"/>
<stop offset="1" stop-color="#0D5D0A"/>
</linearGradient>
</defs>
</svg>
