<svg width="4" height="2" viewBox="0 0 4 2" fill="none" xmlns="http://www.w3.org/2000/svg">
<path d="M0.0833498 0.482724L1.4896 1.88897C1.51575 1.91534 1.54685 1.93626 1.58112 1.95054C1.6154 1.96482 1.65216 1.97217 1.68929 1.97217C1.72642 1.97217 1.76318 1.96482 1.79745 1.95054C1.83172 1.93626 1.86283 1.91534 1.88897 1.88897L3.29522 0.482725C3.32159 0.456579 3.34251 0.425472 3.35679 0.3912C3.37107 0.356927 3.37842 0.320166 3.37842 0.283037C3.37842 0.245909 3.37107 0.209148 3.35679 0.174875C3.34251 0.140602 3.32159 0.109496 3.29522 0.0833502C3.26908 0.0569891 3.23797 0.0360652 3.2037 0.0217864C3.16943 0.00750778 3.13267 0.00015662 3.09554 0.000156616C3.05841 0.000156613 3.02165 0.00750777 2.98738 0.0217864C2.9531 0.0360652 2.922 0.056989 2.89585 0.0833501L1.68929 1.29272L0.482724 0.0833499C0.456578 0.0569888 0.425472 0.036065 0.391199 0.0217862C0.356926 0.00750754 0.320165 0.000156374 0.283037 0.00015637C0.245909 0.000156367 0.209148 0.00750752 0.174875 0.0217862C0.140602 0.0360649 0.109496 0.0569888 0.0833499 0.0833499C0.0569886 0.109496 0.0360648 0.140602 0.0217861 0.174875C0.00750748 0.209148 0.000156077 0.245909 0.000156073 0.283037C0.00015607 0.320165 0.00750747 0.356926 0.0217861 0.391199C0.0360648 0.425472 0.0569886 0.456578 0.0833498 0.482724Z" fill="#151448"/>
</svg>
