<svg width="6" height="7" viewBox="0 0 6 7" fill="none" xmlns="http://www.w3.org/2000/svg">
<path d="M5.09685 1.45288L3.77856 0.205707C3.63835 0.0730488 3.45481 0 3.26179 0H0.751953C0.337326 0 0 0.337326 0 0.751953V6.24805C0 6.66267 0.337326 7 0.751953 7H4.58008C4.99471 7 5.33203 6.66267 5.33203 6.24805V1.99913C5.33203 1.79338 5.24631 1.59428 5.09685 1.45288ZM4.69849 1.64062H3.67773C3.64004 1.64062 3.60938 1.60996 3.60938 1.57227V0.610258L4.69849 1.64062ZM4.58008 6.58984H0.751953C0.563486 6.58984 0.410156 6.43651 0.410156 6.24805V0.751953C0.410156 0.563486 0.563486 0.410156 0.751953 0.410156H3.19922V1.57227C3.19922 1.83612 3.41388 2.05078 3.67773 2.05078H4.92188V6.24805C4.92188 6.43651 4.76854 6.58984 4.58008 6.58984Z" fill="#151448"/>
<path d="M4.12891 2.73438H1.12109C1.00784 2.73438 0.916016 2.8262 0.916016 2.93945C0.916016 3.05271 1.00784 3.14453 1.12109 3.14453H4.12891C4.24216 3.14453 4.33398 3.05271 4.33398 2.93945C4.33398 2.8262 4.24216 2.73438 4.12891 2.73438Z" fill="#151448"/>
<path d="M4.12891 3.82812H1.12109C1.00784 3.82812 0.916016 3.91995 0.916016 4.0332C0.916016 4.14646 1.00784 4.23828 1.12109 4.23828H4.12891C4.24216 4.23828 4.33398 4.14646 4.33398 4.0332C4.33398 3.91995 4.24216 3.82812 4.12891 3.82812Z" fill="#151448"/>
<path d="M2.11531 4.92188H1.12109C1.00784 4.92188 0.916016 5.0137 0.916016 5.12695C0.916016 5.24021 1.00784 5.33203 1.12109 5.33203H2.11531C2.22857 5.33203 2.32039 5.24021 2.32039 5.12695C2.32039 5.0137 2.22857 4.92188 2.11531 4.92188Z" fill="#151448"/>
</svg>
