<?xml version="1.0" encoding="utf-8"?>
<!-- Generator: Adobe Illustrator 26.2.1, SVG Export Plug-In . SVG Version: 6.00 Build 0)  -->
<svg version="1.1" id="Layer_1" xmlns="http://www.w3.org/2000/svg" xmlns:xlink="http://www.w3.org/1999/xlink" x="0px" y="0px"
	 viewBox="0 0 591 591" style="enable-background:new 0 0 591 591;" xml:space="preserve">
<style type="text/css">
	.st0{fill:#006B2D;}
	.st1{fill:#E30613;}
	.st2{fill:#9D9D9C;}
</style>
<path class="st0" d="M265.2,279.9h83.7c91.1,0,136.8-47.3,136.8-114v-0.6c0-66.7-44.8-110.8-134.3-110.8h-86.3V279.9z M340.6,218.2
	v-102h12.6c34.5,0,56.7,15.4,56.7,50.6v0.7c0,35.3-22.2,50.6-56.7,50.6H340.6z"/>
<path id="path34_00000065035949704648829650000010330339934766429876_" class="st0" d="M504.6,279.9h75.1V54.5h-75.1V279.9z"/>
<path id="path34_00000081620094989566896080000013278408782651188132_" class="st1" d="M84.9,204.8H160v-75.1H84.9V204.8z"/>
<path id="path34_00000080907816173816685840000003484418945836250267_" class="st0" d="M160,279.9h75.1V54.5H160V279.9z"/>
<path id="path34_00000182488067204309067830000002561698038582413214_" class="st0" d="M9.7,279.9h75.1V54.5H9.7V279.9z"/>
<g>
	<g>
		<g>
			<path class="st2" d="M12.2,351.7h13.4V390l36.2-38.3h16.5l-31.8,32.7l33.2,43.4H63.4l-26-34.3l-11.9,12.2v22.1H12.2V351.7z"/>
			<path class="st2" d="M139.5,351.2h12.4l33.5,76.7h-14.1l-7.7-18.4h-36l-7.8,18.4H106L139.5,351.2z M158.7,397.6l-13.2-30.5
				l-13.1,30.5H158.7z"/>
			<path class="st2" d="M226.4,364.1h-24.1v-12.4H264v12.4h-24.1v63.7h-13.5V364.1z"/>
			<path class="st2" d="M300.1,351.7h13.4v76.1h-13.4V351.7z"/>
			<path class="st2" d="M359.2,351.7h13.4v63.9h40v12.2h-53.4V351.7z"/>
			<path class="st2" d="M451.2,351.7h13.4v76.1h-13.4V351.7z"/>
			<path class="st2" d="M502.3,351.7h14.2l23.2,36l23.2-36h14.2v76.1h-13.4v-54.6l-24,35.9h-0.4l-23.8-35.7v54.4h-13.2V351.7z"/>
		</g>
	</g>
	<path class="st2" d="M9.7,524.4l7.8-9.3c7.1,6.1,14.3,9.6,23.4,9.6c8.1,0,13.1-3.8,13.1-9.3v-0.2c0-5.3-3-8.2-16.8-11.3
		c-15.8-3.8-24.7-8.5-24.7-22.2v-0.2c0-12.7,10.6-21.5,25.3-21.5c10.8,0,19.4,3.3,26.9,9.3l-7,9.9c-6.7-5-13.4-7.6-20.1-7.6
		c-7.6,0-12.1,3.9-12.1,8.8v0.2c0,5.7,3.4,8.3,17.7,11.7c15.7,3.8,23.8,9.4,23.8,21.7v0.2c0,13.9-10.9,22.2-26.5,22.2
		C29.3,536.3,18.6,532.3,9.7,524.4z M97.2,443h13.6v11.9H97.2V443z M97.4,461h13v74.2h-13V461z M140.8,498.3v-0.2
		c0-20.8,15.9-38.4,38.3-38.4c12.9,0,20.9,3.6,28.5,10.1l-8.3,9.9c-5.7-4.9-11.3-8-20.8-8c-13.7,0-24.1,12-24.1,26.2v0.2
		c0,15.3,10.1,26.5,25.2,26.5c7,0,13.4-2.2,17.9-5.6v-13.9h-19v-11.3h31.6v31.2c-7.3,6.3-17.8,11.6-31,11.6
		C156.1,536.5,140.8,519.9,140.8,498.3z M238,498.3v-0.2c0-20.9,16.1-38.4,38.9-38.4c22.8,0,38.7,17.3,38.7,38.2v0.2
		c0,20.9-16.1,38.4-38.9,38.4S238,519.2,238,498.3z M301.9,498.3v-0.2c0-14.4-10.5-26.4-25.2-26.4c-14.7,0-25,11.8-25,26.2v0.2
		c0,14.4,10.5,26.3,25.2,26.3C291.6,524.4,301.9,512.7,301.9,498.3z M345.9,461H379c9.3,0,16.6,2.8,21.4,7.4c3.9,4,6.1,9.5,6.1,16
		v0.2c0,12.2-7.3,19.5-17.6,22.5l20,28.1h-15.5l-18.2-25.9h-16.3v25.9h-13V461z M378,497.8c9.3,0,15.3-4.9,15.3-12.4v-0.2
		c0-8-5.7-12.3-15.4-12.3h-19v24.9H378z M454.3,473.1h-23.5V461h60.2v12.1h-23.5v62.1h-13.1V473.1z M534.9,460.4H547l32.7,74.7
		h-13.8l-7.5-17.9h-35.1l-7.6,17.9h-13.4L534.9,460.4z M553.6,505.7L540.8,476l-12.7,29.7H553.6z"/>
</g>
</svg>
