<svg width="168" height="40" viewBox="0 0 168 40" fill="none" xmlns="http://www.w3.org/2000/svg">
<path fill-rule="evenodd" clip-rule="evenodd" d="M75.6154 0.539062L69.5434 6.82206V0.539062H66.3564V18.1381L69.5434 18.1121V10.9251L70.4544 10.0211L75.5874 18.1121H79.4614L72.7304 7.97106L79.8164 0.539062H75.6154Z" fill="#164194"/>
<path fill-rule="evenodd" clip-rule="evenodd" d="M88.1743 12.4799L86.4703 12.4549C85.8083 12.4549 85.3163 12.5989 84.9863 12.8949C84.6513 13.1829 84.4643 13.5209 84.4083 13.9039C84.3513 14.2869 84.4243 14.6429 84.6143 14.9839C84.8053 15.3199 85.1123 15.5219 85.5283 15.6019C86.0103 15.6859 86.4493 15.6849 86.8533 15.5819C87.2553 15.4839 87.6953 15.2759 88.1733 14.9649V12.4799H88.1743ZM90.5633 18.4919C90.1803 18.3299 89.8693 18.1869 89.6403 18.0699C89.4143 17.9499 89.2003 17.7719 88.9983 17.5349C88.4803 17.8279 87.9613 18.0329 87.4263 18.1519C86.8963 18.2699 86.3793 18.3299 85.8663 18.3299C85.0403 18.3299 84.3283 18.2109 83.7343 17.9699C83.1383 17.7329 82.6563 17.4249 82.2783 17.0399C81.9003 16.6569 81.6263 16.2149 81.4533 15.7089C81.2803 15.2109 81.1943 14.6889 81.1943 14.1609C81.1943 13.6129 81.2903 13.0779 81.4983 12.5459C81.7013 12.0119 81.9933 11.5349 82.3893 11.1079C82.7833 10.6739 83.2853 10.3359 83.8953 10.0789C84.5133 9.82095 85.2313 9.69695 86.0603 9.69695H88.1743V8.83895C88.1743 8.53495 88.1183 8.27895 88.0043 8.05895C87.8973 7.84795 87.7543 7.67895 87.5673 7.55095C87.3813 7.42995 87.1773 7.34095 86.9493 7.28995C86.7203 7.23095 86.4873 7.20695 86.2513 7.20695C85.9043 7.20695 85.4373 7.29995 84.8613 7.49195C84.2873 7.68595 83.7613 8.00895 83.2813 8.46395L81.7993 6.26995C82.2563 5.79195 82.8893 5.35995 83.6943 4.98595C84.5043 4.60595 85.4393 4.41895 86.5273 4.41895C88.1183 4.41895 89.3193 4.82995 90.1373 5.64795C90.9533 6.46895 91.3573 7.58095 91.3573 8.97995V15.3499C91.3573 15.5529 91.4253 15.7739 91.5503 16.0179C91.6803 16.2659 91.9503 16.6009 92.3763 17.0149L90.5633 18.4919Z" fill="#164194"/>
<mask id="mask0_137_100" style="mask-type:luminance" maskUnits="userSpaceOnUse" x="93" y="0" width="9" height="19">
<path d="M93.6133 0.481934H101.965V18.3289H93.6133V0.481934Z" fill="white"/>
</mask>
<g mask="url(#mask0_137_100)">
<path fill-rule="evenodd" clip-rule="evenodd" d="M101.411 7.31493H98.5873V14.5009C98.5873 14.8319 98.6673 15.0589 98.8313 15.1879C98.9973 15.3109 99.1933 15.3769 99.4133 15.3769C99.6453 15.3769 99.9013 15.3239 100.168 15.2169C100.428 15.1039 100.665 14.9599 100.864 14.7769L101.304 17.3729C100.921 17.7169 100.494 17.9659 100.03 18.1119C99.5603 18.2569 98.9823 18.3289 98.2813 18.3289C97.9363 18.3289 97.5913 18.2809 97.2553 18.1809C96.9123 18.0789 96.6113 17.8989 96.3463 17.6489C96.0823 17.3929 95.8643 17.0579 95.6983 16.6479C95.5373 16.2379 95.4543 15.7149 95.4543 15.0779L95.4263 7.31493H93.6133V4.66093H95.4263V1.73793L98.5873 0.481934V4.66193H101.965L101.411 7.31493Z" fill="#164194"/>
</g>
<mask id="mask1_137_100" style="mask-type:luminance" maskUnits="userSpaceOnUse" x="1" y="0" width="167" height="40">
<path d="M1 39.8759H167.214V0.481934H1V39.8759Z" fill="white"/>
</mask>
<g mask="url(#mask1_137_100)">
<path fill-rule="evenodd" clip-rule="evenodd" d="M103.722 18.1368H106.912V4.69277H103.722V18.1368ZM114.972 17.8508C114.748 17.9688 114.517 18.0638 114.286 18.1368C114.061 18.2108 113.811 18.2618 113.546 18.2898C113.28 18.3138 112.983 18.3298 112.65 18.3298C112.304 18.3298 111.962 18.2638 111.622 18.1368C111.284 18.0108 110.972 17.8028 110.699 17.5068C110.429 17.2178 110.203 16.8538 110.028 16.4178C109.857 15.9818 109.767 15.4378 109.767 14.7998V0.509766H112.903V14.6118C112.903 14.8678 112.961 15.0658 113.077 15.2168C113.197 15.3598 113.36 15.4428 113.561 15.4738C113.763 15.4998 113.991 15.4668 114.246 15.3648C114.499 15.2668 114.771 15.1048 115.046 14.8878L115.731 17.3728C115.452 17.5708 115.197 17.7328 114.972 17.8508ZM117.624 18.1368H120.813V4.69277H117.624V18.1368ZM141.919 18.1378H138.726V9.01077C138.726 8.35477 138.575 7.87577 138.272 7.57477C137.97 7.27477 137.522 7.12077 136.942 7.12077C136.814 7.12077 136.646 7.14477 136.442 7.18977C136.246 7.23777 136.032 7.29977 135.814 7.38277C135.59 7.46577 135.373 7.56977 135.155 7.69577C134.941 7.82277 134.733 7.96977 134.549 8.13377C134.566 8.24077 134.579 8.35477 134.579 8.46377V18.1358H131.391V9.01177C131.391 8.40777 131.203 7.94677 130.825 7.61677C130.451 7.28977 129.951 7.12177 129.328 7.12177C129.24 7.12177 129.107 7.14577 128.93 7.19077C128.758 7.23877 128.57 7.30677 128.358 7.39377C128.142 7.48977 127.932 7.60077 127.709 7.72677C127.488 7.85177 127.307 7.99177 127.16 8.13477V18.1378H123.97V7.83477C123.97 7.72677 123.962 7.58477 123.942 7.41477C123.928 7.23877 123.888 7.05177 123.834 6.84877C123.777 6.65277 123.697 6.45177 123.589 6.26077C123.479 6.07177 123.322 5.91177 123.119 5.78677L125.125 4.44377C125.382 4.55677 125.618 4.69077 125.839 4.84177C126.061 4.99377 126.274 5.23877 126.498 5.56577C126.951 5.27277 127.439 5.01577 127.949 4.78577C128.459 4.56377 129.093 4.44377 129.841 4.44377C130.557 4.44377 131.221 4.54777 131.83 4.76077C132.441 4.96877 132.962 5.28277 133.38 5.70277C133.912 5.28277 134.517 4.96877 135.189 4.76077C135.869 4.54777 136.538 4.44377 137.194 4.44377C138.586 4.44377 139.721 4.81877 140.596 5.56577C141.476 6.31177 141.919 7.38877 141.919 8.79277V18.1368V18.1378ZM77.181 39.6818H66.356V22.0558H77.292L76.496 24.8978H69.543V29.1618H76.275V32.0038H69.543V36.8098H77.673L77.181 39.6818ZM97.955 39.6818H94.766V30.5558C94.766 29.9028 94.613 29.4228 94.313 29.1218C94.013 28.8218 93.568 28.6688 92.983 28.6688C92.853 28.6688 92.683 28.6938 92.487 28.7388C92.287 28.7818 92.072 28.8518 91.855 28.9288C91.635 29.0128 91.413 29.1178 91.197 29.2418C90.977 29.3748 90.769 29.5208 90.594 29.6818C90.611 29.7918 90.62 29.9018 90.62 30.0038V39.6818H87.43V30.5558C87.43 29.9538 87.244 29.4908 86.869 29.1618C86.492 28.8358 85.992 28.6688 85.371 28.6688C85.281 28.6688 85.147 28.6938 84.973 28.7388C84.801 28.7818 84.606 28.8528 84.397 28.9448C84.186 29.0368 83.971 29.1468 83.75 29.2728C83.53 29.3998 83.345 29.5358 83.198 29.6808V39.6818H80.01V29.3848C80.01 29.2728 79.998 29.1288 79.982 28.9588C79.962 28.7818 79.931 28.5968 79.878 28.3978C79.815 28.1968 79.735 27.9978 79.625 27.8078C79.513 27.6158 79.359 27.4638 79.155 27.3308L81.158 25.9898C81.416 26.1018 81.655 26.2378 81.875 26.3878C82.095 26.5418 82.315 26.7838 82.534 27.1098C82.993 26.8228 83.48 26.5608 83.994 26.3338C84.502 26.1078 85.127 25.9898 85.883 25.9898C86.596 25.9898 87.253 26.0938 87.869 26.3068C88.478 26.5168 88.999 26.8318 89.42 27.2488C89.95 26.8318 90.556 26.5158 91.229 26.3068C91.909 26.0938 92.574 25.9898 93.234 25.9898C94.624 25.9898 95.759 26.3708 96.635 27.1098C97.51 27.8598 97.955 28.9348 97.955 30.3398V39.6818ZM107.35 29.6268C107.235 29.4088 107.093 29.2358 106.92 29.0948C106.74 28.9588 106.544 28.8558 106.331 28.7928C106.118 28.7288 105.915 28.6938 105.732 28.6938C105.12 28.6938 104.615 28.8618 104.225 29.1868C103.833 29.5198 103.638 29.9798 103.638 30.5868V31.2668H107.517V30.3968C107.517 30.1018 107.459 29.8478 107.35 29.6268ZM109.644 38.8438C109.269 39.0638 108.875 39.2468 108.463 39.4018C108.052 39.5518 107.617 39.6688 107.155 39.7518C106.698 39.8378 106.194 39.8758 105.648 39.8758C104.894 39.8758 104.196 39.7808 103.56 39.5858C102.916 39.3978 102.367 39.1188 101.915 38.7408C101.45 38.3668 101.096 37.8988 100.84 37.3358C100.583 36.7708 100.45 36.1128 100.45 35.3658V30.8828C100.45 30.0448 100.583 29.3208 100.855 28.6938C101.117 28.0768 101.494 27.5698 101.964 27.1698C102.443 26.7708 103.002 26.4738 103.638 26.2798C104.282 26.0878 104.978 25.9898 105.726 25.9898C106.389 25.9898 107.014 26.0828 107.61 26.2558C108.209 26.4258 108.733 26.6988 109.192 27.0758C109.649 27.4458 110.017 27.9338 110.288 28.5358C110.562 29.1358 110.699 29.8618 110.699 30.7188V33.9958H103.638V34.8798C103.638 35.6208 103.838 36.1668 104.234 36.5368C104.632 36.9058 105.169 37.0888 105.847 37.0888C106.4 37.0888 106.958 36.9858 107.543 36.7708C108.123 36.5658 108.753 36.1888 109.432 35.6428L110.813 38.1198C110.412 38.3868 110.018 38.6308 109.644 38.8438ZM121.608 39.6818L116.773 33.6458L116.39 33.9958L116.359 39.6818H113.285V22.0828H116.415V30.3388L120.893 26.2128H125.264L119.053 31.7078L125.595 39.6818H121.608ZM132.314 39.3978C132.079 39.5198 131.848 39.6128 131.62 39.6828C131.398 39.7578 131.148 39.8058 130.882 39.8368C130.617 39.8638 130.321 39.8758 129.986 39.8758C129.64 39.8758 129.298 39.8118 128.957 39.6828C128.62 39.5598 128.315 39.3498 128.038 39.0568C127.763 38.7668 127.537 38.3998 127.367 37.9618C127.19 37.5258 127.105 36.9888 127.105 36.3488V22.0568H130.238V36.1558C130.238 36.4138 130.294 36.6148 130.416 36.7598C130.535 36.9058 130.696 36.9948 130.893 37.0178C131.095 37.0448 131.324 37.0138 131.579 36.9118C131.841 36.8098 132.104 36.6528 132.381 36.4328L133.062 38.9198C132.788 39.1218 132.54 39.2788 132.314 39.3978ZM134.96 39.6818H138.12V26.2118H134.96V39.6818ZM137.956 23.6388C137.572 24.0248 137.103 24.2178 136.554 24.2178C136.007 24.2178 135.538 24.0248 135.156 23.6388C134.767 23.2578 134.579 22.7928 134.579 22.2448C134.579 21.6988 134.767 21.2378 135.156 20.8528C135.538 20.4708 136.006 20.2828 136.554 20.2828C137.103 20.2828 137.572 20.4708 137.956 20.8528C138.344 21.2378 138.536 21.6988 138.536 22.2448C138.536 22.7928 138.344 23.2578 137.956 23.6388ZM146.21 39.3978C145.986 39.5198 145.756 39.6128 145.521 39.6828C145.295 39.7578 145.05 39.8058 144.784 39.8368C144.517 39.8638 144.22 39.8758 143.892 39.8758C143.544 39.8758 143.199 39.8118 142.865 39.6828C142.52 39.5598 142.213 39.3498 141.942 39.0568C141.666 38.7668 141.44 38.3998 141.265 37.9618C141.092 37.5258 141.003 36.9888 141.003 36.3488V22.0568H144.135V36.1558C144.135 36.4138 144.199 36.6148 144.317 36.7598C144.434 36.9058 144.595 36.9948 144.793 37.0178C144.997 37.0448 145.228 37.0138 145.486 36.9118C145.742 36.8098 146.004 36.6528 146.282 36.4328L146.97 38.9198C146.692 39.1218 146.438 39.2788 146.21 39.3978ZM148.867 39.6818H152.021V26.2118H148.867V39.6818ZM151.86 23.6388C151.475 24.0248 151.01 24.2178 150.457 24.2178C149.904 24.2178 149.442 24.0248 149.054 23.6388C148.671 23.2578 148.476 22.7928 148.476 22.2448C148.476 21.6988 148.671 21.2378 149.054 20.8528C149.442 20.4708 149.904 20.2828 150.457 20.2828C151.01 20.2828 151.475 20.4708 151.86 20.8528C152.243 21.2378 152.437 21.6988 152.437 22.2448C152.437 22.7928 152.243 23.2578 151.86 23.6388ZM163.231 39.6818L158.396 33.6458L158.014 33.9958L157.988 39.6818H154.912V22.0828H158.038V30.3388L162.522 26.2128H166.889L160.677 31.7078L167.214 39.6818H163.231ZM22.31 17.2778C22.31 20.2538 25.678 26.0238 28.23 29.9548V17.2438C28.23 15.7248 29.465 14.4978 31 14.4978C32.529 14.4978 33.768 15.7248 33.768 17.2438C33.768 17.5908 33.706 17.9178 33.59 18.2198L29.027 31.1668C30.183 32.9068 31.022 34.0648 31.022 34.0648C31.022 34.0648 39.737 22.0648 39.737 17.2768C39.737 12.4888 35.829 8.60977 31.022 8.60977C26.21 8.60977 22.311 12.4898 22.311 17.2768M41.116 22.6058L32.272 38.3758L47.197 28.8818C48.787 27.8658 50.529 27.0358 52.717 27.0358L57.704 27.0188L47.767 21.0768C46.911 20.5658 46.014 20.3388 45.157 20.3378C43.441 20.3378 41.881 21.2458 41.116 22.6058ZM14.279 21.0758L4.339 27.0188L9.32 27.0358C11.518 27.0358 13.261 27.8658 14.848 28.8818L29.776 38.3748L20.929 22.6058C20.169 21.2458 18.609 20.3388 16.892 20.3378C16.034 20.3378 15.136 20.5638 14.279 21.0758ZM45.718 33.2298L32.896 39.7858H61.043L57.851 35.8518C56.081 33.6658 54.425 31.5598 51.327 31.5598C49.844 31.5598 48.032 32.0428 45.718 33.2298ZM4.199 35.8518L1 39.7858H29.154L16.332 33.2298C14.017 32.0428 12.202 31.5598 10.719 31.5598C7.618 31.5598 5.963 33.6658 4.199 35.8518Z" fill="#164194"/>
</g>
<mask id="mask2_137_100" style="mask-type:luminance" maskUnits="userSpaceOnUse" x="1" y="8" width="61" height="32">
<path d="M22.311 17.2759C22.311 20.2529 25.678 26.0239 28.229 29.9539V17.2429C28.229 15.7239 29.466 14.4969 30.999 14.4969C32.529 14.4969 33.768 15.7239 33.768 17.2429C33.768 17.5899 33.706 17.9169 33.591 18.2189L29.027 31.1659C30.183 32.9059 31.022 34.0639 31.022 34.0639C31.022 34.0639 39.737 22.0639 39.737 17.2759C39.737 12.4879 35.829 8.60986 31.022 8.60986C26.21 8.60986 22.311 12.4879 22.311 17.2759ZM41.116 22.6049L32.272 38.3749L47.197 28.8809C48.787 27.8649 50.529 27.0349 52.717 27.0349L57.704 27.0179L47.767 21.0759C46.911 20.5649 46.014 20.3379 45.157 20.3369C43.441 20.3369 41.882 21.2449 41.116 22.6049ZM14.28 21.0749L4.34 27.0179L9.32 27.0349C11.518 27.0349 13.261 27.8649 14.848 28.8809L29.776 38.3739L20.929 22.6039C20.169 21.2449 18.609 20.3379 16.892 20.3369C16.033 20.3369 15.136 20.5639 14.28 21.0759V21.0749ZM45.718 33.2299L32.895 39.7859H61.043L57.851 35.8519C56.081 33.6669 54.425 31.5599 51.327 31.5599C49.844 31.5599 48.031 32.0429 45.718 33.2299ZM4.198 35.8499L1 39.7849H29.154L16.332 33.2299C14.016 32.0429 12.202 31.5599 10.719 31.5599C7.618 31.5599 5.964 33.6669 4.199 35.8519L4.198 35.8499Z" fill="white"/>
</mask>
<g mask="url(#mask2_137_100)">
<path fill-rule="evenodd" clip-rule="evenodd" d="M4.33984 38.375H4.61584V19.542H4.33984V38.375ZM4.61584 38.375H4.97984V19.542H4.61584V38.375ZM4.97984 38.375H5.34184V19.542H4.97984V38.375ZM5.34184 38.375H5.70284V19.542H5.34184V38.375ZM5.70284 38.375H6.06484V19.542H5.70284V38.375Z" fill="#164194"/>
</g>
<mask id="mask3_137_100" style="mask-type:luminance" maskUnits="userSpaceOnUse" x="1" y="8" width="61" height="32">
<path d="M22.311 17.2759C22.311 20.2529 25.678 26.0239 28.229 29.9539V17.2429C28.229 15.7239 29.466 14.4969 30.999 14.4969C32.529 14.4969 33.768 15.7239 33.768 17.2429C33.768 17.5899 33.706 17.9169 33.591 18.2189L29.027 31.1659C30.183 32.9059 31.022 34.0639 31.022 34.0639C31.022 34.0639 39.737 22.0639 39.737 17.2759C39.737 12.4879 35.829 8.60986 31.022 8.60986C26.21 8.60986 22.311 12.4879 22.311 17.2759ZM41.116 22.6049L32.272 38.3749L47.197 28.8809C48.787 27.8649 50.529 27.0349 52.717 27.0349L57.704 27.0179L47.767 21.0759C46.911 20.5649 46.014 20.3379 45.157 20.3369C43.441 20.3369 41.882 21.2449 41.116 22.6049ZM14.28 21.0749L4.34 27.0179L9.32 27.0349C11.518 27.0349 13.261 27.8649 14.848 28.8809L29.776 38.3739L20.929 22.6039C20.169 21.2449 18.609 20.3379 16.892 20.3369C16.033 20.3369 15.136 20.5639 14.28 21.0759V21.0749ZM45.718 33.2299L32.895 39.7859H61.043L57.851 35.8519C56.081 33.6669 54.425 31.5599 51.327 31.5599C49.844 31.5599 48.031 32.0429 45.718 33.2299ZM4.198 35.8499L1 39.7849H29.154L16.332 33.2299C14.016 32.0429 12.202 31.5599 10.719 31.5599C7.618 31.5599 5.964 33.6669 4.199 35.8519L4.198 35.8499Z" fill="white"/>
</mask>
<g mask="url(#mask3_137_100)">
<path fill-rule="evenodd" clip-rule="evenodd" d="M6.06445 38.375H6.42645V19.542H6.06445V38.375ZM6.42645 38.375H6.78745V19.542H6.42645V38.375ZM6.78745 38.375H7.14945V19.542H6.78745V38.375ZM7.14945 38.375H7.51145V19.542H7.14945V38.375ZM7.51145 38.375H7.87245V19.542H7.51145V38.375ZM7.87245 38.375H8.23545V19.542H7.87245V38.375ZM8.23545 38.375H8.59645V19.542H8.23545V38.375ZM8.59645 38.375H8.95845V19.542H8.59645V38.375ZM8.95845 38.375H9.31945V19.542H8.95845V38.375ZM9.31945 38.375H9.68145V19.542H9.31945V38.375ZM9.68245 38.375H10.0435V19.542H9.68245V38.375ZM10.0435 38.375H10.4045V19.542H10.0435V38.375ZM10.4045 38.375H10.7665V19.542H10.4045V38.375ZM10.7665 38.375H11.1295V19.542H10.7665V38.375ZM11.1295 38.375H11.4905V19.542H11.1295V38.375ZM11.4905 38.375H11.8525V19.542H11.4905V38.375ZM11.8525 38.375H12.2145V19.542H11.8525V38.375Z" fill="#164194"/>
</g>
<mask id="mask4_137_100" style="mask-type:luminance" maskUnits="userSpaceOnUse" x="1" y="8" width="61" height="32">
<path d="M22.311 17.2759C22.311 20.2529 25.678 26.0239 28.229 29.9539V17.2429C28.229 15.7239 29.466 14.4969 30.999 14.4969C32.529 14.4969 33.768 15.7239 33.768 17.2429C33.768 17.5899 33.706 17.9169 33.591 18.2189L29.027 31.1659C30.183 32.9059 31.022 34.0639 31.022 34.0639C31.022 34.0639 39.737 22.0639 39.737 17.2759C39.737 12.4879 35.829 8.60986 31.022 8.60986C26.21 8.60986 22.311 12.4879 22.311 17.2759ZM41.116 22.6049L32.272 38.3749L47.197 28.8809C48.787 27.8649 50.529 27.0349 52.717 27.0349L57.704 27.0179L47.767 21.0759C46.911 20.5649 46.014 20.3379 45.157 20.3369C43.441 20.3369 41.882 21.2449 41.116 22.6049ZM14.28 21.0749L4.34 27.0179L9.32 27.0349C11.518 27.0349 13.261 27.8649 14.848 28.8809L29.776 38.3739L20.929 22.6039C20.169 21.2449 18.609 20.3379 16.892 20.3369C16.033 20.3369 15.136 20.5639 14.28 21.0759V21.0749ZM45.718 33.2299L32.895 39.7859H61.043L57.851 35.8519C56.081 33.6669 54.425 31.5599 51.327 31.5599C49.844 31.5599 48.031 32.0429 45.718 33.2299ZM4.198 35.8499L1 39.7849H29.154L16.332 33.2299C14.016 32.0429 12.202 31.5599 10.719 31.5599C7.618 31.5599 5.964 33.6669 4.199 35.8519L4.198 35.8499Z" fill="white"/>
</mask>
<g mask="url(#mask4_137_100)">
<path fill-rule="evenodd" clip-rule="evenodd" d="M12.2129 38.375H12.5749V19.542H12.2129V38.375ZM12.5749 38.375H12.9359V19.542H12.5749V38.375ZM12.9359 38.375H13.2969V19.542H12.9359V38.375ZM13.2979 38.375H13.6589V19.542H13.2979V38.375ZM13.6589 38.375H14.0209V19.542H13.6589V38.375ZM14.0209 38.375H14.3849V19.542H14.0209V38.375ZM14.3849 38.375H14.7459V19.542H14.3849V38.375ZM14.7459 38.375H15.1069V19.542H14.7459V38.375ZM15.1069 38.375H15.4689V19.542H15.1069V38.375ZM15.4689 38.375H15.8299V19.542H15.4689V38.375ZM15.8299 38.375H16.1909V19.542H15.8299V38.375ZM16.1919 38.375H16.5529V19.542H16.1919V38.375ZM16.5529 38.375H16.9139V19.542H16.5529V38.375ZM16.9139 38.375H17.2779V19.542H16.9139V38.375ZM17.2779 38.375H17.6389V19.542H17.2779V38.375ZM17.6389 38.375H17.9999V19.542H17.6389V38.375ZM17.9999 38.375H18.3619V19.542H17.9999V38.375ZM18.3629 38.375H18.7239V19.542H18.3629V38.375ZM18.7239 38.375H19.0859V19.542H18.7239V38.375Z" fill="#164194"/>
</g>
<mask id="mask5_137_100" style="mask-type:luminance" maskUnits="userSpaceOnUse" x="1" y="8" width="61" height="32">
<path d="M22.311 17.2759C22.311 20.2529 25.678 26.0239 28.229 29.9539V17.2429C28.229 15.7239 29.466 14.4969 30.999 14.4969C32.529 14.4969 33.768 15.7239 33.768 17.2429C33.768 17.5899 33.706 17.9169 33.591 18.2189L29.027 31.1659C30.183 32.9059 31.022 34.0639 31.022 34.0639C31.022 34.0639 39.737 22.0639 39.737 17.2759C39.737 12.4879 35.829 8.60986 31.022 8.60986C26.21 8.60986 22.311 12.4879 22.311 17.2759ZM41.116 22.6049L32.272 38.3749L47.197 28.8809C48.787 27.8649 50.529 27.0349 52.717 27.0349L57.704 27.0179L47.767 21.0759C46.911 20.5649 46.014 20.3379 45.157 20.3369C43.441 20.3369 41.882 21.2449 41.116 22.6049ZM14.28 21.0749L4.34 27.0179L9.32 27.0349C11.518 27.0349 13.261 27.8649 14.848 28.8809L29.776 38.3739L20.929 22.6039C20.169 21.2449 18.609 20.3379 16.892 20.3369C16.033 20.3369 15.136 20.5639 14.28 21.0759V21.0749ZM45.718 33.2299L32.895 39.7859H61.043L57.851 35.8519C56.081 33.6669 54.425 31.5599 51.327 31.5599C49.844 31.5599 48.031 32.0429 45.718 33.2299ZM4.198 35.8499L1 39.7849H29.154L16.332 33.2299C14.016 32.0429 12.202 31.5599 10.719 31.5599C7.618 31.5599 5.964 33.6669 4.199 35.8519L4.198 35.8499Z" fill="white"/>
</mask>
<g mask="url(#mask5_137_100)">
<path fill-rule="evenodd" clip-rule="evenodd" d="M19.085 38.375H19.447V19.542H19.085V38.375ZM19.447 38.375H19.808V19.542H19.447V38.375ZM19.808 38.375H20.17V19.542H19.808V38.375ZM20.17 38.375H20.533V19.542H20.17V38.375ZM20.533 38.375H20.895V19.542H20.533V38.375ZM20.895 38.375H21.256V19.542H20.895V38.375ZM21.256 38.375H21.617V19.542H21.256V38.375ZM21.617 38.375H21.979V19.542H21.617V38.375ZM21.979 38.375H22.34V19.542H21.979V38.375ZM22.34 38.375H22.702V19.542H22.34V38.375ZM22.702 38.375H23.064V19.542H22.702V38.375ZM23.064 38.375H23.427V19.542H23.064V38.375ZM23.427 38.375H23.788V19.542H23.427V38.375ZM23.788 38.375H24.15V19.542H23.788V38.375ZM24.15 38.375H24.511V19.542H24.15V38.375ZM24.511 38.375H24.873V19.542H24.511V38.375ZM24.873 38.375H25.234V19.542H24.873V38.375ZM25.234 38.375H25.595V19.542H25.234V38.375ZM25.595 38.375H25.957V19.542H25.595V38.375ZM25.957 38.375H26.318V19.542H25.957V38.375ZM26.318 38.375H26.682V19.542H26.318V38.375ZM26.682 38.375H27.044V19.542H26.682V38.375ZM27.044 38.375H27.406V19.542H27.044V38.375ZM27.406 38.375H27.767V19.542H27.406V38.375Z" fill="#164194"/>
</g>
<mask id="mask6_137_100" style="mask-type:luminance" maskUnits="userSpaceOnUse" x="1" y="8" width="61" height="32">
<path d="M22.311 17.2759C22.311 20.2529 25.678 26.0239 28.229 29.9539V17.2429C28.229 15.7239 29.466 14.4969 30.999 14.4969C32.529 14.4969 33.768 15.7239 33.768 17.2429C33.768 17.5899 33.706 17.9169 33.591 18.2189L29.027 31.1659C30.183 32.9059 31.022 34.0639 31.022 34.0639C31.022 34.0639 39.737 22.0639 39.737 17.2759C39.737 12.4879 35.829 8.60986 31.022 8.60986C26.21 8.60986 22.311 12.4879 22.311 17.2759ZM41.116 22.6049L32.272 38.3749L47.197 28.8809C48.787 27.8649 50.529 27.0349 52.717 27.0349L57.704 27.0179L47.767 21.0759C46.911 20.5649 46.014 20.3379 45.157 20.3369C43.441 20.3369 41.882 21.2449 41.116 22.6049ZM14.28 21.0749L4.34 27.0179L9.32 27.0349C11.518 27.0349 13.261 27.8649 14.848 28.8809L29.776 38.3739L20.929 22.6039C20.169 21.2449 18.609 20.3379 16.892 20.3369C16.033 20.3369 15.136 20.5639 14.28 21.0759V21.0749ZM45.718 33.2299L32.895 39.7859H61.043L57.851 35.8519C56.081 33.6669 54.425 31.5599 51.327 31.5599C49.844 31.5599 48.031 32.0429 45.718 33.2299ZM4.198 35.8499L1 39.7849H29.154L16.332 33.2299C14.016 32.0429 12.202 31.5599 10.719 31.5599C7.618 31.5599 5.964 33.6669 4.199 35.8519L4.198 35.8499Z" fill="white"/>
</mask>
<g mask="url(#mask6_137_100)">
<path fill-rule="evenodd" clip-rule="evenodd" d="M27.766 38.375H28.128V19.542H27.766V38.375ZM28.128 38.375H28.489V19.542H28.128V38.375ZM28.489 38.375H28.851V19.542H28.489V38.375ZM28.851 38.375H29.212V19.542H28.851V38.375ZM29.212 38.375H29.576V19.542H29.212V38.375ZM29.576 38.375H29.776V19.542H29.576V38.375ZM1 39.785H1.362V29.561H1V39.785Z" fill="#164194"/>
</g>
<mask id="mask7_137_100" style="mask-type:luminance" maskUnits="userSpaceOnUse" x="1" y="8" width="61" height="32">
<path d="M22.311 17.2759C22.311 20.2529 25.678 26.0239 28.229 29.9539V17.2429C28.229 15.7239 29.466 14.4969 30.999 14.4969C32.529 14.4969 33.768 15.7239 33.768 17.2429C33.768 17.5899 33.706 17.9169 33.591 18.2189L29.027 31.1659C30.183 32.9059 31.022 34.0639 31.022 34.0639C31.022 34.0639 39.737 22.0639 39.737 17.2759C39.737 12.4879 35.829 8.60986 31.022 8.60986C26.21 8.60986 22.311 12.4879 22.311 17.2759ZM41.116 22.6049L32.272 38.3749L47.197 28.8809C48.787 27.8649 50.529 27.0349 52.717 27.0349L57.704 27.0179L47.767 21.0759C46.911 20.5649 46.014 20.3379 45.157 20.3369C43.441 20.3369 41.882 21.2449 41.116 22.6049ZM14.28 21.0749L4.34 27.0179L9.32 27.0349C11.518 27.0349 13.261 27.8649 14.848 28.8809L29.776 38.3739L20.929 22.6039C20.169 21.2449 18.609 20.3379 16.892 20.3369C16.033 20.3369 15.136 20.5639 14.28 21.0759V21.0749ZM45.718 33.2299L32.895 39.7859H61.043L57.851 35.8519C56.081 33.6669 54.425 31.5599 51.327 31.5599C49.844 31.5599 48.031 32.0429 45.718 33.2299ZM4.198 35.8499L1 39.7849H29.154L16.332 33.2299C14.016 32.0429 12.202 31.5599 10.719 31.5599C7.618 31.5599 5.964 33.6669 4.199 35.8519L4.198 35.8499Z" fill="white"/>
</mask>
<g mask="url(#mask7_137_100)">
<path fill-rule="evenodd" clip-rule="evenodd" d="M1.36133 39.785H1.72333V29.561H1.36133V39.785ZM1.72333 39.785H2.08633V29.561H1.72333V39.785ZM2.08633 39.785H2.44833V29.561H2.08633V39.785ZM2.44833 39.785H2.80933V29.561H2.44833V39.785ZM2.80933 39.785H3.17133V29.561H2.80933V39.785ZM3.17133 39.785H3.53233V29.561H3.17133V39.785ZM3.53233 39.785H3.89333V29.561H3.53233V39.785ZM3.89333 39.785H4.25533V29.561H3.89333V39.785ZM4.25533 39.785H4.61633V29.561H4.25533V39.785ZM4.61633 39.785H4.98033V29.561H4.61633V39.785ZM4.98033 39.785H5.34233V29.561H4.98033V39.785ZM5.34233 39.785H5.70333V29.561H5.34233V39.785ZM5.70333 39.785H6.06533V29.561H5.70333V39.785Z" fill="#164194"/>
</g>
<mask id="mask8_137_100" style="mask-type:luminance" maskUnits="userSpaceOnUse" x="1" y="8" width="61" height="32">
<path d="M22.311 17.2759C22.311 20.2529 25.678 26.0239 28.229 29.9539V17.2429C28.229 15.7239 29.466 14.4969 30.999 14.4969C32.529 14.4969 33.768 15.7239 33.768 17.2429C33.768 17.5899 33.706 17.9169 33.591 18.2189L29.027 31.1659C30.183 32.9059 31.022 34.0639 31.022 34.0639C31.022 34.0639 39.737 22.0639 39.737 17.2759C39.737 12.4879 35.829 8.60986 31.022 8.60986C26.21 8.60986 22.311 12.4879 22.311 17.2759ZM41.116 22.6049L32.272 38.3749L47.197 28.8809C48.787 27.8649 50.529 27.0349 52.717 27.0349L57.704 27.0179L47.767 21.0759C46.911 20.5649 46.014 20.3379 45.157 20.3369C43.441 20.3369 41.882 21.2449 41.116 22.6049ZM14.28 21.0749L4.34 27.0179L9.32 27.0349C11.518 27.0349 13.261 27.8649 14.848 28.8809L29.776 38.3739L20.929 22.6039C20.169 21.2449 18.609 20.3379 16.892 20.3369C16.033 20.3369 15.136 20.5639 14.28 21.0759V21.0749ZM45.718 33.2299L32.895 39.7859H61.043L57.851 35.8519C56.081 33.6669 54.425 31.5599 51.327 31.5599C49.844 31.5599 48.031 32.0429 45.718 33.2299ZM4.198 35.8499L1 39.7849H29.154L16.332 33.2299C14.016 32.0429 12.202 31.5599 10.719 31.5599C7.618 31.5599 5.964 33.6669 4.199 35.8519L4.198 35.8499Z" fill="white"/>
</mask>
<g mask="url(#mask8_137_100)">
<path fill-rule="evenodd" clip-rule="evenodd" d="M6.06445 39.785H6.42645V29.561H6.06445V39.785ZM6.42645 39.785H6.78745V29.561H6.42645V39.785ZM6.78745 39.785H7.14945V29.561H6.78745V39.785ZM7.14945 39.785H7.51145V29.561H7.14945V39.785ZM7.51145 39.785H7.87245V29.561H7.51145V39.785ZM7.87245 39.785H8.23545V29.561H7.87245V39.785ZM8.23545 39.785H8.59645V29.561H8.23545V39.785ZM8.59645 39.785H8.95845V29.561H8.59645V39.785ZM8.95845 39.785H9.31945V29.561H8.95845V39.785ZM9.31945 39.785H9.68145V29.561H9.31945V39.785ZM9.68245 39.785H10.0435V29.561H9.68245V39.785ZM10.0435 39.785H10.4045V29.561H10.0435V39.785ZM10.4045 39.785H10.7665V29.561H10.4045V39.785ZM10.7665 39.785H11.1295V29.561H10.7665V39.785ZM11.1295 39.785H11.4905V29.561H11.1295V39.785ZM11.4905 39.785H11.8525V29.561H11.4905V39.785ZM11.8525 39.785H12.2145V29.561H11.8525V39.785Z" fill="#164194"/>
</g>
<mask id="mask9_137_100" style="mask-type:luminance" maskUnits="userSpaceOnUse" x="1" y="8" width="61" height="32">
<path d="M22.311 17.2759C22.311 20.2529 25.678 26.0239 28.229 29.9539V17.2429C28.229 15.7239 29.466 14.4969 30.999 14.4969C32.529 14.4969 33.768 15.7239 33.768 17.2429C33.768 17.5899 33.706 17.9169 33.591 18.2189L29.027 31.1659C30.183 32.9059 31.022 34.0639 31.022 34.0639C31.022 34.0639 39.737 22.0639 39.737 17.2759C39.737 12.4879 35.829 8.60986 31.022 8.60986C26.21 8.60986 22.311 12.4879 22.311 17.2759ZM41.116 22.6049L32.272 38.3749L47.197 28.8809C48.787 27.8649 50.529 27.0349 52.717 27.0349L57.704 27.0179L47.767 21.0759C46.911 20.5649 46.014 20.3379 45.157 20.3369C43.441 20.3369 41.882 21.2449 41.116 22.6049ZM14.28 21.0749L4.34 27.0179L9.32 27.0349C11.518 27.0349 13.261 27.8649 14.848 28.8809L29.776 38.3739L20.929 22.6039C20.169 21.2449 18.609 20.3379 16.892 20.3369C16.033 20.3369 15.136 20.5639 14.28 21.0759V21.0749ZM45.718 33.2299L32.895 39.7859H61.043L57.851 35.8519C56.081 33.6669 54.425 31.5599 51.327 31.5599C49.844 31.5599 48.031 32.0429 45.718 33.2299ZM4.198 35.8499L1 39.7849H29.154L16.332 33.2299C14.016 32.0429 12.202 31.5599 10.719 31.5599C7.618 31.5599 5.964 33.6669 4.199 35.8519L4.198 35.8499Z" fill="white"/>
</mask>
<g mask="url(#mask9_137_100)">
<path fill-rule="evenodd" clip-rule="evenodd" d="M12.2129 39.785H12.5749V29.561H12.2129V39.785ZM12.5749 39.785H12.9359V29.561H12.5749V39.785ZM12.9359 39.785H13.2969V29.561H12.9359V39.785ZM13.2979 39.785H13.6589V29.561H13.2979V39.785ZM13.6589 39.785H14.0209V29.561H13.6589V39.785ZM14.0209 39.785H14.3849V29.561H14.0209V39.785ZM14.3849 39.785H14.7459V29.561H14.3849V39.785ZM14.7459 39.785H15.1069V29.561H14.7459V39.785ZM15.1069 39.785H15.4689V29.561H15.1069V39.785ZM15.4689 39.785H15.8299V29.561H15.4689V39.785ZM15.8299 39.785H16.1909V29.561H15.8299V39.785ZM16.1919 39.785H16.5529V29.561H16.1919V39.785ZM16.5529 39.785H16.9139V29.561H16.5529V39.785ZM16.9139 39.785H17.2779V29.561H16.9139V39.785ZM17.2779 39.785H17.6389V29.561H17.2779V39.785ZM17.6389 39.785H17.9999V29.561H17.6389V39.785ZM17.9999 39.785H18.3619V29.561H17.9999V39.785ZM18.3629 39.785H18.7239V29.561H18.3629V39.785ZM18.7239 39.785H19.0859V29.561H18.7239V39.785Z" fill="#164194"/>
</g>
<mask id="mask10_137_100" style="mask-type:luminance" maskUnits="userSpaceOnUse" x="1" y="8" width="61" height="32">
<path d="M22.311 17.2759C22.311 20.2529 25.678 26.0239 28.229 29.9539V17.2429C28.229 15.7239 29.466 14.4969 30.999 14.4969C32.529 14.4969 33.768 15.7239 33.768 17.2429C33.768 17.5899 33.706 17.9169 33.591 18.2189L29.027 31.1659C30.183 32.9059 31.022 34.0639 31.022 34.0639C31.022 34.0639 39.737 22.0639 39.737 17.2759C39.737 12.4879 35.829 8.60986 31.022 8.60986C26.21 8.60986 22.311 12.4879 22.311 17.2759ZM41.116 22.6049L32.272 38.3749L47.197 28.8809C48.787 27.8649 50.529 27.0349 52.717 27.0349L57.704 27.0179L47.767 21.0759C46.911 20.5649 46.014 20.3379 45.157 20.3369C43.441 20.3369 41.882 21.2449 41.116 22.6049ZM14.28 21.0749L4.34 27.0179L9.32 27.0349C11.518 27.0349 13.261 27.8649 14.848 28.8809L29.776 38.3739L20.929 22.6039C20.169 21.2449 18.609 20.3379 16.892 20.3369C16.033 20.3369 15.136 20.5639 14.28 21.0759V21.0749ZM45.718 33.2299L32.895 39.7859H61.043L57.851 35.8519C56.081 33.6669 54.425 31.5599 51.327 31.5599C49.844 31.5599 48.031 32.0429 45.718 33.2299ZM4.198 35.8499L1 39.7849H29.154L16.332 33.2299C14.016 32.0429 12.202 31.5599 10.719 31.5599C7.618 31.5599 5.964 33.6669 4.199 35.8519L4.198 35.8499Z" fill="white"/>
</mask>
<g mask="url(#mask10_137_100)">
<path fill-rule="evenodd" clip-rule="evenodd" d="M19.085 39.785H19.447V29.561H19.085V39.785ZM19.447 39.785H19.808V29.561H19.447V39.785ZM19.808 39.785H20.17V29.561H19.808V39.785ZM20.17 39.785H20.533V29.561H20.17V39.785ZM20.533 39.785H20.895V29.561H20.533V39.785ZM20.895 39.785H21.256V29.561H20.895V39.785ZM21.256 39.785H21.617V29.561H21.256V39.785ZM21.617 39.785H21.979V29.561H21.617V39.785ZM21.979 39.785H22.34V29.561H21.979V39.785ZM22.34 39.785H22.702V29.561H22.34V39.785ZM22.702 39.785H23.064V29.561H22.702V39.785ZM23.064 39.785H23.427V29.561H23.064V39.785ZM23.427 39.785H23.788V29.561H23.427V39.785ZM23.788 39.785H24.15V29.561H23.788V39.785ZM24.15 39.785H24.511V29.561H24.15V39.785ZM24.511 39.785H24.873V29.561H24.511V39.785ZM24.873 39.785H25.234V29.561H24.873V39.785ZM25.234 39.785H25.595V29.561H25.234V39.785ZM25.595 39.785H25.957V29.561H25.595V39.785ZM25.957 39.785H26.318V29.561H25.957V39.785ZM26.318 39.785H26.682V29.561H26.318V39.785ZM26.682 39.785H27.044V29.561H26.682V39.785ZM27.044 39.785H27.406V29.561H27.044V39.785ZM27.406 39.785H27.767V29.561H27.406V39.785Z" fill="#164194"/>
</g>
<mask id="mask11_137_100" style="mask-type:luminance" maskUnits="userSpaceOnUse" x="1" y="8" width="61" height="32">
<path d="M22.311 17.2759C22.311 20.2529 25.678 26.0239 28.229 29.9539V17.2429C28.229 15.7239 29.466 14.4969 30.999 14.4969C32.529 14.4969 33.768 15.7239 33.768 17.2429C33.768 17.5899 33.706 17.9169 33.591 18.2189L29.027 31.1659C30.183 32.9059 31.022 34.0639 31.022 34.0639C31.022 34.0639 39.737 22.0639 39.737 17.2759C39.737 12.4879 35.829 8.60986 31.022 8.60986C26.21 8.60986 22.311 12.4879 22.311 17.2759ZM41.116 22.6049L32.272 38.3749L47.197 28.8809C48.787 27.8649 50.529 27.0349 52.717 27.0349L57.704 27.0179L47.767 21.0759C46.911 20.5649 46.014 20.3379 45.157 20.3369C43.441 20.3369 41.882 21.2449 41.116 22.6049ZM14.28 21.0749L4.34 27.0179L9.32 27.0349C11.518 27.0349 13.261 27.8649 14.848 28.8809L29.776 38.3739L20.929 22.6039C20.169 21.2449 18.609 20.3379 16.892 20.3369C16.033 20.3369 15.136 20.5639 14.28 21.0759V21.0749ZM45.718 33.2299L32.895 39.7859H61.043L57.851 35.8519C56.081 33.6669 54.425 31.5599 51.327 31.5599C49.844 31.5599 48.031 32.0429 45.718 33.2299ZM4.198 35.8499L1 39.7849H29.154L16.332 33.2299C14.016 32.0429 12.202 31.5599 10.719 31.5599C7.618 31.5599 5.964 33.6669 4.199 35.8519L4.198 35.8499Z" fill="white"/>
</mask>
<g mask="url(#mask11_137_100)">
<path fill-rule="evenodd" clip-rule="evenodd" d="M27.7656 39.785H28.1276V29.561H27.7656V39.785ZM28.1276 39.785H28.4886V29.561H28.1276V39.785ZM28.4886 39.785H28.8506V29.561H28.4886V39.785ZM28.8506 39.785H29.1536V29.561H28.8506V39.785ZM32.2726 38.375H32.4676V19.542H32.2726V38.375ZM32.4676 38.375H32.8306V19.542H32.4676V38.375ZM32.8306 38.375H33.1916V19.542H32.8306V38.375ZM33.1916 38.375H33.5536V19.542H33.1916V38.375ZM33.5536 38.375H33.9156V19.542H33.5536V38.375ZM33.9156 38.375H34.2766V19.542H33.9156V38.375ZM34.2766 38.375H34.6376V19.542H34.2766V38.375ZM34.6376 38.375H34.9996V19.542H34.6376V38.375ZM34.9996 38.375H35.3606V19.542H34.9996V38.375ZM35.3606 38.375H35.7236V19.542H35.3606V38.375ZM35.7236 38.375H36.0856V19.542H35.7236V38.375ZM36.0866 38.375H36.4476V19.542H36.0866V38.375ZM36.4476 38.375H36.8086V19.542H36.4476V38.375ZM36.8086 38.375H37.1706V19.542H36.8086V38.375ZM37.1706 38.375H37.5316V19.542H37.1706V38.375ZM37.5316 38.375H37.8926V19.542H37.5316V38.375ZM37.8926 38.375H38.2546V19.542H37.8926V38.375ZM38.2546 38.375H38.6156V19.542H38.2546V38.375ZM38.6156 38.375H38.9796V19.542H38.6156V38.375ZM38.9796 38.375H39.3406V19.542H38.9796V38.375ZM39.3406 38.375H39.7026V19.542H39.3406V38.375ZM39.7026 38.375H40.0636V19.542H39.7026V38.375ZM40.0636 38.375H40.4256V19.542H40.0636V38.375ZM40.4256 38.375H40.7876V19.542H40.4256V38.375Z" fill="#164194"/>
</g>
<mask id="mask12_137_100" style="mask-type:luminance" maskUnits="userSpaceOnUse" x="1" y="8" width="61" height="32">
<path d="M22.311 17.2759C22.311 20.2529 25.678 26.0239 28.229 29.9539V17.2429C28.229 15.7239 29.466 14.4969 30.999 14.4969C32.529 14.4969 33.768 15.7239 33.768 17.2429C33.768 17.5899 33.706 17.9169 33.591 18.2189L29.027 31.1659C30.183 32.9059 31.022 34.0639 31.022 34.0639C31.022 34.0639 39.737 22.0639 39.737 17.2759C39.737 12.4879 35.829 8.60986 31.022 8.60986C26.21 8.60986 22.311 12.4879 22.311 17.2759ZM41.116 22.6049L32.272 38.3749L47.197 28.8809C48.787 27.8649 50.529 27.0349 52.717 27.0349L57.704 27.0179L47.767 21.0759C46.911 20.5649 46.014 20.3379 45.157 20.3369C43.441 20.3369 41.882 21.2449 41.116 22.6049ZM14.28 21.0749L4.34 27.0179L9.32 27.0349C11.518 27.0349 13.261 27.8649 14.848 28.8809L29.776 38.3739L20.929 22.6039C20.169 21.2449 18.609 20.3379 16.892 20.3369C16.033 20.3369 15.136 20.5639 14.28 21.0759V21.0749ZM45.718 33.2299L32.895 39.7859H61.043L57.851 35.8519C56.081 33.6669 54.425 31.5599 51.327 31.5599C49.844 31.5599 48.031 32.0429 45.718 33.2299ZM4.198 35.8499L1 39.7849H29.154L16.332 33.2299C14.016 32.0429 12.202 31.5599 10.719 31.5599C7.618 31.5599 5.964 33.6669 4.199 35.8519L4.198 35.8499Z" fill="white"/>
</mask>
<g mask="url(#mask12_137_100)">
<path fill-rule="evenodd" clip-rule="evenodd" d="M40.7871 38.375H41.1491V19.542H40.7871V38.375ZM41.1491 38.375H41.5101V19.542H41.1491V38.375ZM41.5101 38.375H41.8741V19.542H41.5101V38.375ZM41.8741 38.375H42.2351V19.542H41.8741V38.375ZM42.2351 38.375H42.5961V19.542H42.2351V38.375ZM42.5961 38.375H42.9581V19.542H42.5961V38.375ZM42.9581 38.375H43.3191V19.542H42.9581V38.375ZM43.3191 38.375H43.6811V19.542H43.3191V38.375ZM43.6811 38.375H44.0421V19.542H43.6811V38.375ZM44.0421 38.375H44.4041V19.542H44.0421V38.375ZM44.4041 38.375H44.7661V19.542H44.4041V38.375ZM44.7661 38.375H45.1291V19.542H44.7661V38.375ZM45.1291 38.375H45.4911V19.542H45.1291V38.375Z" fill="#164194"/>
</g>
<mask id="mask13_137_100" style="mask-type:luminance" maskUnits="userSpaceOnUse" x="1" y="8" width="61" height="32">
<path d="M22.311 17.2759C22.311 20.2529 25.678 26.0239 28.229 29.9539V17.2429C28.229 15.7239 29.466 14.4969 30.999 14.4969C32.529 14.4969 33.768 15.7239 33.768 17.2429C33.768 17.5899 33.706 17.9169 33.591 18.2189L29.027 31.1659C30.183 32.9059 31.022 34.0639 31.022 34.0639C31.022 34.0639 39.737 22.0639 39.737 17.2759C39.737 12.4879 35.829 8.60986 31.022 8.60986C26.21 8.60986 22.311 12.4879 22.311 17.2759ZM41.116 22.6049L32.272 38.3749L47.197 28.8809C48.787 27.8649 50.529 27.0349 52.717 27.0349L57.704 27.0179L47.767 21.0759C46.911 20.5649 46.014 20.3379 45.157 20.3369C43.441 20.3369 41.882 21.2449 41.116 22.6049ZM14.28 21.0749L4.34 27.0179L9.32 27.0349C11.518 27.0349 13.261 27.8649 14.848 28.8809L29.776 38.3739L20.929 22.6039C20.169 21.2449 18.609 20.3379 16.892 20.3369C16.033 20.3369 15.136 20.5639 14.28 21.0759V21.0749ZM45.718 33.2299L32.895 39.7859H61.043L57.851 35.8519C56.081 33.6669 54.425 31.5599 51.327 31.5599C49.844 31.5599 48.031 32.0429 45.718 33.2299ZM4.198 35.8499L1 39.7849H29.154L16.332 33.2299C14.016 32.0429 12.202 31.5599 10.719 31.5599C7.618 31.5599 5.964 33.6669 4.199 35.8519L4.198 35.8499Z" fill="white"/>
</mask>
<g mask="url(#mask13_137_100)">
<path fill-rule="evenodd" clip-rule="evenodd" d="M45.4902 38.375H45.8522V19.542H45.4902V38.375ZM45.8522 38.375H46.2132V19.542H45.8522V38.375ZM46.2132 38.375H46.5752V19.542H46.2132V38.375ZM46.5752 38.375H46.9372V19.542H46.5752V38.375ZM46.9372 38.375H47.2982V19.542H46.9372V38.375Z" fill="#164194"/>
</g>
<mask id="mask14_137_100" style="mask-type:luminance" maskUnits="userSpaceOnUse" x="1" y="8" width="61" height="32">
<path d="M22.311 17.2759C22.311 20.2529 25.678 26.0239 28.229 29.9539V17.2429C28.229 15.7239 29.466 14.4969 30.999 14.4969C32.529 14.4969 33.768 15.7239 33.768 17.2429C33.768 17.5899 33.706 17.9169 33.591 18.2189L29.027 31.1659C30.183 32.9059 31.022 34.0639 31.022 34.0639C31.022 34.0639 39.737 22.0639 39.737 17.2759C39.737 12.4879 35.829 8.60986 31.022 8.60986C26.21 8.60986 22.311 12.4879 22.311 17.2759ZM41.116 22.6049L32.272 38.3749L47.197 28.8809C48.787 27.8649 50.529 27.0349 52.717 27.0349L57.704 27.0179L47.767 21.0759C46.911 20.5649 46.014 20.3379 45.157 20.3369C43.441 20.3369 41.882 21.2449 41.116 22.6049ZM14.28 21.0749L4.34 27.0179L9.32 27.0349C11.518 27.0349 13.261 27.8649 14.848 28.8809L29.776 38.3739L20.929 22.6039C20.169 21.2449 18.609 20.3379 16.892 20.3369C16.033 20.3369 15.136 20.5639 14.28 21.0759V21.0749ZM45.718 33.2299L32.895 39.7859H61.043L57.851 35.8519C56.081 33.6669 54.425 31.5599 51.327 31.5599C49.844 31.5599 48.031 32.0429 45.718 33.2299ZM4.198 35.8499L1 39.7849H29.154L16.332 33.2299C14.016 32.0429 12.202 31.5599 10.719 31.5599C7.618 31.5599 5.964 33.6669 4.199 35.8519L4.198 35.8499Z" fill="white"/>
</mask>
<g mask="url(#mask14_137_100)">
<path fill-rule="evenodd" clip-rule="evenodd" d="M47.2969 38.375H47.6589V19.542H47.2969V38.375ZM47.6589 38.375H48.0219V19.542H47.6589V38.375ZM48.0219 38.375H48.3839V19.542H48.0219V38.375ZM48.3839 38.375H48.7449V19.542H48.3839V38.375ZM48.7449 38.375H49.1069V19.542H48.7449V38.375ZM49.1079 38.375H49.4689V19.542H49.1079V38.375ZM49.4689 38.375H49.8299V19.542H49.4689V38.375ZM49.8299 38.375H50.1909V19.542H49.8299V38.375ZM50.1909 38.375H50.5529V19.542H50.1909V38.375ZM50.5529 38.375H50.9139V19.542H50.5529V38.375ZM50.9139 38.375H51.2779V19.542H50.9139V38.375ZM51.2779 38.375H51.6399V19.542H51.2779V38.375Z" fill="#164194"/>
</g>
<mask id="mask15_137_100" style="mask-type:luminance" maskUnits="userSpaceOnUse" x="1" y="8" width="61" height="32">
<path d="M22.311 17.2759C22.311 20.2529 25.678 26.0239 28.229 29.9539V17.2429C28.229 15.7239 29.466 14.4969 30.999 14.4969C32.529 14.4969 33.768 15.7239 33.768 17.2429C33.768 17.5899 33.706 17.9169 33.591 18.2189L29.027 31.1659C30.183 32.9059 31.022 34.0639 31.022 34.0639C31.022 34.0639 39.737 22.0639 39.737 17.2759C39.737 12.4879 35.829 8.60986 31.022 8.60986C26.21 8.60986 22.311 12.4879 22.311 17.2759ZM41.116 22.6049L32.272 38.3749L47.197 28.8809C48.787 27.8649 50.529 27.0349 52.717 27.0349L57.704 27.0179L47.767 21.0759C46.911 20.5649 46.014 20.3379 45.157 20.3369C43.441 20.3369 41.882 21.2449 41.116 22.6049ZM14.28 21.0749L4.34 27.0179L9.32 27.0349C11.518 27.0349 13.261 27.8649 14.848 28.8809L29.776 38.3739L20.929 22.6039C20.169 21.2449 18.609 20.3379 16.892 20.3369C16.033 20.3369 15.136 20.5639 14.28 21.0759V21.0749ZM45.718 33.2299L32.895 39.7859H61.043L57.851 35.8519C56.081 33.6669 54.425 31.5599 51.327 31.5599C49.844 31.5599 48.031 32.0429 45.718 33.2299ZM4.198 35.8499L1 39.7849H29.154L16.332 33.2299C14.016 32.0429 12.202 31.5599 10.719 31.5599C7.618 31.5599 5.964 33.6669 4.199 35.8519L4.198 35.8499Z" fill="white"/>
</mask>
<g mask="url(#mask15_137_100)">
<path fill-rule="evenodd" clip-rule="evenodd" d="M51.6385 38.375H51.9995V19.542H51.6385V38.375ZM51.9995 38.375H52.3615V19.542H51.9995V38.375ZM52.3615 38.375H52.7225V19.542H52.3615V38.375ZM52.7225 38.375H53.0845V19.542H52.7225V38.375ZM53.0845 38.375H53.4465V19.542H53.0845V38.375ZM53.4465 38.375H53.8085V19.542H53.4465V38.375ZM53.8085 38.375H54.1715V19.542H53.8085V38.375ZM54.1715 38.375H54.5325V19.542H54.1715V38.375ZM54.5325 38.375H54.8935V19.542H54.5325V38.375ZM54.8935 38.375H55.2555V19.542H54.8935V38.375ZM55.2555 38.375H55.6165V19.542H55.2555V38.375ZM55.6165 38.375H55.9785V19.542H55.6165V38.375ZM55.9785 38.375H56.3395V19.542H55.9785V38.375ZM56.3395 38.375H56.7015V19.542H56.3395V38.375ZM56.7015 38.375H57.0625V19.542H56.7015V38.375ZM57.0625 38.375H57.4255V19.542H57.0625V38.375ZM57.4255 38.375H57.7025V19.542H57.4255V38.375ZM32.8945 39.785H33.1915V29.561H32.8945V39.785ZM33.1915 39.785H33.5535V29.561H33.1915V39.785ZM33.5535 39.785H33.9155V29.561H33.5535V39.785ZM33.9155 39.785H34.2765V29.561H33.9155V39.785ZM34.2765 39.785H34.6375V29.561H34.2765V39.785ZM34.6375 39.785H34.9995V29.561H34.6375V39.785ZM34.9995 39.785H35.3605V29.561H34.9995V39.785ZM35.3605 39.785H35.7235V29.561H35.3605V39.785ZM35.7235 39.785H36.0855V29.561H35.7235V39.785ZM36.0865 39.785H36.4475V29.561H36.0865V39.785ZM36.4475 39.785H36.8085V29.561H36.4475V39.785ZM36.8085 39.785H37.1705V29.561H36.8085V39.785ZM37.1705 39.785H37.5315V29.561H37.1705V39.785ZM37.5315 39.785H37.8925V29.561H37.5315V39.785ZM37.8925 39.785H38.2545V29.561H37.8925V39.785ZM38.2545 39.785H38.6155V29.561H38.2545V39.785ZM38.6155 39.785H38.9795V29.561H38.6155V39.785ZM38.9795 39.785H39.3405V29.561H38.9795V39.785ZM39.3405 39.785H39.7025V29.561H39.3405V39.785ZM39.7025 39.785H40.0635V29.561H39.7025V39.785ZM40.0635 39.785H40.4255V29.561H40.0635V39.785ZM40.4255 39.785H40.7875V29.561H40.4255V39.785Z" fill="#164194"/>
</g>
<mask id="mask16_137_100" style="mask-type:luminance" maskUnits="userSpaceOnUse" x="1" y="8" width="61" height="32">
<path d="M22.311 17.2759C22.311 20.2529 25.678 26.0239 28.229 29.9539V17.2429C28.229 15.7239 29.466 14.4969 30.999 14.4969C32.529 14.4969 33.768 15.7239 33.768 17.2429C33.768 17.5899 33.706 17.9169 33.591 18.2189L29.027 31.1659C30.183 32.9059 31.022 34.0639 31.022 34.0639C31.022 34.0639 39.737 22.0639 39.737 17.2759C39.737 12.4879 35.829 8.60986 31.022 8.60986C26.21 8.60986 22.311 12.4879 22.311 17.2759ZM41.116 22.6049L32.272 38.3749L47.197 28.8809C48.787 27.8649 50.529 27.0349 52.717 27.0349L57.704 27.0179L47.767 21.0759C46.911 20.5649 46.014 20.3379 45.157 20.3369C43.441 20.3369 41.882 21.2449 41.116 22.6049ZM14.28 21.0749L4.34 27.0179L9.32 27.0349C11.518 27.0349 13.261 27.8649 14.848 28.8809L29.776 38.3739L20.929 22.6039C20.169 21.2449 18.609 20.3379 16.892 20.3369C16.033 20.3369 15.136 20.5639 14.28 21.0759V21.0749ZM45.718 33.2299L32.895 39.7859H61.043L57.851 35.8519C56.081 33.6669 54.425 31.5599 51.327 31.5599C49.844 31.5599 48.031 32.0429 45.718 33.2299ZM4.198 35.8499L1 39.7849H29.154L16.332 33.2299C14.016 32.0429 12.202 31.5599 10.719 31.5599C7.618 31.5599 5.964 33.6669 4.199 35.8519L4.198 35.8499Z" fill="white"/>
</mask>
<g mask="url(#mask16_137_100)">
<path fill-rule="evenodd" clip-rule="evenodd" d="M40.7871 39.785H41.1491V29.561H40.7871V39.785ZM41.1491 39.785H41.5101V29.561H41.1491V39.785ZM41.5101 39.785H41.8741V29.561H41.5101V39.785ZM41.8741 39.785H42.2351V29.561H41.8741V39.785ZM42.2351 39.785H42.5961V29.561H42.2351V39.785ZM42.5961 39.785H42.9581V29.561H42.5961V39.785ZM42.9581 39.785H43.3191V29.561H42.9581V39.785ZM43.3191 39.785H43.6811V29.561H43.3191V39.785ZM43.6811 39.785H44.0421V29.561H43.6811V39.785ZM44.0421 39.785H44.4041V29.561H44.0421V39.785ZM44.4041 39.785H44.7661V29.561H44.4041V39.785ZM44.7661 39.785H45.1291V29.561H44.7661V39.785ZM45.1291 39.785H45.4911V29.561H45.1291V39.785Z" fill="#164194"/>
</g>
<mask id="mask17_137_100" style="mask-type:luminance" maskUnits="userSpaceOnUse" x="1" y="8" width="61" height="32">
<path d="M22.311 17.2759C22.311 20.2529 25.678 26.0239 28.229 29.9539V17.2429C28.229 15.7239 29.466 14.4969 30.999 14.4969C32.529 14.4969 33.768 15.7239 33.768 17.2429C33.768 17.5899 33.706 17.9169 33.591 18.2189L29.027 31.1659C30.183 32.9059 31.022 34.0639 31.022 34.0639C31.022 34.0639 39.737 22.0639 39.737 17.2759C39.737 12.4879 35.829 8.60986 31.022 8.60986C26.21 8.60986 22.311 12.4879 22.311 17.2759ZM41.116 22.6049L32.272 38.3749L47.197 28.8809C48.787 27.8649 50.529 27.0349 52.717 27.0349L57.704 27.0179L47.767 21.0759C46.911 20.5649 46.014 20.3379 45.157 20.3369C43.441 20.3369 41.882 21.2449 41.116 22.6049ZM14.28 21.0749L4.34 27.0179L9.32 27.0349C11.518 27.0349 13.261 27.8649 14.848 28.8809L29.776 38.3739L20.929 22.6039C20.169 21.2449 18.609 20.3379 16.892 20.3369C16.033 20.3369 15.136 20.5639 14.28 21.0759V21.0749ZM45.718 33.2299L32.895 39.7859H61.043L57.851 35.8519C56.081 33.6669 54.425 31.5599 51.327 31.5599C49.844 31.5599 48.031 32.0429 45.718 33.2299ZM4.198 35.8499L1 39.7849H29.154L16.332 33.2299C14.016 32.0429 12.202 31.5599 10.719 31.5599C7.618 31.5599 5.964 33.6669 4.199 35.8519L4.198 35.8499Z" fill="white"/>
</mask>
<g mask="url(#mask17_137_100)">
<path fill-rule="evenodd" clip-rule="evenodd" d="M45.4902 39.785H45.8522V29.561H45.4902V39.785ZM45.8522 39.785H46.2132V29.561H45.8522V39.785ZM46.2132 39.785H46.5752V29.561H46.2132V39.785ZM46.5752 39.785H46.9372V29.561H46.5752V39.785ZM46.9372 39.785H47.2982V29.561H46.9372V39.785Z" fill="#164194"/>
</g>
<mask id="mask18_137_100" style="mask-type:luminance" maskUnits="userSpaceOnUse" x="1" y="8" width="61" height="32">
<path d="M22.311 17.2759C22.311 20.2529 25.678 26.0239 28.229 29.9539V17.2429C28.229 15.7239 29.466 14.4969 30.999 14.4969C32.529 14.4969 33.768 15.7239 33.768 17.2429C33.768 17.5899 33.706 17.9169 33.591 18.2189L29.027 31.1659C30.183 32.9059 31.022 34.0639 31.022 34.0639C31.022 34.0639 39.737 22.0639 39.737 17.2759C39.737 12.4879 35.829 8.60986 31.022 8.60986C26.21 8.60986 22.311 12.4879 22.311 17.2759ZM41.116 22.6049L32.272 38.3749L47.197 28.8809C48.787 27.8649 50.529 27.0349 52.717 27.0349L57.704 27.0179L47.767 21.0759C46.911 20.5649 46.014 20.3379 45.157 20.3369C43.441 20.3369 41.882 21.2449 41.116 22.6049ZM14.28 21.0749L4.34 27.0179L9.32 27.0349C11.518 27.0349 13.261 27.8649 14.848 28.8809L29.776 38.3739L20.929 22.6039C20.169 21.2449 18.609 20.3379 16.892 20.3369C16.033 20.3369 15.136 20.5639 14.28 21.0759V21.0749ZM45.718 33.2299L32.895 39.7859H61.043L57.851 35.8519C56.081 33.6669 54.425 31.5599 51.327 31.5599C49.844 31.5599 48.031 32.0429 45.718 33.2299ZM4.198 35.8499L1 39.7849H29.154L16.332 33.2299C14.016 32.0429 12.202 31.5599 10.719 31.5599C7.618 31.5599 5.964 33.6669 4.199 35.8519L4.198 35.8499Z" fill="white"/>
</mask>
<g mask="url(#mask18_137_100)">
<path fill-rule="evenodd" clip-rule="evenodd" d="M47.2969 39.785H47.6589V29.561H47.2969V39.785ZM47.6589 39.785H48.0219V29.561H47.6589V39.785ZM48.0219 39.785H48.3839V29.561H48.0219V39.785ZM48.3839 39.785H48.7449V29.561H48.3839V39.785ZM48.7449 39.785H49.1069V29.561H48.7449V39.785ZM49.1079 39.785H49.4689V29.561H49.1079V39.785ZM49.4689 39.785H49.8299V29.561H49.4689V39.785ZM49.8299 39.785H50.1909V29.561H49.8299V39.785ZM50.1909 39.785H50.5529V29.561H50.1909V39.785ZM50.5529 39.785H50.9139V29.561H50.5529V39.785ZM50.9139 39.785H51.2779V29.561H50.9139V39.785ZM51.2779 39.785H51.6399V29.561H51.2779V39.785Z" fill="#164194"/>
</g>
<mask id="mask19_137_100" style="mask-type:luminance" maskUnits="userSpaceOnUse" x="1" y="8" width="61" height="32">
<path d="M22.311 17.2759C22.311 20.2529 25.678 26.0239 28.229 29.9539V17.2429C28.229 15.7239 29.466 14.4969 30.999 14.4969C32.529 14.4969 33.768 15.7239 33.768 17.2429C33.768 17.5899 33.706 17.9169 33.591 18.2189L29.027 31.1659C30.183 32.9059 31.022 34.0639 31.022 34.0639C31.022 34.0639 39.737 22.0639 39.737 17.2759C39.737 12.4879 35.829 8.60986 31.022 8.60986C26.21 8.60986 22.311 12.4879 22.311 17.2759ZM41.116 22.6049L32.272 38.3749L47.197 28.8809C48.787 27.8649 50.529 27.0349 52.717 27.0349L57.704 27.0179L47.767 21.0759C46.911 20.5649 46.014 20.3379 45.157 20.3369C43.441 20.3369 41.882 21.2449 41.116 22.6049ZM14.28 21.0749L4.34 27.0179L9.32 27.0349C11.518 27.0349 13.261 27.8649 14.848 28.8809L29.776 38.3739L20.929 22.6039C20.169 21.2449 18.609 20.3379 16.892 20.3369C16.033 20.3369 15.136 20.5639 14.28 21.0759V21.0749ZM45.718 33.2299L32.895 39.7859H61.043L57.851 35.8519C56.081 33.6669 54.425 31.5599 51.327 31.5599C49.844 31.5599 48.031 32.0429 45.718 33.2299ZM4.198 35.8499L1 39.7849H29.154L16.332 33.2299C14.016 32.0429 12.202 31.5599 10.719 31.5599C7.618 31.5599 5.964 33.6669 4.199 35.8519L4.198 35.8499Z" fill="white"/>
</mask>
<g mask="url(#mask19_137_100)">
<path fill-rule="evenodd" clip-rule="evenodd" d="M51.6387 39.785H51.9997V29.561H51.6387V39.785ZM51.9997 39.785H52.3617V29.561H51.9997V39.785ZM52.3617 39.785H52.7227V29.561H52.3617V39.785ZM52.7227 39.785H53.0847V29.561H52.7227V39.785ZM53.0847 39.785H53.4467V29.561H53.0847V39.785ZM53.4467 39.785H53.8087V29.561H53.4467V39.785ZM53.8087 39.785H54.1717V29.561H53.8087V39.785ZM54.1717 39.785H54.5327V29.561H54.1717V39.785ZM54.5327 39.785H54.8937V29.561H54.5327V39.785ZM54.8937 39.785H55.2557V29.561H54.8937V39.785ZM55.2557 39.785H55.6167V29.561H55.2557V39.785ZM55.6167 39.785H55.9787V29.561H55.6167V39.785ZM55.9787 39.785H56.3397V29.561H55.9787V39.785ZM56.3397 39.785H56.7017V29.561H56.3397V39.785ZM56.7017 39.785H57.0627V29.561H56.7017V39.785ZM57.0627 39.785H57.4257V29.561H57.0627V39.785ZM57.4257 39.785H57.7877V29.561H57.4257V39.785ZM57.7887 39.785H58.1497V29.561H57.7887V39.785ZM58.1497 39.785H58.5117V29.561H58.1497V39.785Z" fill="#164194"/>
</g>
<mask id="mask20_137_100" style="mask-type:luminance" maskUnits="userSpaceOnUse" x="1" y="8" width="61" height="32">
<path d="M22.311 17.2759C22.311 20.2529 25.678 26.0239 28.229 29.9539V17.2429C28.229 15.7239 29.466 14.4969 30.999 14.4969C32.529 14.4969 33.768 15.7239 33.768 17.2429C33.768 17.5899 33.706 17.9169 33.591 18.2189L29.027 31.1659C30.183 32.9059 31.022 34.0639 31.022 34.0639C31.022 34.0639 39.737 22.0639 39.737 17.2759C39.737 12.4879 35.829 8.60986 31.022 8.60986C26.21 8.60986 22.311 12.4879 22.311 17.2759ZM41.116 22.6049L32.272 38.3749L47.197 28.8809C48.787 27.8649 50.529 27.0349 52.717 27.0349L57.704 27.0179L47.767 21.0759C46.911 20.5649 46.014 20.3379 45.157 20.3369C43.441 20.3369 41.882 21.2449 41.116 22.6049ZM14.28 21.0749L4.34 27.0179L9.32 27.0349C11.518 27.0349 13.261 27.8649 14.848 28.8809L29.776 38.3739L20.929 22.6039C20.169 21.2449 18.609 20.3379 16.892 20.3369C16.033 20.3369 15.136 20.5639 14.28 21.0759V21.0749ZM45.718 33.2299L32.895 39.7859H61.043L57.851 35.8519C56.081 33.6669 54.425 31.5599 51.327 31.5599C49.844 31.5599 48.031 32.0429 45.718 33.2299ZM4.198 35.8499L1 39.7849H29.154L16.332 33.2299C14.016 32.0429 12.202 31.5599 10.719 31.5599C7.618 31.5599 5.964 33.6669 4.199 35.8519L4.198 35.8499Z" fill="white"/>
</mask>
<g mask="url(#mask20_137_100)">
<path fill-rule="evenodd" clip-rule="evenodd" d="M58.5106 39.7849H58.8726V29.5609H58.5106V39.7849ZM58.8726 39.7849H59.2336V29.5609H58.8726V39.7849ZM59.2336 39.7849H59.5946V29.5609H59.2336V39.7849ZM59.5946 39.7849H59.9566V29.5609H59.5946V39.7849ZM59.9566 39.7849H60.3206V29.5609H59.9566V39.7849ZM60.3206 39.7849H60.6816V29.5609H60.3206V39.7849ZM60.6816 39.7849H61.0426V29.5609H60.6816V39.7849ZM22.3096 34.0639H22.3396V8.60889H22.3096V34.0639ZM22.3396 34.0639H22.7016V8.60889H22.3396V34.0639ZM22.7016 34.0639H23.0636V8.60889H22.7016V34.0639ZM23.0636 34.0639H23.4266V8.60889H23.0636V34.0639ZM23.4266 34.0639H23.7876V8.60889H23.4266V34.0639ZM23.7876 34.0639H24.1496V8.60889H23.7876V34.0639ZM24.1496 34.0639H24.5106V8.60889H24.1496V34.0639ZM24.5106 34.0639H24.8726V8.60889H24.5106V34.0639ZM24.8726 34.0639H25.2336V8.60889H24.8726V34.0639ZM25.2336 34.0639H25.5946V8.60889H25.2336V34.0639ZM25.5946 34.0639H25.9566V8.60889H25.5946V34.0639ZM25.9566 34.0639H26.3176V8.60889H25.9566V34.0639ZM26.3176 34.0639H26.6816V8.60889H26.3176V34.0639ZM26.6816 34.0639H27.0436V8.60889H26.6816V34.0639ZM27.0436 34.0639H27.4056V8.60889H27.0436V34.0639ZM27.4056 34.0639H27.7666V8.60889H27.4056V34.0639Z" fill="#164194"/>
</g>
<mask id="mask21_137_100" style="mask-type:luminance" maskUnits="userSpaceOnUse" x="1" y="8" width="61" height="32">
<path d="M22.311 17.2759C22.311 20.2529 25.678 26.0239 28.229 29.9539V17.2429C28.229 15.7239 29.466 14.4969 30.999 14.4969C32.529 14.4969 33.768 15.7239 33.768 17.2429C33.768 17.5899 33.706 17.9169 33.591 18.2189L29.027 31.1659C30.183 32.9059 31.022 34.0639 31.022 34.0639C31.022 34.0639 39.737 22.0639 39.737 17.2759C39.737 12.4879 35.829 8.60986 31.022 8.60986C26.21 8.60986 22.311 12.4879 22.311 17.2759ZM41.116 22.6049L32.272 38.3749L47.197 28.8809C48.787 27.8649 50.529 27.0349 52.717 27.0349L57.704 27.0179L47.767 21.0759C46.911 20.5649 46.014 20.3379 45.157 20.3369C43.441 20.3369 41.882 21.2449 41.116 22.6049ZM14.28 21.0749L4.34 27.0179L9.32 27.0349C11.518 27.0349 13.261 27.8649 14.848 28.8809L29.776 38.3739L20.929 22.6039C20.169 21.2449 18.609 20.3379 16.892 20.3369C16.033 20.3369 15.136 20.5639 14.28 21.0759V21.0749ZM45.718 33.2299L32.895 39.7859H61.043L57.851 35.8519C56.081 33.6669 54.425 31.5599 51.327 31.5599C49.844 31.5599 48.031 32.0429 45.718 33.2299ZM4.198 35.8499L1 39.7849H29.154L16.332 33.2299C14.016 32.0429 12.202 31.5599 10.719 31.5599C7.618 31.5599 5.964 33.6669 4.199 35.8519L4.198 35.8499Z" fill="white"/>
</mask>
<g mask="url(#mask21_137_100)">
<path fill-rule="evenodd" clip-rule="evenodd" d="M27.7656 34.0639H28.1276V8.60889H27.7656V34.0639ZM28.1276 34.0639H28.4886V8.60889H28.1276V34.0639ZM28.4886 34.0639H28.8506V8.60889H28.4886V34.0639ZM28.8506 34.0639H29.2116V8.60889H28.8506V34.0639ZM29.2116 34.0639H29.5756V8.60889H29.2116V34.0639ZM29.5756 34.0639H29.9376V8.60889H29.5756V34.0639Z" fill="#164194"/>
</g>
<mask id="mask22_137_100" style="mask-type:luminance" maskUnits="userSpaceOnUse" x="1" y="8" width="61" height="32">
<path d="M22.311 17.2759C22.311 20.2529 25.678 26.0239 28.229 29.9539V17.2429C28.229 15.7239 29.466 14.4969 30.999 14.4969C32.529 14.4969 33.768 15.7239 33.768 17.2429C33.768 17.5899 33.706 17.9169 33.591 18.2189L29.027 31.1659C30.183 32.9059 31.022 34.0639 31.022 34.0639C31.022 34.0639 39.737 22.0639 39.737 17.2759C39.737 12.4879 35.829 8.60986 31.022 8.60986C26.21 8.60986 22.311 12.4879 22.311 17.2759ZM41.116 22.6049L32.272 38.3749L47.197 28.8809C48.787 27.8649 50.529 27.0349 52.717 27.0349L57.704 27.0179L47.767 21.0759C46.911 20.5649 46.014 20.3379 45.157 20.3369C43.441 20.3369 41.882 21.2449 41.116 22.6049ZM14.28 21.0749L4.34 27.0179L9.32 27.0349C11.518 27.0349 13.261 27.8649 14.848 28.8809L29.776 38.3739L20.929 22.6039C20.169 21.2449 18.609 20.3379 16.892 20.3369C16.033 20.3369 15.136 20.5639 14.28 21.0759V21.0749ZM45.718 33.2299L32.895 39.7859H61.043L57.851 35.8519C56.081 33.6669 54.425 31.5599 51.327 31.5599C49.844 31.5599 48.031 32.0429 45.718 33.2299ZM4.198 35.8499L1 39.7849H29.154L16.332 33.2299C14.016 32.0429 12.202 31.5599 10.719 31.5599C7.618 31.5599 5.964 33.6669 4.199 35.8519L4.198 35.8499Z" fill="white"/>
</mask>
<g mask="url(#mask22_137_100)">
<path fill-rule="evenodd" clip-rule="evenodd" d="M29.9365 34.0639H30.2975V8.60889H29.9365V34.0639ZM30.2975 34.0639H30.6595V8.60889H30.2975V34.0639ZM30.6595 34.0639H31.0205V8.60889H30.6595V34.0639ZM31.0205 34.0639H31.3825V8.60889H31.0205V34.0639ZM31.3835 34.0639H31.7445V8.60889H31.3835V34.0639ZM31.7445 34.0639H32.1065V8.60889H31.7445V34.0639Z" fill="#164194"/>
</g>
<mask id="mask23_137_100" style="mask-type:luminance" maskUnits="userSpaceOnUse" x="1" y="8" width="61" height="32">
<path d="M22.311 17.2759C22.311 20.2529 25.678 26.0239 28.229 29.9539V17.2429C28.229 15.7239 29.466 14.4969 30.999 14.4969C32.529 14.4969 33.768 15.7239 33.768 17.2429C33.768 17.5899 33.706 17.9169 33.591 18.2189L29.027 31.1659C30.183 32.9059 31.022 34.0639 31.022 34.0639C31.022 34.0639 39.737 22.0639 39.737 17.2759C39.737 12.4879 35.829 8.60986 31.022 8.60986C26.21 8.60986 22.311 12.4879 22.311 17.2759ZM41.116 22.6049L32.272 38.3749L47.197 28.8809C48.787 27.8649 50.529 27.0349 52.717 27.0349L57.704 27.0179L47.767 21.0759C46.911 20.5649 46.014 20.3379 45.157 20.3369C43.441 20.3369 41.882 21.2449 41.116 22.6049ZM14.28 21.0749L4.34 27.0179L9.32 27.0349C11.518 27.0349 13.261 27.8649 14.848 28.8809L29.776 38.3739L20.929 22.6039C20.169 21.2449 18.609 20.3379 16.892 20.3369C16.033 20.3369 15.136 20.5639 14.28 21.0759V21.0749ZM45.718 33.2299L32.895 39.7859H61.043L57.851 35.8519C56.081 33.6669 54.425 31.5599 51.327 31.5599C49.844 31.5599 48.031 32.0429 45.718 33.2299ZM4.198 35.8499L1 39.7849H29.154L16.332 33.2299C14.016 32.0429 12.202 31.5599 10.719 31.5599C7.618 31.5599 5.964 33.6669 4.199 35.8519L4.198 35.8499Z" fill="white"/>
</mask>
<g mask="url(#mask23_137_100)">
<path fill-rule="evenodd" clip-rule="evenodd" d="M32.1064 34.0639H32.4684V8.60891H32.1064V34.0639ZM32.4684 34.0639H32.8314V8.60891H32.4684V34.0639ZM32.8314 34.0639H33.1924V8.60891H32.8314V34.0639ZM33.1924 34.0639H33.5544V8.60891H33.1924V34.0639ZM33.5544 34.0639H33.9164V8.60891H33.5544V34.0639ZM33.9164 34.0639H34.2774V8.60891H33.9164V34.0639ZM34.2774 34.0639H34.6384V8.60891H34.2774V34.0639ZM34.6384 34.0639H35.0004V8.60891H34.6384V34.0639ZM35.0004 34.0639H35.3614V8.60891H35.0004V34.0639ZM35.3614 34.0639H35.7244V8.60891H35.3614V34.0639ZM35.7244 34.0639H36.0864V8.60891H35.7244V34.0639ZM36.0874 34.0639H36.4484V8.60891H36.0874V34.0639ZM36.4484 34.0639H36.8094V8.60891H36.4484V34.0639ZM36.8094 34.0639H37.1714V8.60891H36.8094V34.0639ZM37.1714 34.0639H37.5324V8.60891H37.1714V34.0639ZM37.5324 34.0639H37.8934V8.60891H37.5324V34.0639ZM37.8934 34.0639H38.2554V8.60891H37.8934V34.0639ZM38.2554 34.0639H38.6164V8.60891H38.2554V34.0639ZM38.6164 34.0639H38.9804V8.60891H38.6164V34.0639ZM38.9804 34.0639H39.3414V8.60891H38.9804V34.0639ZM39.3414 34.0639H39.7034V8.60891H39.3414V34.0639ZM39.7034 34.0639H39.7364V8.60791H39.7034V34.0639Z" fill="#164194"/>
</g>
</svg>
